<?xml version="1.0" encoding="utf-8"?>
<!-- Generator: Adobe Illustrator 16.0.0, SVG Export Plug-In . SVG Version: 6.00 Build 0)  -->
<!DOCTYPE svg PUBLIC "-//W3C//DTD SVG 1.1//EN" "http://www.w3.org/Graphics/SVG/1.1/DTD/svg11.dtd">
<svg version="1.1" id="Livello_1" xmlns="http://www.w3.org/2000/svg" xmlns:xlink="http://www.w3.org/1999/xlink" x="0px" y="0px"
	 width="149.333px" height="31.833px" viewBox="0 0 149.333 31.833" enable-background="new 0 0 149.333 31.833"
	 xml:space="preserve">
<g>
	<path fill="#FFFFFF" d="M17.101,12.796c-0.303-0.487-0.682-0.914-1.136-1.282c-0.455-0.368-0.968-0.654-1.542-0.86
		s-1.174-0.309-1.801-0.309c-1.147,0-2.12,0.222-2.92,0.666c-0.801,0.443-1.45,1.038-1.947,1.785
		c-0.498,0.746-0.86,1.596-1.087,2.547c-0.227,0.952-0.34,1.936-0.34,2.953c0,0.974,0.113,1.92,0.34,2.839
		c0.228,0.919,0.589,1.747,1.087,2.482c0.497,0.735,1.146,1.325,1.947,1.768c0.8,0.444,1.773,0.666,2.92,0.666
		c1.558,0,2.774-0.476,3.65-1.428c0.876-0.952,1.412-2.207,1.606-3.764h4.932c-0.13,1.45-0.465,2.758-1.006,3.926
		c-0.541,1.168-1.255,2.164-2.142,2.985c-0.887,0.822-1.926,1.449-3.115,1.882c-1.19,0.433-2.499,0.649-3.926,0.649
		c-1.774,0-3.37-0.308-4.786-0.925c-1.417-0.616-2.612-1.465-3.585-2.547c-0.974-1.082-1.72-2.353-2.239-3.813
		c-0.519-1.46-0.779-3.034-0.779-4.721c0-1.73,0.26-3.336,0.779-4.819c0.519-1.481,1.266-2.774,2.239-3.877
		c0.973-1.103,2.168-1.968,3.585-2.596c1.417-0.627,3.012-0.941,4.786-0.941c1.276,0,2.482,0.184,3.618,0.552
		c1.136,0.368,2.152,0.904,3.05,1.606c0.897,0.703,1.639,1.574,2.223,2.612c0.584,1.039,0.952,2.229,1.103,3.569h-4.932
		C17.598,13.818,17.403,13.283,17.101,12.796z"/>
	<path fill="#FFFFFF" d="M34.59,6.615l8.664,23.168h-5.289l-1.752-5.159h-8.664l-1.817,5.159h-5.127l8.761-23.168H34.59z
		 M34.882,20.827l-2.92-8.501h-0.065l-3.018,8.501H34.882z"/>
	<path fill="#FFFFFF" d="M54.514,6.615c1.038,0,1.974,0.168,2.807,0.503c0.833,0.336,1.546,0.795,2.142,1.379
		c0.595,0.584,1.049,1.26,1.363,2.028c0.313,0.768,0.471,1.596,0.471,2.482c0,1.363-0.287,2.542-0.86,3.537
		c-0.574,0.996-1.509,1.752-2.807,2.271v0.065c0.627,0.173,1.146,0.438,1.558,0.795c0.411,0.357,0.747,0.779,1.006,1.266
		c0.26,0.487,0.449,1.022,0.568,1.606c0.119,0.584,0.2,1.168,0.244,1.752c0.021,0.368,0.043,0.801,0.064,1.298
		c0.021,0.498,0.06,1.006,0.114,1.525c0.054,0.519,0.141,1.011,0.26,1.476c0.119,0.466,0.297,0.86,0.535,1.185h-5.094
		c-0.282-0.735-0.455-1.611-0.52-2.628c-0.064-1.017-0.162-1.99-0.292-2.92c-0.173-1.211-0.541-2.098-1.103-2.661
		c-0.563-0.563-1.482-0.844-2.758-0.844h-5.094v9.053h-5.095V6.615H54.514z M52.696,17.096c1.168,0,2.044-0.26,2.628-0.779
		s0.876-1.363,0.876-2.531c0-1.125-0.292-1.941-0.876-2.45c-0.584-0.508-1.46-0.762-2.628-0.762h-5.581v6.522H52.696z"/>
	<path fill="#FFFFFF" d="M66.097,24.072c0.281,0.541,0.654,0.979,1.12,1.314c0.465,0.336,1.011,0.584,1.639,0.747
		c0.627,0.162,1.276,0.243,1.947,0.243c0.454,0,0.941-0.038,1.46-0.113c0.52-0.076,1.006-0.222,1.46-0.438
		c0.454-0.216,0.833-0.513,1.136-0.892c0.303-0.378,0.454-0.86,0.454-1.444c0-0.627-0.2-1.136-0.6-1.525
		c-0.401-0.389-0.925-0.714-1.574-0.973c-0.649-0.26-1.385-0.487-2.207-0.682c-0.822-0.195-1.655-0.411-2.499-0.649
		c-0.866-0.216-1.709-0.481-2.531-0.795c-0.822-0.313-1.558-0.719-2.207-1.217c-0.649-0.498-1.173-1.12-1.574-1.866
		c-0.4-0.747-0.6-1.649-0.6-2.709c0-1.189,0.254-2.223,0.763-3.099c0.508-0.876,1.173-1.606,1.996-2.19
		c0.822-0.584,1.752-1.017,2.791-1.298c1.038-0.281,2.077-0.422,3.115-0.422c1.211,0,2.374,0.136,3.488,0.406
		c1.114,0.271,2.104,0.709,2.969,1.314c0.865,0.605,1.552,1.379,2.061,2.32c0.508,0.941,0.762,2.083,0.762,3.423h-4.932
		c-0.043-0.692-0.189-1.266-0.438-1.72c-0.249-0.454-0.579-0.811-0.99-1.071c-0.411-0.26-0.881-0.443-1.412-0.552
		c-0.53-0.108-1.108-0.162-1.736-0.162c-0.411,0-0.822,0.043-1.233,0.13c-0.411,0.086-0.784,0.238-1.12,0.454
		c-0.335,0.216-0.611,0.487-0.827,0.811c-0.217,0.325-0.325,0.736-0.325,1.233c0,0.454,0.086,0.822,0.26,1.103
		c0.173,0.282,0.513,0.541,1.022,0.779c0.508,0.238,1.211,0.476,2.109,0.714c0.897,0.238,2.071,0.541,3.521,0.909
		c0.433,0.086,1.033,0.243,1.801,0.471c0.768,0.227,1.53,0.589,2.288,1.087s1.412,1.163,1.963,1.996
		c0.551,0.833,0.827,1.898,0.827,3.196c0,1.06-0.206,2.044-0.616,2.953c-0.411,0.909-1.022,1.693-1.833,2.353
		c-0.811,0.66-1.817,1.174-3.018,1.542c-1.201,0.367-2.591,0.551-4.17,0.551c-1.276,0-2.515-0.157-3.715-0.47
		c-1.201-0.313-2.261-0.806-3.18-1.477c-0.92-0.67-1.65-1.525-2.19-2.563c-0.541-1.039-0.801-2.271-0.779-3.699h4.932
		C65.675,22.872,65.816,23.532,66.097,24.072z"/>
	<path fill="#FFFFFF" d="M90.888,6.615V25.5h11.292v4.283H85.793V6.615H90.888z"/>
	<path fill="#FFFFFF" d="M108.507,6.615v23.168h-5.095V6.615H108.507z"/>
	<path fill="#FFFFFF" d="M114.802,6.615l9.67,15.543h0.065V6.615h4.77v23.168h-5.095l-9.637-15.51h-0.065v15.51h-4.77V6.615H114.802
		z"/>
	<path fill="#FFFFFF" d="M147.867,6.615v4.283h-12.233v4.965h11.227v3.958h-11.227V25.5h12.493v4.283h-17.587V6.615H147.867z"/>
</g>
<rect x="86.167" y="1.5" fill="#FFFFFF" width="62" height="4"/>
</svg>
