<?xml version="1.0" encoding="utf-8"?>
<!-- Generator: Adobe Illustrator 16.0.0, SVG Export Plug-In . SVG Version: 6.00 Build 0)  -->
<!DOCTYPE svg PUBLIC "-//W3C//DTD SVG 1.1//EN" "http://www.w3.org/Graphics/SVG/1.1/DTD/svg11.dtd">
<svg version="1.1" id="Livello_1" xmlns="http://www.w3.org/2000/svg" xmlns:xlink="http://www.w3.org/1999/xlink" x="0px" y="0px"
	 width="131px" height="23px" viewBox="0 0 131 23" enable-background="new 0 0 131 23" xml:space="preserve">
<g>
	<path fill="#FFFFFF" d="M17.277,19.783c-0.48,0.591-1.316,1.157-2.508,1.697c-1.191,0.541-2.683,0.811-4.475,0.811
		c-2.624,0-4.758-0.947-6.402-2.84c-1.645-1.894-2.466-4.36-2.466-7.399v-0.43c0-2.993,0.822-5.422,2.466-7.288
		c1.644-1.866,3.801-2.799,6.471-2.799c1.515,0,2.854,0.252,4.019,0.755s2.111,1.194,2.84,2.071v3.506h-1.289l-0.291-2.952
		c-0.545-0.6-1.251-1.078-2.12-1.434c-0.868-0.355-1.88-0.533-3.034-0.533c-2.291,0-4.097,0.804-5.418,2.411
		c-1.321,1.607-1.981,3.686-1.981,6.235v0.458c0,2.624,0.649,4.752,1.947,6.388s3.051,2.453,5.259,2.453
		c1.312,0,2.434-0.171,3.367-0.513s1.589-0.707,1.968-1.095v-4.891l-3.88-0.069v-1.344h5.529V19.783z"/>
	<path fill="#FFFFFF" d="M18.208,3.058V1.825h6.18v1.233l-2.259,0.18V20.6l2.259,0.18V22h-6.18V20.78l2.259-0.18V3.238L18.208,3.058
		z"/>
	<path fill="#FFFFFF" d="M28.755,3.058L26.871,3.21l5.57,15.38l0.402,1.344h0.083l0.402-1.344l5.556-15.38L37,3.058V1.825h5.238
		v1.233l-1.566,0.125L33.661,22h-1.566L25.07,3.183l-1.552-0.125V1.825h5.237V3.058z"/>
	<path fill="#FFFFFF" d="M53.284,12.231h-8.272V20.6h9.533l0.125-3.021h1.469V22H41.104V20.78l2.258-0.18V3.238l-2.258-0.18V1.825
		h2.258h12.707v4.434h-1.469l-0.125-3.021h-9.464v7.579h8.272V12.231z"/>
	<path fill="#FFFFFF" d="M75.346,7.076l-0.083-0.014L69.859,22h-2.716L61.767,7.118l-0.083,0.014l0.388,8.854v3.173l2.162,0.416V22
		h-8.355v-2.425l2.148-0.416V4.679l-2.148-0.416V1.825h2.148h5.279l5.141,14.868h0.083l5.182-14.868h7.455v2.439l-2.162,0.416v14.48
		l2.162,0.416V22h-8.355v-2.425l2.147-0.416v-3.173L75.346,7.076z"/>
	<path fill="#FFFFFF" d="M98.212,12.064c0,2.956-0.845,5.399-2.536,7.33s-3.903,2.896-6.637,2.896c-2.725,0-4.926-0.965-6.603-2.896
		s-2.515-4.374-2.515-7.33V11.76c0-2.938,0.836-5.376,2.508-7.316c1.672-1.94,3.87-2.91,6.595-2.91c2.734,0,4.949,0.97,6.644,2.91
		c1.695,1.939,2.543,4.378,2.543,7.316V12.064z M94.18,11.732c0-2.087-0.435-3.783-1.303-5.085
		c-0.868-1.303-2.152-1.954-3.852-1.954s-2.967,0.647-3.803,1.94c-0.836,1.293-1.254,2.993-1.254,5.099v0.333
		c0,2.125,0.422,3.836,1.268,5.134s2.113,1.947,3.804,1.947c1.708,0,2.993-0.649,3.852-1.947c0.859-1.298,1.289-3.009,1.289-5.134
		V11.732z"/>
	<path fill="#FFFFFF" d="M106.057,1.825c2.291,0,4.087,0.524,5.39,1.573c1.302,1.048,1.954,2.497,1.954,4.344
		c0,1.017-0.272,1.898-0.817,2.647c-0.545,0.748-1.344,1.353-2.397,1.815c1.191,0.351,2.048,0.936,2.57,1.753
		c0.521,0.817,0.783,1.832,0.783,3.042v1.025c0,0.443,0.088,0.788,0.263,1.032s0.466,0.39,0.873,0.437l0.499,0.069V22h-2.092
		c-1.321,0-2.25-0.355-2.785-1.067c-0.536-0.711-0.804-1.63-0.804-2.757v-1.15c0-0.979-0.261-1.748-0.783-2.307
		c-0.522-0.559-1.259-0.853-2.21-0.88h-3.312v5.321l2.162,0.416V22h-8.355v-2.425l2.148-0.416V4.679l-2.148-0.416V1.825h2.148
		H106.057z M103.189,10.721h2.799c1.127,0,1.972-0.24,2.536-0.721c0.563-0.48,0.845-1.173,0.845-2.079
		c0-0.905-0.279-1.628-0.838-2.168c-0.559-0.54-1.383-0.811-2.473-0.811h-2.868V10.721z"/>
	<path fill="#FFFFFF" d="M126.691,13.131h-6.831v5.764h6.512l0.18-2.411h3.076V22h-15.962v-2.425l2.148-0.416V4.679l-2.148-0.416
		V1.825h2.148h13.787v5.529h-3.104l-0.18-2.411h-6.457v5.071h6.831V13.131z"/>
</g>
</svg>
