<?xml version="1.0" encoding="utf-8"?>
<!-- Generator: Adobe Illustrator 18.1.1, SVG Export Plug-In . SVG Version: 6.00 Build 0)  -->
<svg version="1.1" id="Layer_1" xmlns="http://www.w3.org/2000/svg" xmlns:xlink="http://www.w3.org/1999/xlink" x="0px" y="0px"
	 viewBox="54.5 444 528 110" enable-background="new 54.5 444 528 110" xml:space="preserve">
<g>
	<path fill="#77BC1F" stroke="#77BC1F" stroke-width="1.036" stroke-miterlimit="10" d="M235.4,508.6c0,16.6-13.4,32.4-31.6,32.4
		s-31.6-15.8-31.6-32.4s13.4-32.4,31.6-32.4S235.4,491.9,235.4,508.6z M179.4,508.6c0,13.1,10.6,25.1,24.5,25.1
		c13.9,0,24.5-12,24.5-25.1s-10.6-25.1-24.5-25.1C189.8,483.2,179.4,495.4,179.4,508.6z"/>
	<path fill="#77BC1F" stroke="#77BC1F" stroke-width="1.036" stroke-miterlimit="10" d="M295.2,533.1c-4.7,4.6-14.1,7.9-22.1,7.9
		c-17.9,0-31.9-13.6-31.9-33.1c0-19,15.8-31.8,33.2-31.8c7.4,0,15,3,21.2,7.3l-4.4,5.7c-3.6-3.2-9.5-5.9-17.1-5.9
		c-14.9,0-25.8,10.8-25.8,25.5c0,13.3,10.4,25,24,25c6.6,0.2,13.1-2.2,18.3-6.2L295.2,533.1z"/>
	<path fill="#77BC1F" stroke="#77BC1F" stroke-width="1.036" stroke-miterlimit="10" d="M308.4,462.5l7.1-4v19.1h16.8v7.1h-16.8
		v38.1c0,7.4,3.2,10.4,11.1,10.4c1.9,0,3.8,0,5.7-0.3v6.6c-1.9,0.3-4.1,0.8-6.3,0.8c-11.4,0-17.6-6.5-17.6-17.6v-38h-8.4l1.7-7.1
		h6.5L308.4,462.5L308.4,462.5z"/>
	<path fill="#77BC1F" stroke="#77BC1F" stroke-width="1.036" stroke-miterlimit="10" d="M399.7,508.6c0,16.6-13.4,32.4-31.6,32.4
		c-18.2,0-31.6-15.8-31.6-32.4s13.4-32.4,31.6-32.4C386.2,476.1,399.7,491.9,399.7,508.6z M343.5,508.6c0,13.1,10.6,25.1,24.5,25.1
		c13.9,0,24.5-12,24.5-25.1s-10.6-25.1-24.5-25.1C354.1,483.2,343.5,495.4,343.5,508.6z"/>
	<path fill="#FCFCFC" d="M408.9,451.8l7.1-1.4v38.9c7.3-8.2,15.8-13.1,26.7-13.1c16.9,0,31,12.2,31,31.6c0,18-13.9,33.1-32.1,33.1
		c-20.7,0-32.7-13.4-32.7-33.7V451.8L408.9,451.8z M441.8,533.7c14.5,0,24.4-10.8,24.8-25c0-14.9-10.4-25.5-25.1-25.5
		c-14.2,0-25.3,10.8-25.3,25.8C416.1,523.7,427.8,533.7,441.8,533.7z"/>
	<path fill="#FCFCFC" d="M494.6,539.4l-7.1,1.4v-89l7.1-1.4V539.4z"/>
	<path fill="#FCFCFC" d="M518.5,476.1v41c0,11.1,4.4,17.4,15,17.4c11.5,0,19-4.1,19-29.1v-27.8l7.1-1.4v63.3l-7.1,0.9v-10.3h-0.3
		c-2.4,5.5-10,10.8-19.3,10.8c-15.7,0-21.5-8.9-21.5-22.8v-40.3L518.5,476.1z"/>
	<path fill="#FCFCFC" d="M120.9,495.3c0,0-4.6-3,13.4-14.2s13.1-10.9,11.5-19.6c0,0,5.7,5.7-14.2,15.8
		C111.9,487.4,119.9,489.7,120.9,495.3z"/>
	<path fill="#FCFCFC" d="M122.5,503.5c0,0-1.3-5.4,19.6-0.8c20.7,4.6,16.9,1.4,22.1-5.7c0,0,0.2,8.1-21.2,1.3
		C121.7,491.5,125.6,498.9,122.5,503.5z"/>
	<path fill="#FCFCFC" d="M115.5,510.4c0,0,3-4.6,13.8,13.8c10.8,18.3,10.4,13.3,19.3,12.2c0,0-5.7,5.5-15.3-14.7
		C123.6,501.8,120.9,509.7,115.5,510.4z"/>
	<path fill="#FCFCFC" d="M105.4,509.5c0,0,5.4-0.8-0.9,19.6c-6.5,20.2-3,16.8,3.8,22.5c0,0-7.9-0.6,0.6-21.2
		C117.4,510,109.7,513.1,105.4,509.5z"/>
	<path fill="#FCFCFC" d="M66.6,528c0,0-3.2-4.4,17.7-8.4c20.9-4.1,16-5.5,18-14.2c0,0,3.3,7.3-19,9.6
		C61.3,517.2,67.8,522.5,66.6,528z"/>
	<path fill="#FCFCFC" d="M61.4,497.5c0,0-0.5-5.5,19.6,1.6s16.6,3.5,22.6-3.2c0,0-0.8,7.9-21.2-1.3
		C62.1,485.5,65.1,493.4,61.4,497.5z"/>
	<path fill="#77BC1F" stroke="#77BC1F" stroke-width="0.6907" stroke-miterlimit="10" d="M78.2,462.7c0,0,3.5-4.3,12.7,14.9
		c9.2,19.1,9.3,14.2,18.2,13.8c0,0-6.2,5.1-14.2-15.8C87,454.8,83.7,462.5,78.2,462.7z"/>
	<path fill="#FCFCFC" d="M110.5,449.2c0,0,5.4-0.8-0.5,19.6c-5.9,20.4-2.4,16.8,4.6,22.3c0,0-8.1-0.3,0-21.2
		C122.5,449.1,114.7,452.6,110.5,449.2z"/>
</g>
</svg>
