<?xml version="1.0" encoding="utf-8"?>
<!-- Generator: Adobe Illustrator 16.0.0, SVG Export Plug-In . SVG Version: 6.00 Build 0)  -->
<!DOCTYPE svg PUBLIC "-//W3C//DTD SVG 1.1//EN" "http://www.w3.org/Graphics/SVG/1.1/DTD/svg11.dtd">
<svg version="1.1" id="Livello_1" xmlns="http://www.w3.org/2000/svg" xmlns:xlink="http://www.w3.org/1999/xlink" x="0px" y="0px"
	 width="155.333px" height="49.667px" viewBox="0 0 155.333 49.667" enable-background="new 0 0 155.333 49.667"
	 xml:space="preserve">
<g>
	<path fill="#FFFFFF" d="M71.534,30.877c0-0.96-0.366-1.751-1.097-2.373c-0.732-0.62-2.118-1.16-4.158-1.619
		c-2.912-0.634-5.103-1.494-6.573-2.578c-1.471-1.085-2.207-2.564-2.207-4.438c0-1.948,0.828-3.608,2.483-4.98
		c1.655-1.373,3.813-2.059,6.474-2.059c2.793,0,5.014,0.717,6.662,2.15c1.648,1.434,2.435,3.178,2.361,5.232l-0.044,0.133h-4.168
		c0-1.049-0.439-1.992-1.319-2.827c-0.879-0.835-2.043-1.252-3.492-1.252c-1.552,0-2.705,0.34-3.458,1.02s-1.131,1.5-1.131,2.46
		c0,0.946,0.333,1.692,0.998,2.24c0.666,0.546,2.018,1.035,4.057,1.463c3.03,0.65,5.284,1.534,6.762,2.649
		c1.478,1.116,2.217,2.613,2.217,4.489c0,2.128-0.861,3.851-2.583,5.166c-1.722,1.316-3.972,1.973-6.75,1.973
		c-3.059,0-5.469-0.775-7.228-2.328c-1.759-1.551-2.594-3.362-2.505-5.431l0.044-0.134h4.168c0.074,1.545,0.65,2.673,1.729,3.387
		c1.078,0.713,2.342,1.07,3.791,1.07c1.552,0,2.767-0.314,3.647-0.942C71.094,32.722,71.534,31.897,71.534,30.877z"/>
	<path fill="#FFFFFF" d="M88.817,34.292c1.448,0,2.723-0.447,3.825-1.341c1.1-0.894,1.651-1.991,1.651-3.292h3.924l0.044,0.133
		c0.074,2.07-0.846,3.91-2.76,5.521s-4.142,2.416-6.684,2.416c-3.488,0-6.156-1.138-8.003-3.414
		c-1.848-2.276-2.771-5.136-2.771-8.58v-0.931c0-3.414,0.927-6.263,2.782-8.546c1.854-2.284,4.519-3.426,7.992-3.426
		c2.808,0,5.103,0.829,6.884,2.483c1.781,1.656,2.642,3.688,2.583,6.097l-0.044,0.133h-3.946c0-1.463-0.518-2.708-1.552-3.736
		c-1.035-1.027-2.343-1.541-3.924-1.541c-2.291,0-3.928,0.823-4.911,2.469c-0.983,1.646-1.475,3.665-1.475,6.057v0.929
		c0,2.451,0.488,4.492,1.463,6.124C84.871,33.476,86.511,34.292,88.817,34.292z"/>
	<path fill="#FFFFFF" d="M112.242,17.132l-2.239-0.133c-1.153,0-2.125,0.274-2.916,0.82c-0.791,0.547-1.401,1.316-1.829,2.306
		v17.137h-4.367V13.274h4.318l0.005,3.502c0.68-1.241,1.519-2.209,2.516-2.904c0.999-0.694,2.147-1.042,3.448-1.042
		c0.325,0,0.635,0.026,0.931,0.078c0.295,0.052,0.539,0.107,0.732,0.166L112.242,17.132z"/>
	<path fill="#FFFFFF" d="M118.907,11.135h-4.368V6.679h4.368V11.135z M118.907,37.262h-4.368V13.274h4.368V37.262z"/>
	<path fill="#FFFFFF" d="M141.524,26.177c0,3.458-0.828,6.248-2.482,8.369c-1.656,2.121-3.939,3.181-6.851,3.181
		c-1.479,0-2.775-0.248-3.891-0.742c-1.116-0.496-2.065-1.238-2.849-2.229v11.728h-4.367v-33.21h4.015l0.02,3.104
		c0.783-1.153,1.758-2.032,2.926-2.638c1.167-0.606,2.527-0.909,4.079-0.909c2.971,0,5.28,1.179,6.928,3.537
		s2.472,5.473,2.472,9.344V26.177z M137.157,25.7c0-2.716-0.536-4.949-1.607-6.698c-1.072-1.75-2.649-2.624-4.733-2.624
		c-1.257,0-2.328,0.285-3.215,0.853c-0.887,0.569-1.604,1.347-2.15,2.336v11.58c0.547,0.99,1.264,1.76,2.15,2.314
		c0.887,0.553,1.973,0.83,3.26,0.83c2.069,0,3.635-0.756,4.7-2.27c1.064-1.513,1.596-3.465,1.596-5.856V25.7z"/>
	<path fill="#FFFFFF" d="M148.114,7.488v5.787h4.545v3.236h-4.545v14.566c0,1.123,0.232,1.914,0.698,2.372
		c0.465,0.458,1.083,0.688,1.852,0.688c0.251,0,0.528-0.029,0.832-0.088c0.303-0.059,0.572-0.133,0.809-0.222l0.576,2.993
		c-0.325,0.266-0.802,0.483-1.43,0.653c-0.628,0.17-1.26,0.255-1.896,0.255c-1.774,0-3.186-0.535-4.234-1.607
		c-1.05-1.071-1.574-2.753-1.574-5.043V16.511h-3.813v-3.236h3.813V7.488H148.114z"/>
</g>
<polyline fill="none" stroke="#FFFFFF" stroke-width="5" stroke-linecap="round" stroke-linejoin="round" stroke-miterlimit="10" points="
	15.381,12.333 4.469,26.661 14.422,40.031 "/>
<polyline fill="none" stroke="#FFFFFF" stroke-width="5" stroke-linecap="round" stroke-linejoin="round" stroke-miterlimit="10" points="
	39.87,40.031 50.781,25.703 40.829,12.333 "/>
<line fill="none" stroke="#FFFFFF" stroke-width="4.2232" stroke-linecap="round" stroke-linejoin="round" stroke-miterlimit="10" x1="34.391" y1="5.661" x2="20.926" y2="46.639"/>
</svg>
