<?xml version="1.0" encoding="utf-8"?>
<!-- Generator: Adobe Illustrator 16.0.0, SVG Export Plug-In . SVG Version: 6.00 Build 0)  -->
<!DOCTYPE svg PUBLIC "-//W3C//DTD SVG 1.1//EN" "http://www.w3.org/Graphics/SVG/1.1/DTD/svg11.dtd">
<svg version="1.1" id="Livello_1" xmlns="http://www.w3.org/2000/svg" xmlns:xlink="http://www.w3.org/1999/xlink" x="0px" y="0px"
	 width="151px" height="89px" viewBox="0 0 151 89" enable-background="new 0 0 151 89" xml:space="preserve">
<g>
	<path fill="#FFFFFF" d="M60.284,30.039c-0.013-0.01-0.026-0.02-0.039-0.03l0.013,0.026L60.284,30.039z"/>
	<path fill="#FFFFFF" d="M97.224,67.428c-0.682,0.094-1.295,0.142-1.841,0.142c-1.091,0-1.849-0.325-2.51-0.976
		C92.212,65.944,92,64.821,92,63.227V43.25h6v-6h-6v-7h-6v4.563l3.188,0.625l-9.375,7.851L86,43.25v19.977
		c0,3.252,0.527,5.639,2.017,7.159c1.489,1.521,3.385,2.282,5.901,2.282c1.134,0,2.212-0.121,3.345-0.362
		c1.133-0.242,1.965-0.551,2.553-0.929l-0.864-4.248C98.491,67.234,97.906,67.333,97.224,67.428z"/>
	<path fill="#FFFFFF" d="M148.343,37.437c-0.514-0.073-1.012-0.11-1.495-0.11c-1.825,0-3.446,0.493-4.862,1.479
		c-1.416,0.987-2.607,1.997-3.572,3.738l-0.598-5.294H127v4.703l6,0.881V67.16l-4.207,0.881l-2.698-0.346
		c-0.042-0.419-0.068-0.839-0.079-1.259c-0.01-0.419-0.016-0.85-0.016-1.29V48.75c0-3.671-1.285-6.493-3.677-8.465
		c-2.392-1.971-5.563-2.958-9.423-2.958c-2.58,0-5.018,0.373-7.221,1.117c-2.202,0.745-4.679,1.736-5.679,2.974v6.832h4.831
		l0.661-3.699c0.733-0.692,1.694-1.293,2.879-1.692c1.185-0.398,2.554-0.626,4.106-0.626c2.245,0,4.187,0.568,5.445,1.733
		c1.259,1.164,2.077,2.729,2.077,4.722v3.562h-6.767c-4.553,0-8.135,1.078-10.747,2.829c-2.612,1.752-3.918,4.344-3.918,7.575
		c0,3.146,0.923,5.636,2.77,7.367c1.846,1.731,4.542,2.622,8.087,2.622c2.035,0,3.95-0.497,5.743-1.514
		c1.794-1.018,3.289-2.285,4.485-3.817c0.042,0.734,0.115,1.593,0.22,2.328c0.104,0.734,0.251,1.611,0.44,2.611h8.119H144v-4.208
		l-5-0.881V47.618c0-1.385,1.207-2.459,2.319-3.226c1.112-0.766,2.356-1.149,3.993-1.149l3.459,0.189l0.786-5.759
		C149.283,37.59,148.857,37.511,148.343,37.437z M120,62.439c-1,1.385-2.141,2.57-3.84,3.556c-1.699,0.987-3.672,1.479-5.728,1.479
		c-1.867,0-3.31-0.393-4.233-1.18s-1.409-1.925-1.409-3.415c0-1.678,0.728-3.399,2.207-4.574s3.476-2.057,6.015-2.057H120V62.439z"
		/>
	<path fill="#FFFFFF" d="M86,33.713l-25.506-3.674C60.965,30.408,61,30.792,62,31.19v8.06h-5.091l-1.165-6.311
		c-0.944-0.798-2.203-1.341-3.776-1.866c-1.573-0.523-4.168-0.728-6.245-0.728c-3.294,0-5.822,0.728-7.584,2.123
		c-1.762,1.395-2.644,3.23-2.644,5.474c0,1.994,0.897,3.663,2.691,4.995c1.794,1.333,5.463,2.505,9.471,3.512
		c4.825,1.196,8.491,2.96,10.999,5.289c2.507,2.328,3.761,5.214,3.761,8.655c0,3.693-1.506,6.662-4.516,8.907
		c-2.823,2.105-6.463,3.224-10.919,3.354l27.042,14.216l-5.258-30.649l14.02-13.661l0,0l8.469-7.703"/>
	<path fill="#FFFFFF" d="M30,66.405V57.25h4.66l1.196,6.891c1.195,0.986,2.622,1.95,4.28,2.58c1.657,0.629,3.639,1.023,5.948,1.023
		c3.125,0,5.596-0.623,7.411-1.944c1.814-1.322,2.722-3.096,2.722-5.362c0-2.098-0.787-3.845-2.36-5.261
		c-1.574-1.417-4.354-2.602-8.34-3.567c-4.846-1.154-9.403-2.851-12.13-5.096c-2.728-2.245-4.091-5.065-4.091-8.463
		c0-3.587,1.521-6.572,4.563-8.953c3.042-2.381,6.997-3.571,11.864-3.571c3.209,0,6.9,0.55,9.534,1.652
		c1.946,0.814,3.609,1.758,4.988,2.831L46.494,2.146l-13.764,27.89L1.951,34.508l22.271,21.709l-5.258,30.654l27.019-14.205
		c-3.484-0.011-6.583-0.587-9.295-1.729C33.951,69.783,31,68.272,30,66.405z"/>
</g>
</svg>
