<?xml version="1.0" ?><!DOCTYPE svg  PUBLIC '-//W3C//DTD SVG 1.1//EN'  'http://www.w3.org/Graphics/SVG/1.1/DTD/svg11.dtd'><svg enable-background="new 0 0 512 512" height="512px" id="Layer_1" version="1.1" viewBox="0 0 512 512" width="512px" xml:space="preserve" xmlns="http://www.w3.org/2000/svg" xmlns:xlink="http://www.w3.org/1999/xlink"><g id="geo_x5F_targeting_x5F_local_x5F_search"><path d="M254,16.072c-26.562,0-52.108,4.341-75.977,12.341c8.251,7.185,15.147,15.607,20.9,24.973   c14.7-4.001,30.577-6.435,45.577-7.108v118.616c-13-0.338-26.456-1.587-39.51-3.707c-1.795,4.749-3.962,9.476-6.24,14.174   c15.033,2.632,30.75,4.167,45.75,4.539v68.6H141.336c-7.68,6-14.363,11-19.012,15h2.667c0.422,30,4.088,60.682,10.943,90.144   c-17.269,7.114-33.878,15.952-49.641,26.191C61.898,347.048,46.888,306.5,45.24,263.5h47.329c-4.778-4-11.58-9-19.355-15H45.202   c0.281-9,1.079-17.118,2.35-25.333c-9.219-10.383-17.146-21.256-23.737-32.266c-5.69,20.437-8.743,41.91-8.743,64.16   c0,131.956,106.972,238.897,238.928,238.897s238.928-106.987,238.928-238.943S385.956,16.072,254,16.072z M95.723,391.228   c13.994-8.985,28.678-16.714,43.914-23.126c4.965,18.305,11.175,36.301,18.63,53.927c3.433,8.117,7.119,16.092,11.025,23.937   C140.874,433.312,115.781,414.501,95.723,391.228z M244.75,463.721c-18.93-0.807-37.09-4.142-54.402-9.68   c-6.744-12.255-12.837-24.87-18.329-37.856c-7.401-17.497-13.751-35.374-18.607-53.567c28.979-10.44,60.087-16.248,91.087-17.043   v118.146H244.75z M244.5,330.571c-32,0.785-64.517,6.962-94.674,17.651c-6.298-27.712-9.422-56.723-9.832-84.723H244.5V330.571z    M462.798,248.5h-85.313c-0.629-31-4.453-60.711-11.427-89.94c19.18-7.659,37.565-17.153,54.906-28.636   C445.985,163.141,461.33,203.5,462.798,248.5z M411.46,117.831c-15.585,10.205-32.046,18.837-49.185,25.815   c-4.859-17.53-10.862-34.773-18.01-51.675c-4.606-10.889-9.673-21.519-15.129-31.915C361.106,72.42,389.3,92.426,411.46,117.831z    M259.5,46.164c17,0.472,33.083,2.912,48.556,7.081c8.244,14.34,15.769,29.203,22.268,44.569   c7.072,16.72,12.793,33.787,17.542,51.144c-28.059,9.744-57.366,15.17-88.366,15.936V46.164z M259.5,179.899   c32-0.758,62.873-6.06,92.134-16.077c6.438,27.531,10.236,55.678,10.849,84.678H259.5V179.899z M259.5,263.5h103.038   c-0.407,28-3.973,56.457-10.153,83.913c-29.484-10.181-60.885-16.077-92.885-16.842V263.5z M310.71,456.035   c-16.272,4.617-33.21,7.302-51.21,7.801v-118.26c31,0.774,60.982,6.305,89.297,16.24c-4.889,18.469-11.089,36.615-18.598,54.369   C324.409,429.876,317.888,443.157,310.71,456.035z M331.771,448.905c4.46-8.787,8.631-17.745,12.493-26.876   c7.58-17.92,13.877-36.223,18.883-54.846c16.728,6.876,32.805,15.329,48.046,25.285   C389.686,417.032,362.53,436.524,331.771,448.905z M420.723,381.015c-17.042-11.261-35.088-20.607-53.906-28.18   c6.716-29.166,10.307-59.335,10.724-89.335h85.219C461.09,307.5,445.696,347.991,420.723,381.015z" fill="#333333"/><path d="M107.536,17c-51.066,0-92.464,41.398-92.464,92.464c0,89.536,92.464,145.464,92.464,145.464   S200,197,200,109.464C200,58.398,158.602,17,107.536,17z M107.536,156.928c-26.172,0-47.464-21.292-47.464-47.464   S81.364,62,107.536,62S155,83.292,155,109.464S133.708,156.928,107.536,156.928z" fill="#579BD3"/></g></svg>