<?xml version="1.0" ?><!DOCTYPE svg  PUBLIC '-//W3C//DTD SVG 1.1//EN'  'http://www.w3.org/Graphics/SVG/1.1/DTD/svg11.dtd'><svg enable-background="new 0 0 512 512" height="512px" id="Layer_1" version="1.1" viewBox="0 0 512 512" width="512px" xml:space="preserve" xmlns="http://www.w3.org/2000/svg" xmlns:xlink="http://www.w3.org/1999/xlink"><g id="target_x5F_audience"><path d="M254.825,17.897c-131.5,0-238.103,106.602-238.103,238.103s106.602,238.103,238.103,238.103   S492.928,387.501,492.928,256S386.326,17.897,254.825,17.897z M412.333,414.008C371.89,454.45,318.5,477.19,261.5,478.976V425.5   h-15v53.452c-56-1.94-109.394-24.657-149.683-64.945C56.334,373.524,33.587,319.5,31.842,263.5H83.5v-15H31.879   c1.982-57,24.692-109.761,64.939-150.007C137.106,58.204,190.5,34.988,246.5,33.047V85.5h15V33.023   c57,1.787,110.39,25.027,150.833,65.469c40.246,40.247,63.456,93.008,65.438,150.008H423.5v15h54.308   C476.063,319.5,452.816,373.524,412.333,414.008z" fill="#333333"/><path d="M447.348,295.96c-3.785-7.57-12.407-15.982-35.749-20.819c-23.342-4.837-26.076-9.042-25.025-17.034   c7.36-6.729,9.884-20.819,10.935-27.969c5.678-2.944,6.94-7.991,7.991-14.089s-0.21-6.098-1.051-6.098l-1.514,0.067   c0.672-1.791,0.92-4.912,0.558-8.712c2.58-26.339-15.222-33.094-20.452-33.097c-5.97-4.037-20.495-11.01-39.15-4.312   c-26.627,9.56-18.812,41.431-18.812,41.434c0.009,2.428,0.258,4.19,0.635,4.967c0,0-0.695-0.169-1.596-0.138   c-2.321,0.081-2.734,1.472-2.103,6.098s3.996,11.566,8.832,14.3c2.103,11.776,8.412,24.183,11.987,27.653   c0.448,8.144-2.933,11.032-12.545,13.908c24.288,6.508,39.9,17.199,47.571,32.54c4.4,8.8,4.912,21.011,4.826,27.507   c-0.067,4.998-0.479,9.384-1.22,13.165c40.027-3.211,63.101-16.989,65.883-20.141C450.502,321.615,451.133,303.53,447.348,295.96z" fill="#579BD3"/><path d="M126.598,331.288c0.037-12.57,1.923-21.829,5.604-27.522c3.539-5.473,8.791-12.549,18.067-18.738   c7.558-5.044,16.924-9.051,29.18-12.458c-13.519-3.899-15.214-7.907-14.351-14.462c7.36-6.729,9.884-20.819,10.935-27.969   c5.678-2.944,6.94-7.991,7.991-14.089s-0.21-6.098-1.051-6.098l-1.514,0.067c0.672-1.791,0.92-4.912,0.558-8.712   c2.58-26.339-15.222-33.094-20.452-33.097c-5.97-4.037-20.495-11.01-39.15-4.312c-26.627,9.56-18.812,41.431-18.812,41.434   c0.009,2.428,0.258,4.19,0.635,4.967c0,0-0.695-0.169-1.596-0.138c-2.321,0.081-2.734,1.472-2.103,6.098   c0.631,4.626,3.995,11.566,8.832,14.3c2.103,11.776,8.412,24.183,11.986,27.653c0.631,11.461-6.309,12.512-27.548,17.77   c-21.239,5.257-28.124,11.973-33.436,20.188c-3.852,5.956-2.944,25.655-1.051,28.389c1.69,2.441,26.867,17.613,68.166,20.838   C126.882,341.491,126.582,336.787,126.598,331.288z" fill="#579BD3"/><path d="M366.854,310.162c-5.131-10.261-16.817-21.662-48.455-28.218s-35.344-12.256-33.919-23.088   c9.976-9.121,13.396-28.218,14.822-37.909c7.696-3.99,9.406-10.831,10.831-19.097s-0.285-8.266-1.425-8.266l-2.051,0.091   c0.91-2.427,1.248-6.658,0.756-11.808c3.496-35.7-20.633-44.856-27.722-44.861c-8.092-5.471-27.779-14.923-53.065-5.845   c-36.091,12.958-25.499,56.157-25.498,56.161c0.012,3.291,0.35,5.679,0.86,6.732c0,0-0.942-0.229-2.163-0.186   c-3.146,0.11-3.705,1.995-2.85,8.266c0.855,6.271,5.416,15.677,11.971,19.382c2.85,15.962,11.401,32.779,16.247,37.482   c0.855,15.534-8.551,16.959-37.339,24.085s-38.12,16.229-45.32,27.363c-5.221,8.073-3.99,34.774-1.425,38.479   C143.675,352.632,186.145,378,254.552,378s108.027-23.373,112.302-28.218C371.13,344.936,371.985,320.423,366.854,310.162z" fill="#333333"/></g></svg>