<?xml version="1.0" ?><!DOCTYPE svg  PUBLIC '-//W3C//DTD SVG 1.1//EN'  'http://www.w3.org/Graphics/SVG/1.1/DTD/svg11.dtd'><svg enable-background="new 0 0 512 512" height="512px" id="Layer_1" version="1.1" viewBox="0 0 512 512" width="512px" xml:space="preserve" xmlns="http://www.w3.org/2000/svg" xmlns:xlink="http://www.w3.org/1999/xlink"><g id="settings_x5F_custom"><path d="M285.826,353.447c-13.013,4.915-27.096,7.639-41.803,7.704c-66.248,0.293-120.389-53.363-120.682-119.615   c-0.293-66.249,53.366-120.388,119.614-120.682c66.251-0.293,120.389,53.366,120.682,119.614   c0.07,15.773-2.924,30.856-8.412,44.693c12.507,13.558,29.835,32.245,48.917,52.781c-1.268-4.708-0.996-9.927,1.104-14.017   l11.218-27.183c2.4-7.356,10.696-13.405,18.436-13.438l13.803-0.061c7.738-0.033,14.967-6.331,16.059-13.991   c0,0,2.068-14.475,2.001-29.24c-0.064-14.104-1.985-27.333-1.985-27.333c-1.111-7.658-8.354-13.897-16.092-13.861l-13.704,0.061   c-7.738,0.033-16.031-5.958-18.425-13.317l-11.445-27.711c-3.539-6.884-1.977-17.01,3.469-22.509l9.709-9.795   c5.449-5.496,5.861-14.865,0.918-20.819L379.261,64.9c-5.971-4.924-15.313-4.456-20.761,1.039l-9.665,9.75   c-5.449,5.496-15.542,7.11-22.431,3.583l-28.096-11.509c-7.367-2.372-13.422-10.646-13.455-18.384l-0.061-13.753   c-0.033-7.738-6.333-14.945-13.999-16.015c0,0-13.861-1.935-28.295-1.872c-14.433,0.064-28.275,2.12-28.275,2.12   c-7.655,1.139-13.889,8.401-13.856,16.139l0.061,13.753c0.033,7.738-5.946,16.065-13.292,18.503l-27.993,11.757   c-6.859,3.586-16.966,2.062-22.462-3.384l-9.75-9.665c-5.496-5.449-14.843-5.833-20.77-0.857l-39.59,40.182   c-4.89,5.999-4.393,15.362,1.103,20.811l9.795,9.709c5.496,5.449,7.149,15.561,3.671,22.475L69.958,187.09   c-2.33,7.381-10.566,13.447-18.307,13.48l-13.704,0.061c-7.738,0.033-14.925,6.336-15.971,14.005c0,0-1.802,13.245-1.742,27.349   c0.066,14.765,2.261,29.221,2.261,29.221c1.161,7.652,8.446,13.883,16.183,13.85L52.484,285   c7.738-0.033,16.089,5.938,18.555,13.275l11.459,27.081c3.594,6.853,2.079,16.957-3.37,22.456l-9.665,9.75   c-5.449,5.496-5.833,14.843-0.857,20.77l40.182,39.59c5.999,4.89,15.362,4.393,20.811-1.103l9.709-9.795   c5.449-5.496,15.559-7.143,22.47-3.657l26.893,10.895c7.37,2.355,13.43,10.616,13.466,18.356l0.061,13.753   c0.033,7.738,6.333,14.945,13.999,16.015c0,0,13.861,1.935,28.295,1.872c14.434-0.064,28.278-2.12,28.278-2.12   c7.655-1.139,13.889-8.401,13.856-16.139l-0.061-13.753c-0.033-7.738,5.952-16.053,13.303-18.475l26.793-11.133   c1.283-0.662,2.679-1.145,4.137-1.459C311.977,381.197,295.846,364.08,285.826,353.447z" fill="#333333"/><path d="M489.424,451.562c-56.147-60.227-149.873-160.874-163.698-176.427   c-19.934-22.425-19.103-49.003-17.442-68.106s-19.103-45.681-49.003-51.495s-81.395-0.831-49.834,17.442   c31.562,18.272,45.681,28.239,40.698,43.189s-11.628,31.562-23.256,39.037c-11.628,7.475-15.781,7.475-23.256,2.492   c-7.475-4.983-13.289-9.136-29.9-19.934c-16.611-10.797-21.595,4.153-11.628,19.934s30.731,55.648,60.631,53.987   s49.283,5.475,63.123,19.934c0,0,92.025,97.617,153.616,163.157C466.765,493.5,487.167,476.5,489.424,451.562z" fill="#579BD3"/></g></svg>