<?xml version="1.0" ?><!DOCTYPE svg  PUBLIC '-//W3C//DTD SVG 1.1//EN'  'http://www.w3.org/Graphics/SVG/1.1/DTD/svg11.dtd'><svg enable-background="new 0 0 512 512" height="512px" id="Layer_1" version="1.1" viewBox="0 0 512 512" width="512px" xml:space="preserve" xmlns="http://www.w3.org/2000/svg" xmlns:xlink="http://www.w3.org/1999/xlink"><g id="traffic_x5F_analyze"><path d="M462,64.5h-47.025c-0.258-4-3.501-7-7.475-7s-7.216,3-7.475,7h-290.05c-0.258-4-3.501-7-7.475-7   s-7.216,3-7.475,7H49c-16.5,0-30.5,13-30.5,29.5v252c0,16.5,14,30.5,30.5,30.5h413c16.5,0,29.5-14,29.5-30.5V94   C491.5,77.5,478.5,64.5,462,64.5z M253.089,358.592c-8.284,0-15-6.716-15-15s6.716-15,15-15c8.284,0,15,6.716,15,15   S261.373,358.592,253.089,358.592z M476.5,311.5h-443V94c0-8.271,7.229-14.5,15.5-14.5h413c8.271,0,14.5,6.229,14.5,14.5V311.5z" fill="#333333"/><path d="M361.199,116.5L233.435,224.066L140.261,163.5L48.5,235.891V296.5h413V140.089L361.199,116.5z" fill="#579BD3"/><polygon fill="#333333" points="318.5,443.5 267.5,443.5 267.5,391.5 237.5,391.5 237.5,443.5 187.5,443.5 187.5,458.5    318.5,458.5  "/></g></svg>