<?xml version="1.0" ?><!DOCTYPE svg  PUBLIC '-//W3C//DTD SVG 1.1//EN'  'http://www.w3.org/Graphics/SVG/1.1/DTD/svg11.dtd'><svg enable-background="new 0 0 512 512" height="512px" id="Layer_1" version="1.1" viewBox="0 0 512 512" width="512px" xml:space="preserve" xmlns="http://www.w3.org/2000/svg" xmlns:xlink="http://www.w3.org/1999/xlink"><g id="social_x5F_media_x5F_marketing"><path d="M209.5,276.5v-74.083c0-38.275-20.714-56.032-47.648-56.032c-21.711,0-31.352,12.236-37.352,20.741V149.5   h-41v127h41v-72.218c0-3.73,0.456-7.386,1.576-10.072c2.984-7.461,9.983-15.146,21.324-15.146c14.847,0,21.1,11.415,21.1,28.128   V276.5H209.5z" fill="#579BD3"/><path d="M40.284,85.952c-13.43,0-22.159,9.314-22.159,21.774c0,12.236,8.505,21.774,21.637,21.774h0.298   c13.654,0,22.159-9.538,22.159-21.774C61.921,95.192,53.714,85.952,40.284,85.952z" fill="#579BD3"/><rect fill="#579BD3" height="127" width="41" x="18.5" y="149.5"/><path d="M333.5,346.5v-20.805c0-9.317,1.891-14.195,16.354-14.195H367.5v-34h-29.779   c-37.104,0-49.221,16.508-49.221,45.704V346.5h-25v35h25v104h45v-104h30.383l4.117-35H333.5z" fill="#579BD3"/><path d="M140,134.5c0,0,13.271-2.864,21.915-2.864c6.9,0,13.394,0.8,19.406,2.604   c22.832-15.226,50.236-24.178,79.679-24.178c9.595,0,18.971,0.921,28.046,2.72c-5.016-8.493-7.871-18.362-7.871-28.744   c0-0.291,0.376-31.997,0.429-33c-6.775-0.68-13.649-0.785-20.604-0.785c-67.809,0-127.879,33.246-164.972,84.246H140z" fill="#333333"/><path d="M394.07,198.99C401.107,215.948,405,234.527,405,254c0,28.3-8.211,54.966-22.368,77.25l-5.424,65.25H347.5   v42.057c70-32.654,117.25-103.013,117.25-184.557c0-30.955-6.782-60.292-19.12-86.575   C431.089,182.054,413.62,192.741,394.07,198.99z" fill="#333333"/><path d="M272.5,397.496c-3,0.328-7.709,0.754-11.75,0.754c-66.253,0-121.939-44.75-138.651-105.75h-61.55   c17.806,94,100.522,165.75,200.201,165.75c4.03,0,8.75-0.38,11.75-0.611V397.496z" fill="#333333"/><path d="M491,45.012c-7.462,3.317-15.492,5.554-23.918,6.555c8.603-5.15,15.2-13.309,18.311-23.041   c-8.047,4.775-16.955,8.241-26.444,10.111c-7.594-8.092-18.418-13.152-30.395-13.152c-22.995,0-41.64,18.644-41.64,41.644   c0,3.259,0.367,6.436,1.08,9.489c-34.611-1.739-65.299-18.315-85.838-43.51c-3.585,6.147-5.637,13.3-5.637,20.939   c0,14.446,7.351,27.194,18.525,34.66c-6.823-0.218-13.247-2.093-18.863-5.212c-0.004,0.173-0.004,0.35-0.004,0.527   c0,20.173,14.355,37,33.407,40.832c-3.494,0.948-7.173,1.459-10.972,1.459c-2.686,0-5.295-0.26-7.837-0.75   c5.303,16.543,20.68,28.587,38.9,28.92c-14.252,11.17-32.204,17.829-51.718,17.829c-3.358,0-6.675-0.198-9.934-0.585   c18.434,11.821,40.321,18.71,63.836,18.71c76.601,0,118.484-63.453,118.484-118.484c0-1.805-0.037-3.605-0.115-5.393   C478.359,60.702,485.421,53.364,491,45.012z" fill="#579BD3"/></g></svg>