<?xml version="1.0" ?><!DOCTYPE svg  PUBLIC '-//W3C//DTD SVG 1.1//EN'  'http://www.w3.org/Graphics/SVG/1.1/DTD/svg11.dtd'><svg enable-background="new 0 0 512 512" height="512px" id="Layer_1" version="1.1" viewBox="0 0 512 512" width="512px" xml:space="preserve" xmlns="http://www.w3.org/2000/svg" xmlns:xlink="http://www.w3.org/1999/xlink"><g id="contact_x5F_list"><path d="M117.333,93.75c-5.549,0-10.382,2.75-12.977,7.75H58c-3.85,0-7.5,2.65-7.5,6.5v1c0,3.85,3.65,7.5,7.5,7.5   h46.356c2.595,4,7.428,7.25,12.977,7.25c8.284,0,15-6.716,15-15C132.333,100.466,125.618,93.75,117.333,93.75z" fill="#333333"/><path d="M117.333,187.583c-5.549,0-10.382,2.917-12.977,7.917H58c-3.85,0-7.5,2.317-7.5,6.167v1   c0,3.85,3.65,7.833,7.5,7.833h46.356c2.595,4,7.428,7.083,12.977,7.083c8.284,0,15-6.716,15-15   C132.333,194.299,125.618,187.583,117.333,187.583z" fill="#333333"/><path d="M117.333,280.917c-5.549,0-10.382,3.583-12.977,7.583H58c-3.85,0-7.5,2.983-7.5,6.833v1   c0,3.85,3.65,7.167,7.5,7.167h46.356c2.595,5,7.428,7.417,12.977,7.417c8.284,0,15-6.716,15-15   C132.333,287.632,125.618,280.917,117.333,280.917z" fill="#333333"/><rect fill="#333333" height="49" width="15" x="77.5" y="318.5"/><rect fill="#333333" height="48" width="15" x="77.5" y="225.5"/><rect fill="#333333" height="49" width="15" x="77.5" y="131.5"/><path d="M400,17.5H108c-16.5,0-30.5,13-30.5,29.5v39.5h15V47c0-8.271,7.229-14.5,15.5-14.5h292   c8.271,0,14.5,6.229,14.5,14.5v416c0,8.271-6.229,15.5-14.5,15.5H108c-8.271,0-15.5-7.229-15.5-15.5v-50.5h-15V463   c0,16.5,14,30.5,30.5,30.5h292c16.5,0,29.5-14,29.5-30.5V47C429.5,30.5,416.5,17.5,400,17.5z" fill="#333333"/><path d="M117.333,374.75c-5.549,0-10.382,2.75-12.977,7.75H58c-3.85,0-7.5,2.65-7.5,6.5v1c0,3.85,3.65,7.5,7.5,7.5   h46.356c2.595,4,7.428,7.25,12.977,7.25c8.284,0,15-6.716,15-15C132.333,381.466,125.618,374.75,117.333,374.75z" fill="#333333"/><path d="M351.153,390.781c4.873-4.178,6.97-22.54-9.306-51.79c-16.276-29.251-17.627-29.542-28.474-31.997   s-28.589,7.97-36.165,16.418c-18.054-6.079-29.361-23.84-42.692-60.097c-12.307-37.063-14.45-57.77-4.118-73.774   c14.859,1.918,30.628-0.114,38.457-9.864c7.829-9.749,7.829-9.749,2.332-42.769c-5.498-33.019-18.565-46.031-24.979-46.263   c-6.415-0.231-32.773-0.281-62.196,36.695c-4.726,24.952-8.609,72.805,11.42,143.349c0.528,1.858,3.117,9.263,3.862,11.045   c28.293,67.654,61.119,102.577,80.364,119.147C325.71,411.464,346.28,394.959,351.153,390.781z" fill="#579BD3"/></g></svg>