<?xml version="1.0" ?><!DOCTYPE svg  PUBLIC '-//W3C//DTD SVG 1.1//EN'  'http://www.w3.org/Graphics/SVG/1.1/DTD/svg11.dtd'><svg enable-background="new 0 0 512 512" height="512px" id="Layer_1" version="1.1" viewBox="0 0 512 512" width="512px" xml:space="preserve" xmlns="http://www.w3.org/2000/svg" xmlns:xlink="http://www.w3.org/1999/xlink"><g id="support_x5F_headphones_x5F_ask"><path d="M464.371,289.11c0.376-5.387,0.566-10.81,0.566-16.265c0-58.28-21.68-113.131-61.048-154.449   c-9.769-10.253-20.34-19.366-31.56-27.288c2.337-3.003,3.738-6.768,3.738-10.869c0-5.633-2.65-10.619-6.74-13.872   c-34.77-16.749-73.754-26.136-114.931-26.136c-40.539,0-78.945,9.111-113.303,25.376l0.162,0.225   c-4.475,3.226-7.399,8.469-7.399,14.407c0,4.145,1.43,7.946,3.812,10.963c-11.171,7.9-21.699,16.981-31.429,27.194   c-39.368,41.319-61.048,96.169-61.048,154.449c0,5.848,0.228,11.66,0.661,17.428c-15.584,11.861-25.646,30.6-25.646,51.697   c0,35.877,29.084,64.961,64.961,64.961c7.925,0,15.511-1.432,22.53-4.034c2.061-1.229,3.443-3.479,3.443-6.053   c0-1.159-0.286-2.248-0.782-3.213c-1.679-2.213-3.309-4.47-4.896-6.761c2.955-2.644,4.2-6.919,2.792-10.869l-24.953-70.016   c-1.683-4.722-6.594-7.403-11.378-6.475c-0.892-6.815-1.453-13.742-1.653-20.764c-0.057-1.96-0.093-3.926-0.093-5.901   c0-107.171,82.777-194.05,184.889-194.05s184.889,86.88,184.889,194.05c0,1.847-0.03,3.686-0.078,5.52   c-0.193,7.249-0.766,14.398-1.697,21.427c-5.112-1.617-10.674,1.104-12.488,6.193l-24.953,70.016   c-1.518,4.259,0.045,8.898,3.514,11.459c-2.771,3.967-5.676,7.825-8.72,11.554c0.025,0.013,0.052,0.025,0.075,0.038   c-3.025,2.603-6.459,5.263-10.36,7.907c-20.747,14.065-47.852,23.577-80.9,28.496c0.181,2.001,0.281,4.055,0.281,6.175   c0,1.866-0.077,3.688-0.225,5.466c31.857-4.676,64.813-14.28,90.515-32.815c4.811-3.47,8.913-6.936,12.436-10.284   c6.093,1.892,12.559,2.933,19.275,2.933c35.877,0,64.961-29.084,64.961-64.961C491.588,320.172,480.844,300.891,464.371,289.11z" fill="#333333"/><path d="M225.5,373.5v-15.056c0-12.798,2.965-23.928,8.434-33.395c5.465-9.464,15.58-19.528,30.112-30.195   c13.998-9.998,23.287-18.128,27.755-24.396c4.465-6.265,6.728-13.264,6.728-20.996c0-8.664-3.185-15.264-9.583-19.797   c-6.399-4.531-15.326-6.799-26.789-6.799c-19.996,0-42.789,6.533-68.385,19.597l-21.795-43.793   c29.727-16.663,61.257-24.996,94.586-24.996c27.461,0,49.293,6.599,65.49,19.797c16.198,13.198,24.296,30.795,24.296,52.792   c0,14.667-3.334,27.33-9.998,37.993c-6.668,10.667-19.332,22.666-37.994,35.994c-12.798,9.468-21.127,16.667-24.527,21.597   c-3.399,4.934-5.33,11.398-5.33,19.397V373.5H225.5z M219.571,441.631c0-11.198,3-19.662,8.999-25.396   c5.999-5.73,14.729-8.599,26.196-8.599c11.064,0,19.628,2.934,25.696,8.798c6.064,5.868,9.098,14.267,9.098,25.197   c0,10.533-3.068,18.831-9.198,24.896c-6.134,6.064-14.667,9.098-25.596,9.098c-11.198,0-19.865-2.968-25.996-8.899   C222.636,460.797,219.571,452.429,219.571,441.631z" fill="#579BD3"/></g></svg>