<?xml version="1.0" ?><!DOCTYPE svg  PUBLIC '-//W3C//DTD SVG 1.1//EN'  'http://www.w3.org/Graphics/SVG/1.1/DTD/svg11.dtd'><svg enable-background="new 0 0 512 512" height="512px" id="Layer_1" version="1.1" viewBox="0 0 512 512" width="512px" xml:space="preserve" xmlns="http://www.w3.org/2000/svg" xmlns:xlink="http://www.w3.org/1999/xlink"><g id="seo_x5F_team_x5F_training"><path d="M224.542,456.331c-1.381-1.995-5.582-8.063-5.521-28.944c0.043-14.308,2.305-25.027,6.725-31.862   c3.647-5.638,7.769-10.828,13.124-15.565c-5.393-1.898-11.607-3.623-18.796-5.113c-33.696-6.982-37.643-13.054-36.125-24.589   c10.625-9.714,14.268-30.053,15.786-40.375c8.196-4.25,10.018-11.535,11.535-20.339c1.517-8.804-0.303-8.804-1.517-8.804   l-2.185,0.097c0.97-2.586,1.328-7.09,0.804-12.576c3.724-38.023-21.975-47.773-29.525-47.779   c-8.618-5.827-29.586-15.894-56.516-6.225c-38.438,13.801-27.157,59.81-27.156,59.814c0.013,3.505,0.372,6.049,0.916,7.17   c0,0-1.003-0.244-2.304-0.198c-3.351,0.118-3.946,2.125-3.036,8.804c0.91,6.679,5.768,16.696,12.75,20.643   c3.036,17,12.143,34.911,17.303,39.92c0.91,16.545-9.107,18.062-39.768,25.652c-30.66,7.589-40.599,17.284-48.268,29.143   c-5.56,8.598-4.25,37.036-1.517,40.982c2.732,3.946,47.965,30.964,120.822,30.964c34.762,0,62.525-5.669,82.57-12.156   C230.265,462.232,226.589,459.289,224.542,456.331z" fill="#579BD3"/><path d="M23,375.5h19.47c8.534-6,19.668-9.964,34.963-13.75l4.754-1.046c0.446-0.11,0.892-0.204,1.339-0.204H54.5   v-283h398v283h-22.197c0.255,0,0.497,0.106,0.757,0.16c16.469,3.412,29.807,7.84,40.184,14.84H485c3.85,0,6.5-3.65,6.5-7.5v-1   c0-3.85-2.65-6.5-6.5-6.5h-17.5v-283H485c3.85,0,6.5-3.65,6.5-7.5v-1c0-3.85-2.65-6.5-6.5-6.5H260.5V46c0-3.85-2.65-6.5-6.5-6.5h-1   c-3.85,0-7.5,2.65-7.5,6.5v16.5H23c-3.85,0-7.5,2.65-7.5,6.5v1c0,3.85,3.65,7.5,7.5,7.5h16.5v283H23c-3.85,0-7.5,2.65-7.5,6.5v1   C15.5,371.85,19.15,375.5,23,375.5z" fill="#333333"/><path d="M479.625,404.9c-5.465-10.928-17.91-23.071-51.608-30.053c-33.696-6.982-37.643-13.054-36.125-24.589   c10.625-9.714,14.268-30.053,15.786-40.375c8.196-4.25,10.018-11.535,11.535-20.339c1.517-8.804-0.303-8.804-1.517-8.804   l-2.185,0.097c0.97-2.586,1.328-7.09,0.804-12.576c3.724-38.023-21.975-47.773-29.525-47.779   c-8.618-5.827-29.586-15.894-56.516-6.225c-38.438,13.801-27.157,59.81-27.156,59.814c0.013,3.505,0.373,6.048,0.916,7.17   c0,0-1.003-0.244-2.304-0.198c-3.351,0.118-3.946,2.125-3.036,8.804c0.91,6.679,5.768,16.696,12.75,20.643   c3.036,17,12.143,34.911,17.303,39.92c0.91,16.545-9.107,18.062-39.768,25.652c-30.66,7.589-40.6,17.284-48.268,29.143   c-5.56,8.598-4.25,37.036-1.517,40.982c2.732,3.946,47.965,30.964,120.822,30.964s115.054-24.892,119.607-30.054   C484.178,441.936,485.088,415.829,479.625,404.9z" fill="#333333"/></g></svg>