<?xml version="1.0" ?><!DOCTYPE svg  PUBLIC '-//W3C//DTD SVG 1.1//EN'  'http://www.w3.org/Graphics/SVG/1.1/DTD/svg11.dtd'><svg enable-background="new 0 0 512 512" height="512px" id="Layer_1" version="1.1" viewBox="0 0 512 512" width="512px" xml:space="preserve" xmlns="http://www.w3.org/2000/svg" xmlns:xlink="http://www.w3.org/1999/xlink"><g id="call_x5F_whole_x5F_day"><path d="M469.089,423.4c4.405-9.974-5.841-39.646-52.22-72.537s-48.663-32.347-67.084-28.158   c-18.421,4.189-37.966,33.167-43.382,51.665c-32.119,3.918-62.465-15.009-109.466-60.795   c-46.024-47.771-64.485-77.929-60.384-110.026c24.175-7.952,46.847-22.624,51.698-43.302s4.851-20.678-27.775-67.244   C127.849,46.437,98.289,36.076,88.29,40.424S37.866,64.015,19.882,142.239c11.047,41.698,40.171,117.869,122.569,211.283   c2.171,2.461,11.565,11.909,14.014,14.094c92.942,82.929,168.839,112.379,210.474,123.664   C445.265,473.742,464.685,433.374,469.089,423.4z" fill="#333333"/><path d="M157.198,63.3c31.286-18.539,67.765-29.202,106.693-29.202c115.762,0,209.941,94.179,209.941,209.941   c0,39.471-10.957,76.428-29.977,108.003c4.203,3.605,8.14,7.248,11.777,10.913c21.46-34.529,33.867-75.271,33.867-118.917   c0-124.6-101.008-225.608-225.608-225.608c-43.169,0-83.5,12.132-117.786,33.161C149.692,55.052,153.394,58.934,157.198,63.3z" fill="#579BD3"/><path d="M243.906,453.023C142.989,443.448,62.66,362.142,54.62,260.792c-5.916-9.924-11.236-19.522-16.017-28.765   c-0.209,3.978-0.319,7.982-0.319,12.012c0,124.6,101.008,225.608,225.608,225.608c2.849,0,5.681-0.071,8.504-0.176   C263.224,464.539,253.718,459.074,243.906,453.023z" fill="#579BD3"/><path d="M305.13,284.5H214.5v-18.523l32.602-32.755c9.594-9.829,15.962-16.642,18.905-20.439   c2.943-3.796,5.112-7.313,6.407-10.55c1.295-3.236,1.967-6.591,1.967-10.065c0-5.178-1.415-9.035-4.27-11.566   c-2.855-2.53-6.66-3.796-11.427-3.796c-5.003,0-9.856,1.148-14.565,3.443s-9.621,5.562-14.742,9.8l-14.831-17.569   c6.357-5.415,11.625-9.24,15.804-11.477s8.74-3.958,13.685-5.165c4.944-1.205,10.477-1.81,16.598-1.81   c8.064,0,15.186,1.471,21.366,4.414c6.18,2.944,10.977,7.063,14.391,12.36s5.121,11.36,5.121,18.187   c0,5.946-1.045,11.522-3.134,16.731s-5.327,10.55-9.712,16.024s-12.306,13.274-23.372,23.396L248.5,260.767v1.733h57v22.459   L305.13,284.5z" fill="#579BD3"/><path d="M411.252,258.5H395.5v26h-26v-26h-56v-19.274l57.051-83.726H395.5v82h16v20.708L411.252,258.5z    M369.5,237.019v-21.895c0-3.649-0.078-8.766,0.216-15.71c0.294-6.944,0.306-10.913,0.482-11.913h-0.706   c-2.178,4-4.797,9.594-7.858,14.185L337.973,237.5H369.5V237.019z" fill="#579BD3"/></g></svg>