<?xml version="1.0" ?><!DOCTYPE svg  PUBLIC '-//W3C//DTD SVG 1.1//EN'  'http://www.w3.org/Graphics/SVG/1.1/DTD/svg11.dtd'><svg enable-background="new 0 0 512 512" height="512px" id="Layer_1" version="1.1" viewBox="0 0 512 512" width="512px" xml:space="preserve" xmlns="http://www.w3.org/2000/svg" xmlns:xlink="http://www.w3.org/1999/xlink"><g id="new_x5F_marketing"><path d="M460.817,46.5H161.502c-17.701,0-33.002,13.42-33.002,31.122V132.5H54.221   c-17.701,0-32.721,14.318-32.721,32.02V400.5h0.55c0.29,40,33.068,73,73.474,73H418.5v-0.024c1,0.001,0.595-0.005,0.775-0.005   c40.406,0,73.422-32.97,73.712-72.97H492.5V77.622C492.5,59.92,478.518,46.5,460.817,46.5z M129.318,148.427 M91.387,464.632   c3.486-1.963,7.205-4.132,10.31-6.132H94.5v-1.117c-31-0.289-56.069-24.883-56.357-56.883H37.5V164.52   c0-8.873,7.848-15.02,16.721-15.02H128.5v250.502l0,0C128.5,427.518,113.776,452.039,91.387,464.632z M476.5,398.786l0.19,1.635   c-0.225,31.356-25.763,56.876-57.094,56.975c-0.222-0.008-0.567-0.013-0.773-0.014l-16.324-0.089v1.207H124.556   c13.012-17,20.944-36.68,20.944-58.498V77.622c0-8.873,7.129-16.122,16.002-16.122h299.315c8.873,0,15.683,7.249,15.683,16.122   V398.786z" fill="#333333"/><path d="M240.836,163.5h-18.299L193,112.5h-0.418c0.588,10,0.919,16.011,0.919,19.88v31.12h-13v-67h18.259   l29.492,51h0.325c-0.465-10-1.075-15.275-1.075-18.928V96.5h12v67.833L240.836,163.5z" fill="#579BD3"/><path d="M297.5,163.5h-40v-67h40v11h-25v16h22v11h-22v18h25V163.5z" fill="#579BD3"/><path d="M377.331,163.5h-16.395l-9.196-35.251c-0.34-1.269-0.922-3.685-1.741-7.664   c-0.821-3.978-1.293-6.544-1.416-7.908c-0.186,1.671-0.65,4.411-1.394,8.11c-0.743,3.7-1.316,5.949-1.719,7.528l-9.149,35.185   h-16.348l-17.323-67h14.165l8.684,37.028c1.517,6.843,2.617,12.755,3.298,17.771c0.186-1.765,0.612-4.506,1.277-8.206   c0.665-3.699,1.293-6.543,1.881-8.586l9.892-38.008h13.608l9.892,38.003c0.433,1.703,0.975,4.288,1.625,7.786   c0.65,3.499,1.146,6.494,1.486,9.001c0.31-2.415,0.805-5.43,1.486-9.037s1.3-6.494,1.858-8.723l8.638-37.03h14.165L377.331,163.5z" fill="#579BD3"/><path d="M443.233,145.477c0,6.13-2.206,10.961-6.618,14.49c-4.412,3.53-10.787,5.294-18.651,5.294   c-7.245,0-13.464-1.362-19.464-4.087v-13.376c5,2.044,8.697,3.483,11.87,4.319c3.173,0.836,6.195,1.254,8.826,1.254   c3.158,0,5.64-0.604,7.327-1.811c1.688-1.208,2.56-3.003,2.56-5.388c0-1.33-0.356-2.515-1.1-3.553   c-0.743-1.037-1.827-2.036-3.267-2.995c-1.44-0.959-4.37-2.492-8.798-4.598c-4.149-1.95-7.259-3.824-9.333-5.619   c-2.075-1.795-3.73-3.885-4.968-6.27c-1.238-2.384-1.858-5.171-1.858-8.359c0-6.007,2.036-10.728,6.108-14.165   c4.071-3.437,9.699-5.155,16.882-5.155c3.53,0,6.897,0.418,10.102,1.254c3.204,0.836,6.556,2.014,10.054,3.53l-4.644,11.193   c-3.623-1.486-6.618-2.523-8.987-3.111c-2.369-0.588-4.699-0.883-6.989-0.883c-2.725,0-4.815,0.635-6.27,1.904   c-1.455,1.27-2.183,2.926-2.183,4.969c0,1.27,0.294,2.376,0.883,3.32c0.588,0.945,1.524,1.858,2.81,2.74   c1.285,0.883,4.327,2.47,9.126,4.76c6.347,3.035,10.697,6.076,13.051,9.126C442.057,137.311,443.233,141.05,443.233,145.477z" fill="#579BD3"/><rect fill="#579BD3" height="17" width="263" x="180.5" y="397.5"/><rect fill="#579BD3" height="16" width="263" x="180.5" y="349.5"/><rect fill="#579BD3" height="16" width="263" x="180.5" y="301.5"/><rect fill="#579BD3" height="66" width="263" x="180.5" y="197.5"/></g></svg>