<?xml version="1.0" ?><!DOCTYPE svg  PUBLIC '-//W3C//DTD SVG 1.1//EN'  'http://www.w3.org/Graphics/SVG/1.1/DTD/svg11.dtd'><svg enable-background="new 0 0 512 512" height="512px" id="Layer_1" version="1.1" viewBox="0 0 512 512" width="512px" xml:space="preserve" xmlns="http://www.w3.org/2000/svg" xmlns:xlink="http://www.w3.org/1999/xlink"><g id="budget_x5F_idea"><path d="M433.419,192.381c-7.462-45.253,17.651-81.34,17.651-81.34s-44.505,5.44-79.268-25.384   C337.039,54.832,333.039,12,333.039,12s-27.516,31.507-77.04,31.507S178.959,12,178.959,12s-3.743,42.575-38.763,73.656   c-35.021,31.081-79.268,25.384-79.268,25.384s25.946,37.675,17.651,81.34s-44.406,70.398-44.406,70.398s42.6,8.228,65.806,50.965   c23.206,42.736,11.234,82.472,11.234,82.472s40.429-10.338,69.904-9.213c-40.94-44.776-88.322-102.452-88.322-156.546   c0-90.136,73.069-163.205,163.205-163.205s163.205,73.069,163.205,163.205c0,53.35-47.211,110.978-87.157,155.663   c29.719-1.25,68.739,10.095,68.739,10.095s-15.084-41.917,11.234-82.472s65.806-50.965,65.806-50.965   S440.882,237.634,433.419,192.381z" fill="#579BD3"/><path d="M242.653,328.168c-20.948-0.954-41.131-5.642-60.547-14.06v-47.634   c11.095,5.645,23.146,10.354,36.155,14.132c13.006,3.779,24.438,5.667,34.291,5.667c8.128,0,14.083-0.979,17.862-2.941   c3.778-1.959,5.668-5.237,5.668-9.828c0-3.156-1.363-5.834-4.089-8.035c-2.727-2.199-7.27-4.685-13.63-7.461   c-6.362-2.773-14.946-6.12-25.753-10.043c-12.148-4.495-21.952-9.541-29.412-15.137c-7.461-5.595-12.89-11.859-16.284-18.795   c-3.397-6.934-5.094-15.567-5.094-25.897c0-15.782,5.069-28.121,15.209-37.016c10.137-8.896,25.346-14.394,45.625-16.499v-19.656   h29.698v19.369c19.033,1.053,38.212,5.739,57.533,14.06l-17.073,40.89c-19.992-8.99-38.02-13.486-54.09-13.486   c-7.653,0-13.034,0.932-16.141,2.798c-3.109,1.865-4.663,4.616-4.663,8.25c0,3.156,1.123,5.764,3.372,7.819   c2.246,2.058,6.144,4.354,11.693,6.887c5.547,2.535,13.247,5.477,23.099,8.824c19.99,7.079,34.337,15.137,43.042,24.175   c8.702,9.039,13.056,20.685,13.056,34.936c0,16.069-5.093,29.125-15.28,39.169c-10.186,10.043-25.036,16.262-44.549,18.651v27.691   h-29.698L242.653,328.168L242.653,328.168z" fill="#333333"/><path d="M328.034,391.106H185.089c-7.46,0-13.09,6.371-13.09,13.83v54.026c0,7.459,5.631,13.143,13.09,13.143h24.91   v10.493c0,7.459,5.9,13.507,13.359,13.507h64.156c7.46,0,13.485-6.047,13.485-13.507v-10.492h27.035   c7.46,0,13.965-5.684,13.965-13.143v-54.027C341.999,397.477,335.494,391.106,328.034,391.106z" fill="#333333"/></g></svg>