<?xml version="1.0" ?><!DOCTYPE svg  PUBLIC '-//W3C//DTD SVG 1.1//EN'  'http://www.w3.org/Graphics/SVG/1.1/DTD/svg11.dtd'><svg enable-background="new 0 0 512 512" height="512px" id="Layer_1" version="1.1" viewBox="0 0 512 512" width="512px" xml:space="preserve" xmlns="http://www.w3.org/2000/svg" xmlns:xlink="http://www.w3.org/1999/xlink"><g id="ecommerce_x5F_optimization"><path d="M91.096,172.5l20.689-105.8c0.409-2.09,4.186-5.2,6.315-5.2h273.481c2.039,0,5.631,2.984,6.005,4.989   L417.343,172.5h30.516L427.078,60.992C424.055,44.771,408.081,31.5,391.581,31.5H118.1c-16.5,0-32.591,13.249-35.757,29.442   L60.528,172.5H91.096z" fill="#579BD3"/><path d="M462,187.5H46c-16.5,0-27.409,12.999-24.243,29.192l45.585,233.24C70.509,466.126,86.6,479.5,103.1,479.5   h304.482c16.5,0,32.473-13.522,35.496-29.742l43.426-232.891C489.527,200.646,478.5,187.5,462,187.5z M414.5,425.5   c0,3.866-3.134,7-7,7h-307c-3.866,0-7-3.134-7-7v-1c0-3.866,3.134-7,7-7h307c3.866,0,7,3.134,7,7V425.5z M414.5,380.5   c0,3.866-3.134,7-7,7h-307c-3.866,0-7-3.134-7-7v-1c0-3.866,3.134-7,7-7h307c3.866,0,7,3.134,7,7V380.5z M414.5,335.5   c0,3.866-3.134,7-7,7h-307c-3.866,0-7-3.134-7-7v-1c0-3.866,3.134-7,7-7h307c3.866,0,7,3.134,7,7V335.5z M414.5,290.5   c0,3.866-3.134,7-7,7h-307c-3.866,0-7-3.134-7-7v-1c0-3.866,3.134-7,7-7h307c3.866,0,7,3.134,7,7V290.5z M414.5,245.5   c0,3.866-3.134,7-7,7h-307c-3.866,0-7-3.134-7-7v-1c0-3.866,3.134-7,7-7h307c3.866,0,7,3.134,7,7V245.5z" fill="#333333"/></g></svg>