<?xml version="1.0" ?><!DOCTYPE svg  PUBLIC '-//W3C//DTD SVG 1.1//EN'  'http://www.w3.org/Graphics/SVG/1.1/DTD/svg11.dtd'><svg enable-background="new 0 0 512 512" height="512px" id="Layer_1" version="1.1" viewBox="0 0 512 512" width="512px" xml:space="preserve" xmlns="http://www.w3.org/2000/svg" xmlns:xlink="http://www.w3.org/1999/xlink"><g id="web_x5F_hosting"><path d="M75.5,436.5H46c-8.271,0-15.5-7.229-15.5-15.5V89c0-8.271,7.229-14.5,15.5-14.5h29.5v-15H46   c-16.5,0-30.5,13-30.5,29.5v332c0,16.5,14,30.5,30.5,30.5h29.5V436.5z" fill="#333333"/><path d="M462,59.5h-30.5v15H462c8.271,0,14.5,6.229,14.5,14.5v332c0,8.271-6.229,15.5-14.5,15.5h-30.5v15H462   c16.5,0,29.5-14,29.5-30.5V89C491.5,72.5,478.5,59.5,462,59.5z" fill="#333333"/><path d="M45.5,89.5v101h416v-101H45.5z M446.5,175.5h-386v-71h386V175.5z" fill="#333333"/><rect fill="#579BD3" height="41" width="178" x="75.5" y="119.5"/><circle cx="411.833" cy="139.5" fill="#579BD3" r="20.167"/><circle cx="357.167" cy="139.5" fill="#579BD3" r="20.167"/><circle cx="301.833" cy="139.5" fill="#579BD3" r="20.167"/><path d="M45.5,205.5v101h416v-101H45.5z M446.5,291.5h-386v-71h386V291.5z" fill="#333333"/><rect fill="#579BD3" height="41" width="178" x="75.5" y="235.5"/><circle cx="411.833" cy="255.5" fill="#579BD3" r="20.167"/><circle cx="357.167" cy="255.5" fill="#579BD3" r="20.167"/><circle cx="301.833" cy="255.5" fill="#579BD3" r="20.167"/><path d="M45.5,320.5v101h416v-101H45.5z M446.5,406.5h-386v-71h386V406.5z" fill="#333333"/><rect fill="#579BD3" height="41" width="178" x="75.5" y="350.5"/><circle cx="411.833" cy="370.5" fill="#579BD3" r="20.167"/><circle cx="357.167" cy="370.5" fill="#579BD3" r="20.167"/><circle cx="301.833" cy="370.5" fill="#579BD3" r="20.167"/></g></svg>