<?xml version="1.0" ?><!DOCTYPE svg  PUBLIC '-//W3C//DTD SVG 1.1//EN'  'http://www.w3.org/Graphics/SVG/1.1/DTD/svg11.dtd'><svg enable-background="new 0 0 512 512" height="512px" id="Layer_1" version="1.1" viewBox="0 0 512 512" width="512px" xml:space="preserve" xmlns="http://www.w3.org/2000/svg" xmlns:xlink="http://www.w3.org/1999/xlink"><g id="link_x5F_remove"><path d="M249.785,374.5c-0.004,0-0.002,0-0.006,0c-12.186,0-24.21-2.872-35.369-7.71l-72.854,64.502   c-6.464,5.734-14.773,8.831-23.395,8.831c-10.253,0-19.64-4.249-26.433-11.906l-26.662-30.072   c-6.256-7.053-9.392-16.128-8.829-25.54c0.563-9.411,4.758-18.044,11.811-24.3l86.371-76.618   c6.464-5.734,14.773-8.893,23.396-8.893c10.252,0,19.64,4.217,26.432,11.875l8.88,10.011l26.201,15.889   c3.184,1.932,6.799,2.952,10.453,2.952c7.197,0,13.712-3.657,17.428-9.783l2.241-3.695c-2.44-4.148-5.303-8.126-8.616-11.862   l-26.662-30.056c-27.596-31.109-75.186-33.958-106.295-6.362l-86.37,76.616c-31.109,27.596-33.958,75.186-6.362,106.295   l26.662,30.056c27.596,31.109,75.186,33.958,106.295,6.362l86.37-76.616c4.074-3.614,7.651-7.328,10.751-11.546   C260.184,373.795,255.026,374.5,249.785,374.5z" fill="#333333"/><path d="M204.811,211.929l40.372-66.573c6.458-10.648,17.766-17.006,30.252-17.006   c4.355,0,8.661,0.841,12.716,2.425C288.052,128.862,288,126.937,288,125c0-12.023,1.945-23.598,5.527-34.436   c-31.157-7.752-65.022,5.153-82.546,34.05l-51.607,85.101c6.025-1.257,12.197-1.925,18.441-1.925   C187.064,207.791,196.158,209.219,204.811,211.929z" fill="#333333"/><path d="M333.205,213.832l-53.172,87.682c-6.458,10.648-17.767,17.005-30.253,17.005   c-6.396,0-12.7-1.772-18.231-5.126l-34.354-20.834c-5.582-3.385-10.017-8.136-12.964-13.777c-2.016-0.654-4.165-0.989-6.417-0.989   c-4.95,0-9.724,1.815-13.442,5.113l-15.79,14.007c6.145,11.935,15.552,22.379,27.871,29.849l34.354,20.833   c35.558,21.563,81.864,10.218,103.427-25.34l55.199-91.025C356.213,227.672,343.971,221.706,333.205,213.832z" fill="#333333"/><path d="M398,30c-52.467,0-95,42.533-95,95s42.533,95,95,95s95-42.533,95-95S450.467,30,398,30z M457.5,126.5   c0,3.866-3.134,7-7,7h-106c-3.866,0-7-3.134-7-7v-1c0-3.866,3.134-7,7-7h106c3.866,0,7,3.134,7,7V126.5z" fill="#579BD3"/></g></svg>