<?xml version="1.0" ?><!DOCTYPE svg  PUBLIC '-//W3C//DTD SVG 1.1//EN'  'http://www.w3.org/Graphics/SVG/1.1/DTD/svg11.dtd'><svg enable-background="new 0 0 512 512" height="512px" id="Layer_1" version="1.1" viewBox="0 0 512 512" width="512px" xml:space="preserve" xmlns="http://www.w3.org/2000/svg" xmlns:xlink="http://www.w3.org/1999/xlink"><g id="call_x5F_more"><path d="M361.446,441.781c3.376-7.645-4.477-30.39-40.028-55.602c-35.551-25.212-37.302-24.795-51.422-21.584   c-14.12,3.211-29.102,25.423-33.254,39.603c-24.62,3.003-47.881-11.505-83.909-46.601c-35.279-36.618-49.43-59.735-46.286-84.338   c18.531-6.095,35.91-17.342,39.628-33.192s3.718-15.85-21.291-51.544s-47.668-43.636-55.332-40.303S30.9,166.304,17.115,226.265   c8.468,31.963,30.793,90.35,93.953,161.955c1.664,1.886,8.865,9.129,10.742,10.803c71.243,63.568,129.421,86.142,161.335,94.792   C343.183,480.37,358.07,449.426,361.446,441.781z" fill="#333333"/><path d="M334.5,17.5C246.411,17.5,175,75.985,175,148.129c0,36.133,17.915,68.839,46.865,92.488l-21.528,47.809   l62.35-23.633c21.584,8.929,45.979,13.965,71.813,13.965c88.089,0,159.5-58.485,159.5-130.629S422.589,17.5,334.5,17.5z    M241.5,180.525c-18.225,0-33-14.775-33-33s14.775-33,33-33s33,14.775,33,33S259.725,180.525,241.5,180.525z M335,180.525   c-18.225,0-33-14.775-33-33s14.775-33,33-33s33,14.775,33,33S353.225,180.525,335,180.525z M428.5,180.525   c-18.225,0-33-14.775-33-33s14.775-33,33-33s33,14.775,33,33S446.725,180.525,428.5,180.525z" fill="#579BD3"/></g></svg>