<?xml version="1.0" ?><!DOCTYPE svg  PUBLIC '-//W3C//DTD SVG 1.1//EN'  'http://www.w3.org/Graphics/SVG/1.1/DTD/svg11.dtd'><svg enable-background="new 0 0 512 512" height="512px" id="Layer_1" version="1.1" viewBox="0 0 512 512" width="512px" xml:space="preserve" xmlns="http://www.w3.org/2000/svg" xmlns:xlink="http://www.w3.org/1999/xlink"><g id="business_x5F_man"><path d="M309.058,85.868C305.726,102.028,289.5,115.5,273,115.5h-39c-16.5,0-32.726-13.472-36.058-29.632   l-7.884-38.111C186.726,31.597,197.5,18.5,214,18.5h79c16.5,0,27.274,13.097,23.942,29.257L309.058,85.868z" fill="#333333"/><path d="M192.671,149.952l-94.846,101.98c-2.369,2.547-3.727,7.417-3.018,10.822l15.344,73.683   c0.709,3.405,4.064,5.561,7.456,4.79l38.12-8.659L192.671,149.952z" fill="#333333"/><path d="M352.917,388.219l-51.835-243.188c-1.145-5.38-6.582-9.531-12.082-9.531h-68   c-5.5,0-10.892,4.161-11.983,9.551l-48.784,241.022c-1.091,5.391,1.101,13.017,4.869,17.022l81.546,86.652   c3.769,4.006,10.073,4.125,14.011,0.285l87.183-85.043C351.779,401.15,354.063,393.599,352.917,388.219z M337.259,394.352   l-83.299,81.246l-77.867-82.772c-0.593-0.811-1.216-2.745-1.139-3.746l48.315-238.58h63.589l51.356,240.945   C338.245,392.27,337.741,393.683,337.259,394.352z" fill="#333333"/><polygon fill="#579BD3" points="190.73,386.743 235.539,165.5 274.716,165.5 322.214,388.322 254.42,454.445  "/></g></svg>