<?xml version="1.0" ?><!DOCTYPE svg  PUBLIC '-//W3C//DTD SVG 1.1//EN'  'http://www.w3.org/Graphics/SVG/1.1/DTD/svg11.dtd'><svg enable-background="new 0 0 512 512" height="512px" id="Layer_1" version="1.1" viewBox="0 0 512 512" width="512px" xml:space="preserve" xmlns="http://www.w3.org/2000/svg" xmlns:xlink="http://www.w3.org/1999/xlink"><g id="portfolio_x5F_case"><path d="M172.5,114.5V91c0-8.271,7.229-14.5,15.5-14.5h131c8.271,0,14.5,6.229,14.5,14.5v23.5h15V91   c0-16.5-13-29.5-29.5-29.5H188c-16.5,0-30.5,13-30.5,29.5v23.5H172.5z" fill="#333333"/><path d="M290.5,298.262V324c0,16.542-13.458,30.5-30,30.5h-15c-16.542,0-30-13.958-30-30.5v-25.847l-167-50.309   V411.5h413V246.79L290.5,298.262z" fill="#333333"/><path d="M48.5,159.5v72.679l182,55.128V324c0,8.25,6.75,15.5,15,15.5h15c8.25,0,15-7.25,15-15.5v-36.266l186-56.609   V159.5H48.5z M253,325.145c-4.142,0-7.5-3.358-7.5-7.5c0-4.142,3.358-7.5,7.5-7.5s7.5,3.358,7.5,7.5   C260.5,321.787,257.142,325.145,253,325.145z" fill="#579BD3"/><path d="M462,129.5H49c-16.5,0-30.5,13-30.5,29.5v252c0,16.5,14,30.5,30.5,30.5h413c16.5,0,29.5-14,29.5-30.5V159   C491.5,142.5,478.5,129.5,462,129.5z M476.5,411.5c0,8.284-6.716,15-15,15h-413c-8.284,0-15-6.716-15-15v-252   c0-8.284,6.716-15,15-15h413c8.284,0,15,6.716,15,15V411.5z" fill="#333333"/></g></svg>