<?xml version="1.0" ?><!DOCTYPE svg  PUBLIC '-//W3C//DTD SVG 1.1//EN'  'http://www.w3.org/Graphics/SVG/1.1/DTD/svg11.dtd'><svg enable-background="new 0 0 512 512" height="512px" id="Layer_1" version="1.1" viewBox="0 0 512 512" width="512px" xml:space="preserve" xmlns="http://www.w3.org/2000/svg" xmlns:xlink="http://www.w3.org/1999/xlink"><g id="budget_x5F_calculator"><path d="M492.5,47.5c0-16.569-13.431-30-30-30h-416c-16.569,0-30,13.431-30,30v416c0,16.569,13.431,30,30,30h416   c16.569,0,30-13.431,30-30V47.5z M477.5,463.5c0,8.284-6.716,15-15,15h-416c-8.284,0-15-6.716-15-15v-285c0-8.284,6.716-15,15-15   h416c8.284,0,15,6.716,15,15V463.5z M477.5,133.5c0,8.284-6.716,15-15,15h-416c-8.284,0-15-6.716-15-15v-86c0-8.284,6.716-15,15-15   h416c8.284,0,15,6.716,15,15V133.5z" fill="#333333"/><path d="M175.5,343.5c0-8.284-6.716-15-15-15h-99c-8.284,0-15,6.716-15,15v105c0,8.284,6.716,15,15,15h99   c8.284,0,15-6.716,15-15V343.5z M153.5,397.5c0,3.866-3.134,7-7,7h-71c-3.866,0-7-3.134-7-7v-1c0-3.866,3.134-7,7-7h71   c3.866,0,7,3.134,7,7V397.5z" fill="#333333"/><path d="M462.5,193.5c0-8.284-6.716-15-15-15h-99c-8.284,0-15,6.716-15,15v255c0,8.284,6.716,15,15,15h99   c8.284,0,15-6.716,15-15V193.5z M440.5,336.5c0,3.866-3.134,7-7,7h-71c-3.866,0-7-3.134-7-7v-1c0-3.866,3.134-7,7-7h71   c3.866,0,7,3.134,7,7V336.5z M440.5,306.5c0,3.866-3.134,7-7,7h-71c-3.866,0-7-3.134-7-7v-1c0-3.866,3.134-7,7-7h71   c3.866,0,7,3.134,7,7V306.5z" fill="#579BD3"/><path d="M175.5,193.5c0-8.284-6.716-15-15-15h-99c-8.284,0-15,6.716-15,15v105c0,8.284,6.716,15,15,15h99   c8.284,0,15-6.716,15-15V193.5z M153.5,246c0,3.85-2.65,7.5-6.5,7.5h-28.5V281c0,3.866-2.634,7.5-6.5,7.5h-1   c-3.866,0-7.5-3.634-7.5-7.5v-27.5H76c-3.85,0-7.5-3.65-7.5-7.5v-1c0-3.85,3.65-6.5,7.5-6.5h27.5V210c0-3.866,3.634-6.5,7.5-6.5h1   c3.866,0,6.5,2.634,6.5,6.5v28.5H147c3.85,0,6.5,2.65,6.5,6.5V246z" fill="#579BD3"/><path d="M318.5,193.5c0-8.284-6.716-15-15-15h-98c-8.284,0-15,6.716-15,15v105c0,8.284,6.716,15,15,15h98   c8.284,0,15-6.716,15-15V193.5z M285.906,265.299c2.722,2.722,2.722,7.177,0,9.9l-0.707,0.707c-2.722,2.722-7.177,2.722-9.899,0   l-19.8-19.799l-19.799,19.799c-2.722,2.722-7.177,2.722-9.899,0l-0.707-0.707c-2.722-2.722-2.722-7.177,0-9.9l19.799-19.799   l-19.799-19.799c-2.722-2.722-2.722-7.177,0-9.899l0.707-0.707c2.722-2.722,7.177-2.722,9.899,0l19.799,19.799l19.799-19.799   c2.722-2.722,7.177-2.722,9.899,0l0.707,0.707c2.722,2.722,2.722,7.177,0,9.899L266.107,245.5L285.906,265.299z" fill="#333333"/><path d="M318.5,343.5c0-8.284-6.716-15-15-15h-98c-8.284,0-15,6.716-15,15v105c0,8.284,6.716,15,15,15h98   c8.284,0,15-6.716,15-15V343.5z M255.5,354c5.514,0,10,4.486,10,10s-4.486,10-10,10s-10-4.486-10-10S249.986,354,255.5,354z    M254.5,439c-5.514,0-10-4.486-10-10s4.486-10,10-10s10,4.486,10,10S260.014,439,254.5,439z M297.5,397.5c0,3.866-3.134,7-7,7h-71   c-3.866,0-7-3.134-7-7v-1c0-3.866,3.134-7,7-7h71c3.866,0,7,3.134,7,7V397.5z" fill="#333333"/></g></svg>