<?xml version="1.0" ?><!DOCTYPE svg  PUBLIC '-//W3C//DTD SVG 1.1//EN'  'http://www.w3.org/Graphics/SVG/1.1/DTD/svg11.dtd'><svg enable-background="new 0 0 512 512" height="512px" id="Layer_1" version="1.1" viewBox="0 0 512 512" width="512px" xml:space="preserve" xmlns="http://www.w3.org/2000/svg" xmlns:xlink="http://www.w3.org/1999/xlink"><g id="landing_x5F_page_x5F_optimization"><path d="M487.172,429.493l-33.594-60.61c-1.069-1.939-2.078-3.856-5.078-5.311V142c0-16.5-13-29.5-29.5-29.5H275.5   v15H419c8.271,0,14.5,6.229,14.5,14.5v218.5h-359V142c0-8.271,7.229-14.5,15.5-14.5h140.5v-15H90c-16.5,0-30.5,13-30.5,29.5   v221.528c-2,1.452-3.569,3.242-4.663,5.182l-34.049,60.83c-2.702,4.791-0.288,8.96,5.212,8.96h456   C487.5,438.5,489.828,434.309,487.172,429.493z M345.5,403.5v1.5c0,6.627-4.873,12.5-11.5,12.5H174c-6.627,0-12.5-5.873-12.5-12.5   v-1.5H52.966l15.079-26.731c0.442-0.481,1.536-1.269,2.173-1.269h368.55c0.6,0,1.617,0.749,2.036,1.203l14.773,26.797H345.5z" fill="#333333"/><polygon fill="#579BD3" points="301.971,182.637 291.113,172.03 260.5,202.394 260.5,65.5 245.5,65.5 245.5,200.726    217.054,172.03 206.572,182.637 253.493,229.496 253.91,230.666  "/><rect fill="#579BD3" height="15" width="299" x="104.5" y="315.5"/><rect fill="#579BD3" height="15" width="299" x="104.5" y="270.5"/></g></svg>