<?xml version="1.0" ?><!DOCTYPE svg  PUBLIC '-//W3C//DTD SVG 1.1//EN'  'http://www.w3.org/Graphics/SVG/1.1/DTD/svg11.dtd'><svg enable-background="new 0 0 512 512" height="512px" id="Layer_1" version="1.1" viewBox="0 0 512 512" width="512px" xml:space="preserve" xmlns="http://www.w3.org/2000/svg" xmlns:xlink="http://www.w3.org/1999/xlink"><g id="settings_x5F_repair_x5F_help"><path d="M90.668,162.829c27.098-1.505,44.664,4.962,57.207,18.065c0,0,24.013,25.473,54.893,58.257l15.882-17.021   l16.361,2.821l0.531-0.57l-6.96-8.031l17.013-19.946c-29.952-32.234-55.196-59.503-61.589-66.695   c-18.065-20.323-17.313-44.411-15.807-61.723c1.505-17.313-17.313-41.4-44.411-46.669s-73.767-0.753-45.163,15.807   s41.4,25.593,36.884,39.142s-10.538,28.604-21.076,35.378s-14.302,6.774-21.076,2.258s-12.044-8.28-27.098-18.065   s-19.571,3.764-10.538,18.065C44.752,128.204,63.57,164.335,90.668,162.829z" fill="#333333"/><path d="M422.453,350.22c-25.129,1.396-40.142-7.382-51.773-19.534c0,0-18.258-19.562-43.4-46.535l-13.544,12.415   l-7.978-7.479l-3.715,4.153l3.435,14.31l-19.092,20.456c26.265,27.949,46.577,49.622,49.513,52.925   c16.752,18.846,16.054,41.183,14.658,57.238c-1.396,16.054,16.054,38.391,41.183,43.277c25.129,4.886,68.406,0.698,41.881-14.658   c-26.525-15.357-38.391-23.733-34.203-36.297s9.772-26.525,19.545-32.807c9.772-6.282,13.262-6.282,19.544-2.094   c6.282,4.188,11.168,7.678,25.129,16.753c13.96,9.074,18.149-3.49,9.772-16.753C465.033,382.329,447.582,348.824,422.453,350.22z" fill="#333333"/><path d="M255.702,224.741l-15.243,16.372l-16.372-2.823L50.774,424.024c0,0-1.694,16.372,21.453,38.389   s42.905,27.098,42.905,27.098L289.01,303.212l-3.387-14.114l19.194-21.453l9.033,8.468l13.549-12.42c0,0,0-18.11-12.42-30.53   L441.437,96.5h14.678l22.582-46.247l-15.807-16.35L425.63,58.19l-2.823,18.636l-129.28,134.928   c-11.573-11.573-31.614-11.368-31.614-11.368l-13.549,15.886L255.702,224.741z" fill="#579BD3"/></g></svg>