<?xml version="1.0" ?><!DOCTYPE svg  PUBLIC '-//W3C//DTD SVG 1.1//EN'  'http://www.w3.org/Graphics/SVG/1.1/DTD/svg11.dtd'><svg enable-background="new 0 0 512 512" height="512px" id="Layer_1" version="1.1" viewBox="0 0 512 512" width="512px" xml:space="preserve" xmlns="http://www.w3.org/2000/svg" xmlns:xlink="http://www.w3.org/1999/xlink"><g id="seo_x5F_strategy"><path d="M254,138c-64.617,0-117,52.383-117,117s52.383,117,117,117s117-52.383,117-117S318.617,138,254,138z    M254,357c-56.243,0-102-45.757-102-102s45.757-102,102-102s102,45.757,102,102S310.243,357,254,357z" fill="#579BD3"/><circle cx="254" cy="70" fill="#333333" r="53.5"/><circle cx="254" cy="440" fill="#333333" r="53.5"/><circle cx="309.193" cy="383.617" fill="#333333" r="16.5"/><circle cx="198.807" cy="127.383" fill="#333333" r="16.5"/><circle cx="383.02" cy="308.548" fill="#333333" r="16.5"/><circle cx="124.98" cy="202.452" fill="#333333" r="16.5"/><circle cx="382.117" cy="200.307" fill="#333333" r="16.5"/><circle cx="125.883" cy="310.693" fill="#333333" r="16.5"/><circle cx="307.048" cy="126.48" fill="#333333" r="16.5"/><circle cx="200.952" cy="384.52" fill="#333333" r="16.5"/><circle cx="123.185" cy="124.185" fill="#333333" r="53.5"/><circle cx="384.815" cy="385.815" fill="#333333" r="53.5"/><circle cx="69" cy="255" fill="#333333" r="53.5"/><circle cx="439" cy="255" fill="#333333" r="53.5"/><circle cx="123.185" cy="385.815" fill="#333333" r="53.5"/><circle cx="384.815" cy="124.185" fill="#333333" r="53.5"/><path d="M178.289,271.45c3.779,1.936,9.585,3.871,15.576,3.871c6.452,0,9.861-2.673,9.861-6.728   c0-3.871-2.949-6.083-10.415-8.756c-10.322-3.595-17.05-9.309-17.05-18.341c0-10.599,8.848-18.709,23.501-18.709   c7.004,0,12.166,1.475,15.852,3.134l-3.134,11.336c-2.488-1.198-6.912-2.949-12.995-2.949s-9.032,2.765-9.032,5.991   c0,3.963,3.502,5.714,11.521,8.755c10.967,4.055,16.128,9.77,16.128,18.524c0,10.415-8.018,19.263-25.068,19.263   c-7.097,0-14.101-1.844-17.603-3.779L178.289,271.45z" fill="#333333"/><path d="M264.5,259.5h-23v15h26v11h-40v-62h38v12h-24v13h23V259.5z" fill="#333333"/><path d="M333.681,254.216c0,20.368-12.35,32.718-30.506,32.718c-18.433,0-29.216-13.916-29.216-31.612   c0-18.617,11.889-32.534,30.229-32.534C323.267,222.788,333.681,237.073,333.681,254.216z M288.797,255.045   c0,12.166,5.715,20.737,15.115,20.737c9.493,0,14.931-9.032,14.931-21.105c0-11.152-5.346-20.737-15.022-20.737   C294.327,233.94,288.797,242.972,288.797,255.045z" fill="#333333"/></g></svg>