<?xml version="1.0" ?><!DOCTYPE svg  PUBLIC '-//W3C//DTD SVG 1.1//EN'  'http://www.w3.org/Graphics/SVG/1.1/DTD/svg11.dtd'><svg enable-background="new 0 0 512 512" height="512px" id="Layer_1" version="1.1" viewBox="0 0 512 512" width="512px" xml:space="preserve" xmlns="http://www.w3.org/2000/svg" xmlns:xlink="http://www.w3.org/1999/xlink"><g id="page_x5F_ranking"><path d="M465,73.5h-1.5v-1.72c0-16.5-13-29.28-29.5-29.28h-87c-16.5,0-30.5,12.78-30.5,29.28v1.72H48   c-16.5,0-30.5,12.78-30.5,29.28V434c0,16.5,14,30.5,30.5,30.5h417c16.5,0,29.5-14,29.5-30.5V102.78   C494.5,86.28,481.5,73.5,465,73.5z M436.5,100.5c8.284,0,15,6.716,15,15s-6.716,15-15,15s-15-6.716-15-15   S428.216,100.5,436.5,100.5z M391.5,100.5c8.284,0,15,6.716,15,15s-6.716,15-15,15s-15-6.716-15-15S383.216,100.5,391.5,100.5z    M346.5,100.5c8.284,0,15,6.716,15,15s-6.716,15-15,15s-15-6.716-15-15S338.216,100.5,346.5,100.5z M479.5,434   c0,8.271-6.229,15.5-14.5,15.5H48c-8.271,0-15.5-7.229-15.5-15.5V153.5h447V434z" fill="#333333"/><path d="M270.277,344.013c-7.302-3.839-19.252-3.839-26.554,0l-17.132,9.007   c-7.302,3.839-12.136,0.327-10.741-7.804l3.272-19.077c1.395-8.131-2.298-19.496-8.206-25.254l-13.86-13.51   c-5.908-5.759-4.061-11.441,4.103-12.627l19.154-2.783c8.164-1.186,17.831-8.21,21.483-15.608L250.362,239   c3.651-7.398,9.626-7.398,13.277,0l8.566,17.356c3.651,7.398,13.318,14.422,21.483,15.608l19.154,2.783   c8.164,1.186,10.01,6.869,4.103,12.627l-13.86,13.51c-5.908,5.759-9.6,17.123-8.206,25.254l3.272,19.077   c1.395,8.131-3.439,11.643-10.741,7.804L270.277,344.013z" fill="#579BD3"/><path d="M127.277,344.013c-7.302-3.839-19.252-3.839-26.554,0l-17.132,9.007   c-7.302,3.839-12.136,0.327-10.741-7.804l3.272-19.077c1.395-8.131-2.298-19.496-8.206-25.254l-13.86-13.51   c-5.908-5.759-4.061-11.441,4.103-12.627l19.154-2.783c8.164-1.186,17.831-8.21,21.483-15.608L107.362,239   c3.651-7.398,9.626-7.398,13.277,0l8.566,17.356c3.651,7.398,13.318,14.422,21.483,15.608l19.154,2.783   c8.164,1.186,10.011,6.869,4.103,12.627l-13.86,13.51c-5.908,5.759-9.6,17.123-8.206,25.254l3.272,19.077   c1.395,8.131-3.439,11.643-10.741,7.804L127.277,344.013z" fill="#579BD3"/><path d="M454.841,274.748l-19.154-2.783c-8.164-1.186-17.831-8.21-21.483-15.608L405.638,239   c-3.651-7.398-9.626-7.398-13.277,0l-8.566,17.356c-3.651,7.398-13.318,14.422-21.483,15.608l-19.154,2.783   c-8.164,1.186-10.011,6.869-4.103,12.627l13.86,13.51c5.908,5.759,9.6,17.123,8.206,25.254l-3.272,19.077   c-1.395,8.131,3.439,11.643,10.741,7.804l17.132-9.007c7.302-3.839,19.252-3.839,26.554,0l17.132,9.007   c7.302,3.839,12.136,0.327,10.741-7.804l-3.272-19.077c-1.395-8.131,2.298-19.496,8.206-25.254l13.86-13.51   C464.851,281.616,463.005,275.934,454.841,274.748z M434.613,290.144c-9.495,9.256-14.761,25.461-12.52,38.531l0.67,3.904   l-3.756-1.844c-5.646-2.968-12.508-4.602-20.508-4.602v-66.691l2.003,3.552c5.869,11.893,19.778,21.907,32.901,23.814l3.983,0.57   L434.613,290.144z" fill="#579BD3"/></g></svg>