<?xml version="1.0" ?><!DOCTYPE svg  PUBLIC '-//W3C//DTD SVG 1.1//EN'  'http://www.w3.org/Graphics/SVG/1.1/DTD/svg11.dtd'><svg enable-background="new 0 0 512 512" height="512px" id="Layer_1" version="1.1" viewBox="0 0 512 512" width="512px" xml:space="preserve" xmlns="http://www.w3.org/2000/svg" xmlns:xlink="http://www.w3.org/1999/xlink"><g id="custom_x5F_design"><path d="M225.679,260.672c2.487-5.366,2.955-13.516-1.647-18.118l-3.536-3.536   c-4.602-4.602-12.135-4.214-18.118-1.647c-1.756,0.835-3.409,1.961-4.863,3.414c-6.834,6.834-20.269,31.35-13.435,38.184   c6.834,6.834,31.35-6.601,38.184-13.435C223.718,264.081,224.677,262.498,225.679,260.672z" fill="#579BD3"/><path d="M487.172,429.493l-33.594-60.61c-1.069-1.939-2.078-3.856-5.078-5.311V142c0-16.5-13-29.5-29.5-29.5   h-29.783c-0.891,1-1.809,2.749-2.785,4.173c-2.402,3.507-5.012,6.827-7.801,10.827H419c8.271,0,14.5,6.229,14.5,14.5v218.5h-359   V142c0-8.271,7.229-14.5,15.5-14.5h197.517c5.167-6,10.418-11,15.678-15H90c-16.5,0-30.5,13-30.5,29.5v221.528   c-2,1.452-3.569,3.242-4.663,5.182l-34.049,60.83c-2.702,4.791-0.288,8.96,5.212,8.96h456   C487.5,438.5,489.828,434.309,487.172,429.493z M345.5,403.5v1.5c0,6.627-4.873,12.5-11.5,12.5H174c-6.627,0-12.5-5.873-12.5-12.5   v-1.5H52.966l15.079-26.731c0.442-0.481,1.536-1.269,2.173-1.269h368.55c0.6,0,1.617,0.749,2.036,1.203l14.773,26.797H345.5z" fill="#333333"/><path d="M324.493,165.884c42.079-42.079,69.26-83.122,62.491-89.891s-47.738,20.485-89.817,62.564   c-5.108,5.108-9.816,10.376-14.643,15.202l-55.258,63.743c-4.686,4.686-5.747,11.224-1.061,15.91l2.828,2.828   c4.686,4.686,11.224,3.626,15.91-1.061l64.449-54.549C314.219,175.805,319.385,170.992,324.493,165.884z" fill="#579BD3"/></g></svg>