<?xml version="1.0" ?><!DOCTYPE svg  PUBLIC '-//W3C//DTD SVG 1.1//EN'  'http://www.w3.org/Graphics/SVG/1.1/DTD/svg11.dtd'><svg enable-background="new 0 0 512 512" height="512px" id="Layer_1" version="1.1" viewBox="0 0 512 512" width="512px" xml:space="preserve" xmlns="http://www.w3.org/2000/svg" xmlns:xlink="http://www.w3.org/1999/xlink"><g id="customer_x5F_support"><path d="M450.469,371.048c-8.977-17.954-29.425-37.904-84.785-49.375c-55.359-11.471-61.843-21.446-59.349-40.398   c8.658-7.916,14.492-20.127,18.48-32.494c-14.258,6.902-31.722,11.425-52.185,13.477C269.7,269.829,262.39,275,254,275   c-11.028,0-20-8.972-20-20c0-11.028,8.972-20,20-20c7.453,0,14.069,4.022,17.522,10.34c23.396-2.332,42.165-8.2,55.827-17.461   c1.128-0.765,2.182-1.531,3.171-2.292c0.729-3.951,1.297-7.569,1.749-10.641c13.466-6.982,16.458-18.952,18.952-33.415   c2.494-14.463-0.499-14.463-2.494-14.463l-3.59,0.16c1.593-4.247,2.183-11.649,1.323-20.661   c6.118-62.466-36.102-78.486-48.506-78.495c-14.159-9.574-48.607-26.112-92.85-10.226c-63.15,22.674-44.616,98.261-44.614,98.268   c0.021,5.759,0.612,9.937,1.505,11.78c0,0-1.648-0.401-3.784-0.326c-5.505,0.192-6.484,3.491-4.987,14.463   c1.496,10.972,9.476,27.43,20.947,33.914c4.987,27.929,19.949,57.354,28.428,65.583c1.496,27.181-14.962,29.675-65.334,42.143   c-50.372,12.468-66.7,28.397-79.299,47.878c-9.135,14.126-6.982,60.845-2.494,67.329c4.489,6.484,78.8,50.871,198.496,50.871   s189.02-40.896,196.501-49.375C457.95,431.894,459.447,389.003,450.469,371.048z" fill="#333333"/><path d="M377.66,161.265c0.226-3.234,0.34-6.49,0.34-9.765c0-34.989-13.016-67.919-36.651-92.725   C317.525,33.771,285.793,20,252,20s-65.525,13.771-89.349,38.775C139.016,83.581,126,116.511,126,151.5   c0,3.511,0.137,7,0.397,10.463l0,0C117.041,169.084,111,180.334,111,193c0,21.539,17.461,39,39,39   c6.481,0,12.587-1.59,17.965-4.387c-16.117-19.584-26.12-44.862-26.909-72.57c-0.034-1.177-0.056-2.357-0.056-3.543   C141,87.159,190.696,35,252,35s111,52.159,111,116.5c0,1.109-0.018,2.213-0.047,3.314c-0.735,27.627-10.636,52.846-26.622,72.433   c0.015,0.008,0.031,0.015,0.045,0.023c-1.816,1.563-3.878,3.16-6.22,4.747c-15.124,10.253-35.862,16.486-61.802,18.632   C266.488,244.487,260.77,240,254,240c-8.284,0-15,6.716-15,15s6.716,15,15,15c7.397,0,13.528-5.359,14.76-12.403   c22.782-1.948,48.27-7.531,67.202-21.184c2.888-2.083,5.351-4.164,7.466-6.174c3.658,1.136,7.54,1.761,11.572,1.761   c21.539,0,39-17.461,39-39C394,179.913,387.55,168.338,377.66,161.265z" fill="#579BD3"/></g></svg>