<?xml version="1.0" ?><!DOCTYPE svg  PUBLIC '-//W3C//DTD SVG 1.1//EN'  'http://www.w3.org/Graphics/SVG/1.1/DTD/svg11.dtd'><svg enable-background="new 0 0 512 512" height="512px" id="Layer_1" version="1.1" viewBox="0 0 512 512" width="512px" xml:space="preserve" xmlns="http://www.w3.org/2000/svg" xmlns:xlink="http://www.w3.org/1999/xlink"><g id="file_x5F_sharing"><path d="M145,23.414c-46.716,0-84.586,37.871-84.586,84.586c0,46.716,37.871,84.586,84.586,84.586   s84.586-37.871,84.586-84.586C229.586,61.284,191.716,23.414,145,23.414z M113.5,161.531V53.469l93.585,54.031L113.5,161.531z" fill="#579BD3"/><path d="M396.255,198.414c-46.716,0-84.586,37.871-84.586,84.586c0,46.716,37.871,84.586,84.586,84.586   c46.716,0,84.586-37.871,84.586-84.586C480.841,236.284,442.97,198.414,396.255,198.414z M434.5,303.397c0,0,0,3.578,0,3.706   c0,9.104-7.051,16.484-16.155,16.484s-16.341-7.38-16.341-16.484s7.279-16.484,16.383-16.484c1.458,0,2.113,0.191,4.113,0.547   v-48.64l-41,8.785V321.5h0.749c0.003,0,0.003-0.172,0.003-0.043c0,9.104-7.387,16.273-16.491,16.273s-16.497-7.487-16.497-16.591   s7.161-16.538,16.265-16.538c1.458,0,2.971,0.138,3.971,0.493v-63.416l65-13.828V303.397z" fill="#579BD3"/><path d="M244.587,108c0,4.206-0.265,8.352-0.774,12.422c46.673,5.548,86.454,33.885,107.863,73.544   c13.42-6.747,28.562-10.553,44.578-10.553c5.959,0,11.797,0.528,17.471,1.536C384.294,112.761,314.232,61.462,231.94,59.482   C239.989,73.847,244.587,90.396,244.587,108z" fill="#333333"/><path d="M330.384,357.62C304.528,385.268,267.75,402.58,227,402.58c-0.568,0-1.132-0.015-1.699-0.022   c-1.679,22.266-10.716,42.508-24.674,58.305c8.632,1.128,17.433,1.717,26.373,1.717c65.814,0,124.255-31.545,161.046-80.335   C366.033,380.44,346.028,371.446,330.384,357.62z" fill="#333333"/><path d="M91.37,301.628c-3.864-12.875-5.951-26.512-5.951-40.628c0-22.958,5.498-44.654,15.238-63.849   c-18.962-9.47-34.5-24.809-44.214-43.627C36.798,184.634,25.42,221.486,25.42,261c0,28.58,5.961,55.763,16.685,80.394   C53.694,323.32,70.963,309.221,91.37,301.628z" fill="#333333"/><path d="M126,310.414c-46.716,0-84.586,37.871-84.586,84.586c0,46.716,37.871,84.586,84.586,84.586   s84.586-37.871,84.586-84.586C210.586,348.284,172.716,310.414,126,310.414z M105.004,346.772c7.385,0,13.371,5.986,13.371,13.371   s-5.986,13.371-13.371,13.371s-13.371-5.986-13.371-13.371S97.619,346.772,105.004,346.772z M178.5,435.5h-106v-1.237   l33.056-49.699l18.069,19.318l20.852-43.738l34.023,74.785V435.5z" fill="#579BD3"/></g></svg>