<?xml version="1.0" ?><!DOCTYPE svg  PUBLIC '-//W3C//DTD SVG 1.1//EN'  'http://www.w3.org/Graphics/SVG/1.1/DTD/svg11.dtd'><svg enable-background="new 0 0 512 512" height="512px" id="Layer_1" version="1.1" viewBox="0 0 512 512" width="512px" xml:space="preserve" xmlns="http://www.w3.org/2000/svg" xmlns:xlink="http://www.w3.org/1999/xlink"><g id="seo_x5F_reports_1_"><rect fill="#333333" height="15" width="139" x="215.5" y="402.5"/><rect fill="#333333" height="15" width="139" x="215.5" y="325.5"/><path d="M385,70.5h-30.5v15H385c8.271,0,14.5,6.229,14.5,14.5v363c0,8.271-6.229,15.5-14.5,15.5H123   c-8.271,0-15.5-7.229-15.5-15.5V100c0-8.271,7.229-14.5,15.5-14.5h29.5v-15H123c-16.5,0-30.5,13-30.5,29.5v363   c0,16.5,14,30.5,30.5,30.5h262c16.5,0,29.5-14,29.5-30.5V100C414.5,83.5,401.5,70.5,385,70.5z" fill="#333333"/><rect fill="#333333" height="63" width="172" x="167.5" y="55.5"/><path d="M152.5,387.5v46h48v-46H152.5z M184.5,418.5h-16v-16h16V418.5z" fill="#579BD3"/><path d="M152.5,310.5v46h48v-46H152.5z M184.5,341.5h-16v-16h16V341.5z" fill="#579BD3"/><rect fill="#333333" height="15" width="139" x="215.5" y="248.5"/><rect fill="#333333" height="15" width="139" x="215.5" y="171.5"/><path d="M152.5,233.5v46h48v-46H152.5z M184.5,264.5h-16v-16h16V264.5z" fill="#579BD3"/><path d="M152.5,156.5v46h48v-46H152.5z M184.5,187.5h-16v-16h16V187.5z" fill="#579BD3"/><path d="M320.5,47.5c0-16.569-13.431-30-30-30h-74c-16.569,0-30,13.431-30,30v18c0,16.569,13.431,30,30,30h74   c16.569,0,30-13.431,30-30V47.5z M305.5,65.5c0,8.284-6.716,15-15,15h-74c-8.284,0-15-6.716-15-15v-18c0-8.284,6.716-15,15-15h74   c8.284,0,15,6.716,15,15V65.5z" fill="#333333"/></g></svg>