<?xml version="1.0" ?><!DOCTYPE svg  PUBLIC '-//W3C//DTD SVG 1.1//EN'  'http://www.w3.org/Graphics/SVG/1.1/DTD/svg11.dtd'><svg enable-background="new 0 0 512 512" height="512px" id="Layer_1" version="1.1" viewBox="0 0 512 512" width="512px" xml:space="preserve" xmlns="http://www.w3.org/2000/svg" xmlns:xlink="http://www.w3.org/1999/xlink"><g id="profit"><path d="M462,64.5H49c-16.5,0-30.5,13-30.5,29.5v252c0,16.5,14,30.5,30.5,30.5h413c16.5,0,29.5-14,29.5-30.5V94   C491.5,77.5,478.5,64.5,462,64.5z M253.089,358.592c-8.284,0-15-6.716-15-15s6.716-15,15-15c8.284,0,15,6.716,15,15   S261.373,358.592,253.089,358.592z M476.5,311.5h-443V94c0-8.271,7.229-14.5,15.5-14.5h413c8.271,0,14.5,6.229,14.5,14.5V311.5z" fill="#333333"/><polygon fill="#333333" points="318.5,443.5 267.5,443.5 267.5,391.5 237.5,391.5 237.5,443.5 187.5,443.5 187.5,458.5    318.5,458.5  "/></g><g id="competitive_x5F_analysis"><path d="M351.191,182.39l-98.66,15.558l-42.949,89.854c12.54,5.555,26.415,8.646,41.013,8.646   c55.991,0,101.381-45.39,101.381-101.381C351.977,190.773,351.709,186.542,351.191,182.39z M317.785,262.255   c-17.947,17.947-41.808,27.831-67.189,27.831c-11.159,0-22.014-1.899-32.354-5.652l38.586-80.724l88.64-13.978   c0.098,1.776,0.148,3.559,0.148,5.335C345.615,220.447,335.732,244.308,317.785,262.255z" fill="#333333"/><path d="M329.827,132.425c-17.991-22.862-44.735-37.797-76.735-38.693v95.052L329.827,132.425z" fill="#333333"/><path d="M262.808,189.888l87.391-13.781c-2.669-14.106-8.264-27.176-16.124-38.562L262.808,189.888z" fill="#579BD3"/><path d="M149.16,195.066c0,39.13,22.144,73.077,54.607,89.977l43.325-90.698V93.749   C193.092,95.539,149.16,140.211,149.16,195.066z M160.945,226.662l48.712,31.486l-3.812,7.975l-38.33-24.855   C164.923,236.606,162.722,231.722,160.945,226.662z M158.195,217.31c-1.106-4.622-1.872-9.356-2.278-14.17l60.922,39.98   l-4.417,9.241L158.195,217.31z M155.578,195.31c0-0.081-0.002-0.162-0.002-0.243c0-3.864,0.231-7.696,0.686-11.48l68.049,43.903   l-4.704,9.84L155.578,195.31z M157.343,176.715c0.698-3.575,1.602-7.094,2.7-10.545l71.41,46.377l-4.377,9.158L157.343,176.715z    M162.243,160.013c1.327-3.346,2.847-6.614,4.552-9.792l72.046,46.87l-4.621,9.668L162.243,160.013z M169.617,144.713   c2.018-3.219,4.05-6.329,6.464-9.312l64.01,41.632v13.773L169.617,144.713z M240.092,147.762l-45.544-29.715   c3.01-2.183,5.948-4.176,9.172-5.98l36.372,23.707V147.762z M210.453,108.731c4.5-2.075,8.975-3.792,13.761-5.136l15.878,10.418   v14.181L210.453,108.731z M240.092,106.431l-7.441-4.825c2.456-0.447,5.441-0.805,7.441-1.059V106.431z M189.245,122.192   l50.847,33.147v14.113l-59.622-38.908c0.501-0.541,1.008-1.077,1.523-1.609C184.308,126.549,186.73,124.302,189.245,122.192z    M176.604,254.743l26.475,17.168l-2.031,4.249C191.589,270.383,183.363,263.112,176.604,254.743z" fill="#579BD3"/></g></svg>