<?xml version="1.0" ?><!DOCTYPE svg  PUBLIC '-//W3C//DTD SVG 1.1//EN'  'http://www.w3.org/Graphics/SVG/1.1/DTD/svg11.dtd'><svg enable-background="new 0 0 512 512" height="512px" id="Layer_1" version="1.1" viewBox="0 0 512 512" width="512px" xml:space="preserve" xmlns="http://www.w3.org/2000/svg" xmlns:xlink="http://www.w3.org/1999/xlink"><g id="certificate_x5F_diploma_x5F_licence"><path d="M493.5,117.5c0-16.569-13.431-30-30-30h-417c-16.569,0-30,13.431-30,30v275c0,16.569,13.431,30,30,30h417   c16.569,0,30-13.431,30-30V117.5z M478.5,344.44c-31,6.076-55.984,31.06-62.06,63.06H95.56c-6.14-32-31.06-57.5-64.06-63.238   V164.738C64.5,159,89.42,133.5,95.56,102.5h320.88c6.076,31,31.06,55.984,62.06,62.06V344.44z" fill="#333333"/><path d="M295.552,174.899c-5.518-3.323-9.965-8.256-12.697-14.085c-6.437-0.773-12.525-3.476-17.383-7.716   c-3.045,0.932-6.218,1.403-9.472,1.403c-3.253,0-6.426-0.471-9.469-1.403c-4.86,4.242-10.95,6.945-17.39,7.717   c-2.733,5.829-7.179,10.762-12.693,14.084c-0.12,6.449-2.175,12.776-5.87,18.063c2.513,5.938,3.208,12.553,1.984,18.886   c4.7,4.392,8.022,10.134,9.487,16.398c6.134,2.083,11.532,6.001,15.414,11.188c0.924-0.081,1.852-0.122,2.778-0.122   c5.498,0,10.982,1.431,15.759,4.074c4.778-2.644,10.263-4.074,15.761-4.074c0.926,0,1.853,0.041,2.776,0.121   c3.882-5.187,9.282-9.106,15.417-11.188c1.464-6.26,4.785-12.001,9.484-16.393c-1.226-6.333-0.53-12.95,1.984-18.89   C297.728,187.674,295.671,181.347,295.552,174.899z" fill="#579BD3"/><path d="M322.594,196.844c3.996-3.78,3.424-9.217-1.27-12.083l-0.285-0.174c-4.694-2.866-6.806-9.366-4.693-14.444   l0.128-0.308c2.113-5.078-0.621-9.813-6.075-10.522l-0.331-0.043c-5.454-0.709-10.027-5.788-10.162-11.286l-0.008-0.333   c-0.135-5.498-4.558-8.712-9.829-7.142l-0.32,0.095c-5.271,1.57-11.514-1.209-13.874-6.177l-0.143-0.301   c-2.36-4.968-7.708-6.105-11.884-2.526l-0.253,0.217c-4.177,3.579-11.011,3.579-15.187,0l-0.253-0.217   c-4.177-3.579-9.524-2.442-11.884,2.526l-0.143,0.301c-2.36,4.968-8.603,7.748-13.874,6.177l-0.32-0.095   c-5.271-1.57-9.694,1.643-9.829,7.142l-0.008,0.333c-0.135,5.498-4.708,10.577-10.162,11.286l-0.331,0.043   c-5.454,0.709-8.188,5.444-6.075,10.522l0.128,0.308c2.113,5.078,0.001,11.578-4.693,14.444l-0.285,0.174   c-4.694,2.866-5.266,8.304-1.27,12.083l0.242,0.229c3.996,3.78,4.71,10.576,1.587,15.104l-0.189,0.275   c-3.122,4.528-1.433,9.728,3.755,11.555l0.315,0.111c5.187,1.828,8.605,7.746,7.594,13.153l-0.061,0.328   c-1.011,5.406,2.648,9.469,8.13,9.029l0.332-0.027c5.482-0.44,11.011,3.577,12.287,8.927l0.077,0.324   c1.275,5.35,6.27,7.574,11.099,4.942l0.293-0.16c4.829-2.632,11.514-1.211,14.855,3.158l0.203,0.265   c3.341,4.369,8.809,4.369,12.15,0l0.203-0.265c3.341-4.369,10.026-5.79,14.855-3.158l0.293,0.16   c4.829,2.632,9.824,0.408,11.099-4.942l0.077-0.324c1.275-5.35,6.805-9.367,12.287-8.927l0.332,0.027   c5.482,0.44,9.141-3.623,8.13-9.029l-0.061-0.328c-1.011-5.406,2.406-11.325,7.594-13.153l0.315-0.111   c5.187-1.828,6.877-7.028,3.755-11.555l-0.189-0.275c-3.122-4.528-2.408-11.325,1.587-15.104L322.594,196.844z M305.034,213.669   c-5.87,4.426-9.812,11.245-10.716,18.535c-7.27,1.627-13.609,6.262-17.374,12.612c-1.695-0.333-3.433-0.504-5.185-0.504   c-5.725,0-11.249,1.786-15.761,4.964c-4.512-3.179-10.036-4.964-15.759-4.964c-1.752,0-3.49,0.171-5.186,0.505   c-3.764-6.35-10.103-10.984-17.371-12.612c-0.904-7.292-4.848-14.114-10.719-18.539c2.15-7.039,1.326-14.885-2.24-21.32   c4.827-5.554,7.266-13.059,6.625-20.39c6.664-3.108,11.94-8.966,14.339-15.916c7.576-0.103,14.67-3.354,19.609-8.71   c3.324,1.421,6.964,2.171,10.701,2.171c3.739,0,7.381-0.75,10.703-2.17c4.939,5.356,12.031,8.605,19.603,8.71   c2.396,6.946,7.675,12.806,14.343,15.916c-0.641,7.33,1.798,14.834,6.626,20.39C303.707,198.784,302.883,206.631,305.034,213.669z" fill="#333333"/><rect fill="#333333" height="15" width="320" x="95.5" y="348.5"/><rect fill="#333333" height="15" width="320" x="95.5" y="303.5"/></g></svg>