<?xml version="1.0" ?><!DOCTYPE svg  PUBLIC '-//W3C//DTD SVG 1.1//EN'  'http://www.w3.org/Graphics/SVG/1.1/DTD/svg11.dtd'><svg enable-background="new 0 0 512 512" height="512px" id="Layer_1" version="1.1" viewBox="0 0 512 512" width="512px" xml:space="preserve" xmlns="http://www.w3.org/2000/svg" xmlns:xlink="http://www.w3.org/1999/xlink"><g id="brainstorming"><path d="M442.714,172.577c-6.773,11.942-22.888,28.133-60.476,28.133c-36.389,0-60.287-14.829-71.886-24.356   c-4.987,1.519-11.428,2.842-18.729,2.842c-17.448,0-41.974-7.363-59.729-42.438c-10.797-21.332-12.344-39.955-4.597-55.353   c6.773-13.463,18.787-20.498,27.708-24.035c2.111-8.615,6.946-19.001,16.455-28.065c-12.143,1.492-23.039,3.78-31.869,6.296   c-49.497,14.102-105.484,77.788-139.493,176.991c-7.502,21.883-16.499,61.497-16.499,61.497l22.367-1.721   c0,0-13.617,79.717,1.382,108.215c14.999,28.5,60.152,24,60.152,24V493.5h178V370.085c0,0,111.116-60.425,103.88-198.378   C447.067,172.089,445.007,172.38,442.714,172.577z" fill="#333333"/><path d="M451.896,61.397c0,0-2.143-35.365-53.583-42.866s-67.515,15.003-67.515,15.003s-26.792-10.717-45.01,3.215   s-17.147,32.15-17.147,32.15s-49.943,8.573-23.364,61.085s68.374,28.935,68.374,28.935s22.505,26.791,68.586,26.791   s50.368-27.863,50.368-27.863s47.153,3.215,57.87-37.508S451.896,61.397,451.896,61.397z M348.802,154.488l25.433-52.225   l-32.651-3.502l18.433-45.795c0,0,34.795-9.218,38.01-9.218l-19.218,37.508l34.58,5.717L348.802,154.488z" fill="#579BD3"/></g></svg>