<?xml version="1.0" ?><!DOCTYPE svg  PUBLIC '-//W3C//DTD SVG 1.1//EN'  'http://www.w3.org/Graphics/SVG/1.1/DTD/svg11.dtd'><svg enable-background="new 0 0 512 512" height="512px" id="Layer_1" version="1.1" viewBox="0 0 512 512" width="512px" xml:space="preserve" xmlns="http://www.w3.org/2000/svg" xmlns:xlink="http://www.w3.org/1999/xlink"><g id="article_x5F_submission"><path d="M92.5,122.5V47c0-8.271,7.229-14.5,15.5-14.5h292c8.271,0,14.5,6.229,14.5,14.5v75.5h15V47   c0-16.5-13-29.5-29.5-29.5H108c-16.5,0-30.5,13-30.5,29.5v75.5H92.5z" fill="#333333"/><path d="M429.5,385.5h-15V406c0,4-2.5,7.5-7.5,7.5h-27.137c-16.5,0-30.363,12.863-30.363,29.363V471   c0,4-2.5,7.5-7.5,7.5H108c-8.271,0-15.5-7.229-15.5-15.5v-77.5h-15V463c0,16.5,14,30.5,30.5,30.5h241.863l-0.363-0.637V493   l80.5-79.5h-0.137l-0.363-0.637V385.5z" fill="#579BD3"/><rect fill="#579BD3" height="15" width="227" x="107.5" y="432.5"/><rect fill="#579BD3" height="15" width="292" x="107.5" y="385.5"/><rect fill="#579BD3" height="15" width="292" x="107.5" y="338.5"/><path d="M462,137.5h-47.5v43h-322v-43H46c-16.5,0-30.5,13-30.5,29.5v203.5h77v-64h322v64h77V167   C491.5,150.5,478.5,137.5,462,137.5z M399.5,256.5h-292v-15h292V256.5z" fill="#333333"/></g></svg>