<?xml version="1.0" ?><!DOCTYPE svg  PUBLIC '-//W3C//DTD SVG 1.1//EN'  'http://www.w3.org/Graphics/SVG/1.1/DTD/svg11.dtd'><svg enable-background="new 0 0 512 512" height="512px" id="Layer_1" version="1.1" viewBox="0 0 512 512" width="512px" xml:space="preserve" xmlns="http://www.w3.org/2000/svg" xmlns:xlink="http://www.w3.org/1999/xlink"><g id="cv_x5F_cover_x5F_letter"><path d="M400,17.5H108c-16.5,0-30.5,13-30.5,29.5v416c0,16.5,14,30.5,30.5,30.5h174.386L429.5,345.386V47   C429.5,30.5,416.5,17.5,400,17.5z M414.5,338.5h0.475c-0.258,3-3.751,6.75-7.725,6.75c-0.169,0,0.25-0.264-0.75-0.275v0.525   h-94.114c-16.5,0-30.886,13.386-30.886,29.886V471.5h0.475c-0.258,3-3.751,6.75-7.725,6.75c-0.169,0,0.25-0.264-0.75-0.275v0.525   H108c-8.271,0-15.5-7.229-15.5-15.5V47c0-8.271,7.229-14.5,15.5-14.5h292c8.271,0,14.5,6.229,14.5,14.5V338.5z" fill="#333333"/><path d="M253.612,169.123c-2.596-5.193-8.511-10.963-24.522-14.281c-16.012-3.318-17.887-6.203-17.166-11.684   c5.049-4.616,6.78-14.281,7.501-19.185c3.895-2.019,4.76-5.481,5.481-9.665c0.721-4.183-0.144-4.183-0.721-4.183   s-0.577,0-1.298,0.865c2.164-5.77,3.318-32.312-26.109-32.456c-16.046,0-22.867,7.834-25.529,15.885   c-2.578,7.572-1.47,15.32-0.724,16.859c-0.577-0.673,0.144-1.154-1.442-1.01s-1.875,1.01-1.442,4.183s2.741,7.934,6.058,9.809   c1.442,8.078,5.77,16.589,8.222,18.969c0.433,7.862-4.327,8.583-18.897,12.189c-14.569,3.606-19.292,8.213-22.935,13.848   c-2.642,4.086-2.019,17.598-0.721,19.474s22.791,14.713,57.411,14.713s54.67-11.828,56.834-14.281   C255.775,186.721,256.208,174.316,253.612,169.123z" fill="#579BD3"/><rect fill="#333333" height="15" width="131" x="136.5" y="356.5"/><rect fill="#333333" height="15" width="131" x="136.5" y="417.5"/><rect fill="#333333" height="15" width="233" x="136.5" y="234.5"/><rect fill="#333333" height="15" width="233" x="136.5" y="295.5"/><rect fill="#333333" height="15" width="101" x="268.5" y="112.5"/><rect fill="#333333" height="15" width="101" x="268.5" y="173.5"/></g></svg>