<?xml version="1.0" ?><!DOCTYPE svg  PUBLIC '-//W3C//DTD SVG 1.1//EN'  'http://www.w3.org/Graphics/SVG/1.1/DTD/svg11.dtd'><svg enable-background="new 0 0 512 512" height="512px" id="Layer_1" version="1.1" viewBox="0 0 512 512" width="512px" xml:space="preserve" xmlns="http://www.w3.org/2000/svg" xmlns:xlink="http://www.w3.org/1999/xlink"><g id="brand_x5F_protection"><path d="M474.889,129.643c-2.893,3.609-6.015,7.426-9.318,11.407c-9.2,56.669-24.645,108.633-46.054,154.767   c-19.577,42.187-44.157,79.643-73.057,111.33c-39.267,43.053-76.09,63.739-89.613,70.441c-13.684-6.47-51-26.552-90.524-68.901   c-29.061-31.138-53.648-68.08-73.079-109.803c-22.861-49.088-38.622-104.99-46.911-166.333   c34.577-11.082,134.14-45.633,207.177-97.369c39.718,22.409,102.429,48.804,151.682,68.334c5.143-3.668,10.052-7.12,14.717-10.349   C366.33,72.114,292.514,41.392,252.603,17.294C165.846,82.139,29.877,121.945,29.877,121.945   C65.046,421.364,257,494.039,257,494.039s188.891-75.53,227.082-376.141C481.301,121.552,478.243,125.458,474.889,129.643z" fill="#333333"/><path d="M396.276,219.497c-58.095,63.139-121.934,128.013-131.018,136.326c-9.723,8.896-22.311,14.104-35.47,14.677   c-1.195,0.076-2.405,0.115-3.601,0.115c-16.85,0-32.655-7.443-43.362-20.422c-7.934-9.615-31.813-46.104-51.173-81.395   c-11.16-20.344-19.303-37.446-24.202-50.833c-3.606-9.853-12.05-32.927,2.235-44.713c2.684-2.214,7.328-4.854,14.213-4.854   c8.307,0,22.185,3.309,56.048,29.108c18.414,14.029,36.785,30.131,49.688,41.876c26.042-21.224,81.646-66.063,136.237-107.026   c8.757-6.571,17.063-12.718,24.921-18.449c-44.698-17.905-98.542-40.778-136.378-61.109   c-65.903,44.608-148.507,75.662-191.436,90.075c8.459,54.997,23.195,105.298,43.863,149.677   c18.764,40.289,42.465,75.92,70.447,105.901c32.49,34.812,63.095,53.732,79.404,62.293c16.117-8.839,46.377-28.283,78.685-63.706   c27.87-30.56,51.602-66.74,70.533-107.537c17.609-37.944,31.089-80.076,40.266-125.635   C431.98,180.225,415.304,198.817,396.276,219.497z" fill="#333333"/><path d="M491.236,72.854C478.624,59.072,301.353,199.91,229.041,259.243   c-37.309-34.904-97.064-84.938-109.809-74.421c-17.549,14.479,60.684,138.276,75.164,155.825   c8.784,10.646,21.794,15.738,34.588,14.873c9.379-0.374,18.681-3.93,26.147-10.763C271.916,329.397,506.595,89.639,491.236,72.854z   " fill="#579BD3"/></g></svg>