<?xml version="1.0" ?><!DOCTYPE svg  PUBLIC '-//W3C//DTD SVG 1.1//EN'  'http://www.w3.org/Graphics/SVG/1.1/DTD/svg11.dtd'><svg enable-background="new 0 0 512 512" height="512px" id="Layer_1" version="1.1" viewBox="0 0 512 512" width="512px" xml:space="preserve" xmlns="http://www.w3.org/2000/svg" xmlns:xlink="http://www.w3.org/1999/xlink"><g id="search_x5F_settings"><path d="M425.851,165.894c-3.76-7.315-2.101-18.076,3.687-23.92l10.318-10.409c5.79-5.84,6.228-15.797,0.975-22.125   L398.38,67.116c-6.346-5.232-16.272-4.736-22.063,1.105l-10.271,10.362c-5.79,5.84-16.516,7.556-23.837,3.807l-29.857-12.23   c-7.829-2.521-14.263-11.313-14.298-19.536l-0.065-14.616c-0.035-8.223-6.73-15.882-14.877-17.019c0,0-14.73-2.056-30.068-1.989   c-15.338,0.068-30.048,2.253-30.048,2.253c-8.135,1.21-14.759,8.928-14.724,17.151l0.065,14.616   c0.035,8.223-6.319,17.072-14.125,19.663l-29.748,12.494c-7.289,3.81-18.029,2.192-23.87-3.596l-10.362-10.271   c-5.84-5.79-15.773-6.199-22.072-0.911l-42.072,42.701c-5.197,6.375-4.668,16.325,1.172,22.116l10.409,10.318   c5.84,5.79,7.597,16.537,3.901,23.884L69.686,196.97c-2.477,7.844-11.228,14.289-19.454,14.325l-14.563,0.065   c-8.223,0.035-15.861,6.733-16.972,14.883c0,0-1.915,14.075-1.851,29.064c0.07,15.691,2.403,31.053,2.403,31.053   c1.234,8.132,8.975,14.754,17.198,14.718l14.668-0.065c8.223-0.035,17.098,6.31,19.719,14.107l12.177,28.779   c3.819,7.283,2.209,18.02-3.581,23.864L69.16,378.124c-5.79,5.84-6.199,15.773-0.911,22.072l42.701,42.072   c6.375,5.197,16.325,4.668,22.116-1.172l10.318-10.409c5.79-5.84,16.534-7.591,23.878-3.887l28.579,11.578   c7.832,2.503,14.272,11.281,14.31,19.507l0.065,14.616c0.035,8.223,6.73,15.882,14.877,17.019c0,0,14.73,2.056,30.068,1.989   c15.338-0.068,30.051-2.253,30.051-2.253c8.135-1.21,14.759-8.928,14.724-17.151l-0.065-14.616   c-0.035-8.223,6.325-17.06,14.137-19.633l28.473-11.831c7.309-3.769,18.07-2.115,23.911,3.675l10.409,10.318   c5.84,5.79,15.797,6.228,22.125,0.975l42.325-42.451c5.232-6.346,4.736-16.272-1.105-22.063l-10.362-10.271   c-5.84-5.79-7.547-16.513-3.793-23.829l11.922-28.887c2.55-7.818,11.366-14.245,19.592-14.281l14.668-0.065   c8.223-0.035,15.905-6.728,17.066-14.868c0,0,2.197-15.382,2.127-31.073c-0.068-14.989-2.109-29.046-2.109-29.046   c-1.181-8.138-8.878-14.768-17.101-14.73l-14.563,0.065c-8.223,0.035-17.036-6.331-19.581-14.151L425.851,165.894z    M254.814,416.094c-89.235,0.395-162.161-71.879-162.555-161.118C91.864,165.74,164.141,92.815,253.377,92.42   c89.239-0.395,162.161,71.883,162.555,161.118C416.327,342.777,344.053,415.699,254.814,416.094z" fill="#333333"/><g id="globe_x5F_net_x5F_reverse"><path d="M390.949,312.258c6.723-15.896,10.549-32.758,11.403-49.758H352.66c-0.739,21-4.495,42.444-10.87,62.142    c11.438,4.61,22.415,10.225,32.866,16.527C381.145,332.202,386.6,322.538,390.949,312.258z" fill="#579BD3"/><path d="M263.5,307.978c22,0.786,42.891,4.653,62.767,11.056c5.867-18.268,9.208-36.533,9.915-56.533H263.5    V307.978z" fill="#579BD3"/><path d="M319.761,336.617c0.261-0.617,0.473-1.239,0.728-1.858c-18.392-5.868-36.988-9.2-56.988-9.95v77.124    c6-0.269,9.481-0.759,14.139-1.475C295.522,381.806,309.717,360.362,319.761,336.617z" fill="#579BD3"/><path d="M336.018,340.371c-7.785,19.077-18.084,36.859-30.486,52.937c2.314-0.845,4.611-1.749,6.891-2.713    c17.567-7.43,33.346-18.07,46.901-31.624c1.58-1.58,3.117-3.194,4.618-4.834c-8.033-4.712-16.377-8.924-25.03-12.584    C337.951,341.146,336.984,340.763,336.018,340.371z" fill="#579BD3"/><path d="M312.424,118.698c-2.145-0.907-4.307-1.757-6.484-2.559c12.176,15.883,22.309,33.412,29.998,52.202    c0.992-0.403,1.986-0.797,2.974-1.214c8.521-3.604,16.743-7.741,24.663-12.365c-1.386-1.503-2.798-2.987-4.251-4.44    C345.77,136.768,329.991,126.128,312.424,118.698z" fill="#579BD3"/><path d="M352.638,245.5h49.621c-0.999-16-4.783-32.924-11.31-48.356c-4.424-10.461-9.996-20.242-16.634-29.343    c-10.37,6.216-21.256,11.552-32.594,16.118C348.071,203.477,351.843,223.5,352.638,245.5z" fill="#579BD3"/><path d="M263.5,245.5h72.658c-0.76-19-4.117-37.833-9.958-55.959c-19.856,6.391-40.7,10.376-62.7,11.161V245.5z" fill="#579BD3"/><path d="M278.078,108.908c-4.802-0.753-8.578-1.269-14.578-1.547v76.511c20-0.749,38.54-4.072,56.906-9.923    c-0.228-0.552-0.444-1.107-0.677-1.657C309.768,148.74,295.754,127.451,278.078,108.908z" fill="#579BD3"/><path d="M232.159,400.396c4.995,0.782,10.341,1.31,15.341,1.577v-77.185c-20,0.713-39.402,4.093-58.081,10.092    c0.239,0.578,0.465,1.16,0.709,1.737C200.161,360.336,214.303,381.76,232.159,400.396z" fill="#579BD3"/><path d="M197.576,390.595c2.137,0.904,4.291,1.751,6.458,2.549c-12.315-15.995-22.555-33.667-30.307-52.626    c-0.843,0.344-1.69,0.678-2.53,1.033c-8.679,3.671-17.051,7.892-25.107,12.619c1.49,1.628,3.016,3.23,4.585,4.799    C164.23,372.525,180.009,383.165,197.576,390.595z" fill="#579BD3"/><path d="M189.926,172.29c-0.216,0.51-0.214,1.025-0.425,1.536c18.653,5.982,37.999,9.353,57.999,10.065v-76.571    c-5,0.274-10.642,0.828-15.782,1.649C214.071,127.497,199.876,148.766,189.926,172.29z" fill="#579BD3"/><path d="M119.051,197.144c-6.527,15.433-10.312,32.356-11.31,48.356h49.307c0.798-22,4.588-42.113,10.969-61.716    c-11.243-4.55-22.044-9.848-32.332-16.021C129.047,176.863,123.475,186.684,119.051,197.144z" fill="#579BD3"/><path d="M247.5,200.718c-23-0.746-43.666-4.785-63.802-11.304c-5.867,18.165-9.408,37.086-10.17,56.086H247.5    V200.718z" fill="#579BD3"/><path d="M247.5,262.5h-73.996c0.709,20,4.235,38.354,10.128,56.663c20.155-6.532,40.869-10.454,63.869-11.2V262.5z    " fill="#579BD3"/><path d="M157.026,262.5h-49.379c0.855,17,4.68,33.861,11.403,49.758c4.348,10.281,9.805,19.851,16.293,28.82    c10.369-6.253,21.261-11.637,32.604-16.232C161.542,305.101,157.767,283.5,157.026,262.5z" fill="#579BD3"/><path d="M197.576,118.698c-17.567,7.43-33.346,18.07-46.901,31.624c-1.44,1.44-2.84,2.91-4.214,4.4    c7.942,4.641,16.19,8.79,24.736,12.405c0.866,0.367,1.74,0.711,2.609,1.066c7.657-18.671,17.731-36.092,29.82-51.89    C201.598,117.058,199.579,117.85,197.576,118.698z" fill="#579BD3"/></g></g></svg>