<?xml version="1.0" ?><!DOCTYPE svg  PUBLIC '-//W3C//DTD SVG 1.1//EN'  'http://www.w3.org/Graphics/SVG/1.1/DTD/svg11.dtd'><svg enable-background="new 0 0 512 512" height="512px" id="Layer_1" version="1.1" viewBox="0 0 512 512" width="512px" xml:space="preserve" xmlns="http://www.w3.org/2000/svg" xmlns:xlink="http://www.w3.org/1999/xlink"><path d="M487,68.5c3.85,0,6.5-3.65,6.5-7.5v-1c0-3.85-2.65-6.5-6.5-6.5H262.5V37c0-3.85-2.65-6.5-6.5-6.5h-1  c-3.85,0-7.5,2.65-7.5,6.5v16.5H25c-3.85,0-7.5,2.65-7.5,6.5v1c0,3.85,3.65,7.5,7.5,7.5h16.5v323H25c-3.85,0-7.5,2.65-7.5,6.5v1  c0,3.85,3.65,7.5,7.5,7.5h225.5v45.942c-4.554,2.575-7.633,7.453-7.633,13.058c0,8.284,6.716,15,15,15s15-6.716,15-15  c0-5.493-2.962-10.283-7.367-12.896V406.5H487c3.85,0,6.5-3.65,6.5-7.5v-1c0-3.85-2.65-6.5-6.5-6.5h-17.5v-323H487z M454.5,391.5  h-398v-323h398V391.5z" fill="#333333"/><polygon fill="#333333" points="175.89,115.014 140.795,139.318 116.476,104.199 104.159,112.762 128.463,147.857 93.344,172.176   101.907,184.492 137.003,160.189 161.322,195.307 173.638,186.744 149.334,151.648 184.452,127.33 "/><polygon fill="#333333" points="425.451,241.576 382.832,239.141 385.269,196.494 370.29,195.666 367.855,238.286 325.208,235.849   324.381,250.826 367.001,253.261 364.564,295.908 379.541,296.735 381.976,254.115 424.623,256.552 "/><polygon fill="#333333" points="302.42,349.226 271.604,319.684 301.166,288.849 290.318,278.488 260.776,309.303 229.941,279.742   219.58,290.589 250.396,320.131 220.835,350.967 231.682,361.327 261.224,330.511 292.059,360.073 "/><path d="M311.336,216.889l-14.079-5.345l24.831-57.119c-15.875,8.256-40.614,22.276-68.302,42.184  c-22.511,16.185-49.404,38.125-75.458,65.649c7.072,8.874,11.123,20.224,10.639,32.452c-1.071,27.041-23.859,48.094-50.9,47.023  c-27.041-1.071-48.094-23.859-47.023-50.9s23.859-48.094,50.9-47.023c9.405,0.372,18.082,3.377,25.359,8.269  c26.967-28.507,54.785-51.18,78.057-67.887c23.49-16.866,44.671-29.503,60.488-38.148l-64.882-0.159l1.597-15.153l106.245-0.126  L311.336,216.889z M106.031,291.427c-0.742,18.733,13.895,34.577,32.628,35.318c18.733,0.742,34.577-13.895,35.318-32.628  c0.742-18.733-13.895-34.577-32.628-35.318C122.616,258.057,106.773,272.694,106.031,291.427z" fill="#579BD3"/></svg>