<?xml version="1.0" ?><!DOCTYPE svg  PUBLIC '-//W3C//DTD SVG 1.1//EN'  'http://www.w3.org/Graphics/SVG/1.1/DTD/svg11.dtd'><svg enable-background="new 0 0 512 512" height="512px" id="Layer_1" version="1.1" viewBox="0 0 512 512" width="512px" xml:space="preserve" xmlns="http://www.w3.org/2000/svg" xmlns:xlink="http://www.w3.org/1999/xlink"><g id="checkmark_x5F_completed_x5F_tasks_x5F_success"><path d="M436.5,210.359V423c0,8.271-6.229,15.5-14.5,15.5H86c-8.271,0-15.5-7.229-15.5-15.5V87   c0-8.271,7.229-14.5,15.5-14.5h336c8.271,0,14.5,6.229,14.5,14.5v30.626c1-0.321,0.991-0.653,1.473-0.968   c5.002-3.262,9.527-6.084,13.527-8.525V87c0-16.5-13-29.5-29.5-29.5H86c-16.5,0-30.5,13-30.5,29.5v336c0,16.5,14,30.5,30.5,30.5   h336c16.5,0,29.5-14,29.5-30.5V193.118C447.5,198.595,442.5,204.34,436.5,210.359z" fill="#333333"/><path d="M491.236,108.854C478.624,95.072,301.353,235.91,229.041,295.243   c-37.309-34.904-97.064-84.938-109.809-74.421c-17.549,14.479,60.684,138.276,75.164,155.825   c8.784,10.646,21.794,15.738,34.588,14.873c9.379-0.374,18.681-3.93,26.147-10.763   C271.916,365.397,506.595,125.639,491.236,108.854z" fill="#579BD3"/></g></svg>