<?xml version="1.0" ?><!DOCTYPE svg  PUBLIC '-//W3C//DTD SVG 1.1//EN'  'http://www.w3.org/Graphics/SVG/1.1/DTD/svg11.dtd'><svg enable-background="new 0 0 512 512" height="512px" id="Layer_1" version="1.1" viewBox="0 0 512 512" width="512px" xml:space="preserve" xmlns="http://www.w3.org/2000/svg" xmlns:xlink="http://www.w3.org/1999/xlink"><g id="email_x5F_marketing"><path d="M461.75,140L266.64,30.275c-3.875-1.828-8.134-2.862-12.702-2.862c-4.594,0-8.905,1.049-12.796,2.896   L45.734,140c0,0-30.234,13.5-30.234,30v261c0,16.5,14,30.5,30.5,30.5h416c16.5,0,29.5-14,29.5-30.5V170   C491.5,153.5,461.75,140,461.75,140z M477,431.5c0,8-6.729,15-15,15H46c-8.271,0-15.5-7.229-15.5-15.5V170.102   c1-3.398,10.828-11.608,21.434-16.436l0.705-0.264L247.934,43.681c1.908-0.842,3.956-1.268,6.034-1.268   c2.067,0,4.086,0.418,5.977,1.244l195.281,109.747l0.614,0.274c0.029,0.014,5.601,2.679,11.465,6.822   c7.069,4.993,9.194,8.637,9.194,9.604V431.5H477z" fill="#333333"/><polygon fill="#333333" points="461.5,421.175 461.5,177.413 288.395,274.701  "/><polygon fill="#333333" points="218.605,274.701 45.5,177.413 45.5,421.175  "/><path d="M450.389,431.5L274.94,282.794l-8.175,4.469c-3.874,1.828-8.197,2.799-12.765,2.799   c-4.594,0-8.936-1.08-12.827-2.927l-8.114-4.326L57.611,431.5H450.389z" fill="#579BD3"/></g></svg>