<?xml version="1.0" ?><!DOCTYPE svg  PUBLIC '-//W3C//DTD SVG 1.1//EN'  'http://www.w3.org/Graphics/SVG/1.1/DTD/svg11.dtd'><svg enable-background="new 0 0 512 512" height="512px" id="Layer_1" version="1.1" viewBox="0 0 512 512" width="512px" xml:space="preserve" xmlns="http://www.w3.org/2000/svg" xmlns:xlink="http://www.w3.org/1999/xlink"><path d="M394.898,215.47l-140.197,22.108L193.67,365.262c17.82,7.893,37.536,12.286,58.281,12.286  c79.564,0,144.064-64.499,144.064-144.064C396.014,227.384,395.634,221.371,394.898,215.47z M347.427,328.961  c-25.503,25.503-59.41,39.548-95.477,39.548c-15.857,0-31.282-2.698-45.975-8.032l54.832-114.711l125.959-19.863  c0.14,2.524,0.21,5.057,0.21,7.581C386.975,269.551,372.93,303.458,347.427,328.961z" fill="#333333"/><path d="M364.543,144.47C338.977,111.983,300.5,90.759,255.5,89.487v135.071L364.543,144.47z" fill="#333333"/><path d="M269.304,226.125l124.184-19.583c-3.793-20.045-11.744-38.617-22.912-54.797L269.304,226.125z" fill="#579BD3"/><path d="M107.572,233.484c0,55.605,31.349,103.844,77.48,127.859L246.5,232.46V89.51  C169.5,92.054,107.572,155.534,107.572,233.484z M124.554,278.382l69.221,44.743l-5.417,11.333l-54.467-35.319  C130.208,292.513,127.08,285.572,124.554,278.382z M120.646,265.093c-1.572-6.568-2.66-13.295-3.236-20.136l86.572,56.813  l-6.277,13.132L120.646,265.093z M116.928,233.83c0-0.116-0.003-0.231-0.003-0.346c0-5.491,0.328-10.937,0.974-16.313l96.699,62.387  l-6.684,13.983L116.928,233.83z M119.437,207.407c0.991-5.08,2.277-10.081,3.837-14.985l101.475,65.903l-6.22,13.013  L119.437,207.407z M126.399,183.673c1.886-4.754,4.046-9.398,6.469-13.915l102.379,66.603L228.68,250.1L126.399,183.673z   M137.116,161.932c2.868-4.575,5.874-8.993,9.305-13.233l91.079,59.159v19.571L137.116,161.932z M237.5,166.264l-64.957-42.226  c4.277-3.102,8.572-5.935,13.152-8.498l51.805,33.688V166.264z M195.145,110.8c6.395-2.948,12.872-5.389,19.673-7.299l22.682,14.804  v20.151L195.145,110.8z M237.5,107.532l-10.573-6.856c3.491-0.636,7.573-1.144,10.573-1.505V107.532z M165.008,129.928  l72.492,47.102v20.055l-84.961-55.288c0.712-0.769,1.432-1.531,2.164-2.286C157.991,136.12,161.433,132.927,165.008,129.928z   M146.806,318.286l37.621,24.395l-2.886,6.038C168.1,340.511,156.411,330.179,146.806,318.286z" fill="#579BD3"/><path d="M485,69.5c3.85,0,6.5-3.65,6.5-7.5v-1c0-3.85-2.65-6.5-6.5-6.5H260.5V38c0-3.85-2.65-6.5-6.5-6.5h-1  c-3.85,0-7.5,2.65-7.5,6.5v16.5H23c-3.85,0-7.5,2.65-7.5,6.5v1c0,3.85,3.65,7.5,7.5,7.5h16.5v323H23c-3.85,0-7.5,2.65-7.5,6.5v1  c0,3.85,3.65,7.5,7.5,7.5h225.5v45.942c-4.554,2.575-7.633,7.453-7.633,13.058c0,8.284,6.716,15,15,15c8.284,0,15-6.716,15-15  c0-5.493-2.962-10.283-7.367-12.896V407.5H485c3.85,0,6.5-3.65,6.5-7.5v-1c0-3.85-2.65-6.5-6.5-6.5h-17.5v-323H485z M452.5,392.5  h-398v-323h398V392.5z" fill="#333333"/></svg>