<?xml version="1.0" ?><!DOCTYPE svg  PUBLIC '-//W3C//DTD SVG 1.1//EN'  'http://www.w3.org/Graphics/SVG/1.1/DTD/svg11.dtd'><svg enable-background="new 0 0 512 512" height="512px" id="Layer_1" version="1.1" viewBox="0 0 512 512" width="512px" xml:space="preserve" xmlns="http://www.w3.org/2000/svg" xmlns:xlink="http://www.w3.org/1999/xlink"><g id="brand_x5F_protection"><path d="M477.364,121.945c0,0-137.018-40.85-223.743-105.695c-0.32,0.193,0.319,0.192,0,0   C166.863,81.095,29.877,121.945,29.877,121.945C61.183,388.478,219.832,477.468,253.62,493.333l0,0   C287.378,477.221,446.13,387.955,477.364,121.945z M253.581,475.998c-15.724-7.843-50.532-27.96-87.258-67.311   c-29.061-31.138-53.648-68.08-73.079-109.803c-22.861-49.088-38.622-104.99-46.911-166.333   c34.442-11.039,133.359-45.366,206.316-96.766c0.312-0.186,0.619-0.371,0.945-0.557c0.234,0.132,0.478,0.265,0.714,0.398   c72.95,51.488,171.709,85.875,206.174,96.925c-8.286,61.343-24.002,117.245-46.855,166.333   c-19.424,41.723-43.924,78.665-72.974,109.803C303.939,448.038,269.28,468.155,253.581,475.998z" fill="#333333"/><path d="M392.495,123.902L150.352,366.046c8.474,11.42,17.453,22.245,26.936,32.405   c28.749,30.803,59.134,51.631,76.332,61.382c17.154-9.796,47.388-30.765,75.953-61.382c27.972-29.981,51.704-65.612,70.461-105.901   c20.661-44.379,35.47-94.68,43.926-149.677C430.424,138.327,412.606,131.927,392.495,123.902z" fill="#579BD3"/><path d="M141.525,353.66l235.904-235.904c-39.254-16.371-84.772-38.182-123.809-64.006   c-65.229,43.205-148.559,74.994-190.642,89.123c8.459,54.997,23.195,105.298,43.863,149.677   C116.989,314.339,128.593,334.752,141.525,353.66z" fill="#333333"/></g></svg>