<?xml version="1.0" ?><!DOCTYPE svg  PUBLIC '-//W3C//DTD SVG 1.1//EN'  'http://www.w3.org/Graphics/SVG/1.1/DTD/svg11.dtd'><svg enable-background="new 0 0 512 512" height="512px" id="Layer_1" version="1.1" viewBox="0 0 512 512" width="512px" xml:space="preserve" xmlns="http://www.w3.org/2000/svg" xmlns:xlink="http://www.w3.org/1999/xlink"><g id="competitive_x5F_analysis"><path d="M491.227,225.105l-232.662,36.689L157.281,473.69c29.573,13.099,62.293,20.389,96.719,20.389   c132.039,0,239.079-107.039,239.079-239.079C493.079,244.876,492.449,234.898,491.227,225.105z M412.447,413.447   C370.124,455.77,313.854,479.078,254,479.078c-26.316,0-51.914-4.478-76.298-13.329l90.995-190.367l209.033-32.963   c0.232,4.189,0.349,8.392,0.349,12.581C478.078,314.854,454.77,371.124,412.447,413.447z" fill="#333333"/><path d="M441.46,107.278C399.033,53.364,334.5,18.143,260.5,16.031v224.155L441.46,107.278z" fill="#333333"/><path d="M282.799,242.787l206.088-32.499c-6.294-33.266-19.489-64.087-38.024-90.938L282.799,242.787z" fill="#579BD3"/><path d="M14.671,255c0,92.278,52.161,172.333,128.717,212.187L245.5,253.3V16.069   C117.5,20.291,14.671,125.639,14.671,255z M42.582,329.509l114.874,74.252l-8.99,18.807l-90.39-58.613   C51.964,352.96,46.773,341.442,42.582,329.509z M36.096,307.456c-2.608-10.899-4.415-22.063-5.371-33.416l143.669,94.283   l-10.417,21.793L36.096,307.456z M29.926,255.574c0-0.192-0.005-0.383-0.005-0.574c0-9.113,0.545-18.15,1.617-27.072   l160.476,103.533l-11.092,23.205L29.926,255.574z M34.089,211.723c1.645-8.43,3.778-16.729,6.368-24.868l168.401,109.368   l-10.323,21.596L34.089,211.723z M45.643,172.337c3.13-7.89,6.714-15.597,10.735-23.092l169.902,110.53l-10.898,22.799   L45.643,172.337z M63.669,136.256c4.759-7.592,9.869-14.925,15.562-21.961L230.5,212.472v32.479L63.669,136.256z M230.5,143.446   L122.461,73.371c7.098-5.148,14.345-9.849,21.947-14.102l86.092,55.906V143.446z M159.97,51.401   c10.613-4.893,21.482-8.943,32.769-12.113L230.5,63.855v33.442L159.97,51.401z M230.5,45.977l-17.547-11.378   c5.793-1.055,12.547-1.898,17.547-2.498V45.977z M109.956,83.145L230.5,161.313v33.282L89.263,102.842   c1.182-1.276,2.377-2.541,3.591-3.794C98.312,93.421,104.024,88.122,109.956,83.145z M79.509,395.732l62.434,40.485l-4.79,10.021   C114.847,432.615,95.449,415.468,79.509,395.732z" fill="#333333"/></g></svg>