<?xml version="1.0" ?><!DOCTYPE svg  PUBLIC '-//W3C//DTD SVG 1.1//EN'  'http://www.w3.org/Graphics/SVG/1.1/DTD/svg11.dtd'><svg enable-background="new 0 0 512 512" height="512px" id="Layer_1" version="1.1" viewBox="0 0 512 512" width="512px" xml:space="preserve" xmlns="http://www.w3.org/2000/svg" xmlns:xlink="http://www.w3.org/1999/xlink"><g id="audio_x5F_marketing"><path d="M315.015,84.967c0,0-62.876,78.464-123.742,101.181l53.838,144.319c60.873-22.697,159.7-4.791,159.7-4.791   l30.703-11.454l-89.796-240.71L315.015,84.967z" fill="#333333"/><path d="M22.92,331.154c9.712,25.011,27.728,41.285,40.64,36.468l-33.814-90.643   C16.834,281.796,13.878,305.893,22.92,331.154z" fill="#333333"/><path d="M168.344,196.415l-103.9,38.76c-16.327,6.091-24.926,22.941-18.835,39.268l31.599,84.706   c6.091,16.327,23.892,24.145,40.219,18.054l42.543-15.871l0.002,0.006c0-0.001,0.045-0.021,0.178-0.071   c22.665-8.455,47.561,2.216,57.634,23.673l0.326-0.122l10.321,27.668l25.823-9.633l-78.049-209.221   C173.234,194.116,170.813,195.494,168.344,196.415z" fill="#333333"/><path d="M469.759,163.819c1.325,3.551-0.497,7.54-4.047,8.864l-47.957,17.89c-3.551,1.325-7.54-0.497-8.864-4.047   l-0.344-0.922c-1.325-3.551,0.497-7.54,4.047-8.864l47.957-17.89c3.551-1.325,7.54,0.497,8.864,4.047L469.759,163.819z" fill="#579BD3"/><path d="M446.947,103.983c1.953,3.248,0.893,7.503-2.355,9.456l-43.868,26.373   c-3.248,1.953-7.503,0.893-9.456-2.355l-0.507-0.844c-1.953-3.248-0.893-7.503,2.355-9.456l43.868-26.373   c3.248-1.953,7.503-0.893,9.456,2.355L446.947,103.983z" fill="#579BD3"/><path d="M491.366,223.053c-0.652-3.733-4.239-6.255-7.973-5.603l-50.423,8.802   c-3.733,0.652-6.255,4.239-5.603,7.973l0.169,0.97c0.652,3.733,4.239,6.255,7.973,5.603l50.423-8.802   c3.733-0.652,6.255-4.239,5.603-7.973L491.366,223.053z" fill="#579BD3"/></g></svg>