<?xml version="1.0" ?><!DOCTYPE svg  PUBLIC '-//W3C//DTD SVG 1.1//EN'  'http://www.w3.org/Graphics/SVG/1.1/DTD/svg11.dtd'><svg enable-background="new 0 0 512 512" height="512px" id="Layer_1" version="1.1" viewBox="0 0 512 512" width="512px" xml:space="preserve" xmlns="http://www.w3.org/2000/svg" xmlns:xlink="http://www.w3.org/1999/xlink"><g id="return_x5F_investment"><rect fill="#333333" height="476" width="15" x="15.5" y="17.5"/><rect fill="#333333" height="15" width="476" x="15.5" y="248.5"/><rect fill="#333333" height="150" width="61" x="338.5" y="83.5"/><rect fill="#333333" height="201" width="62" x="414.5" y="32.5"/><rect fill="#333333" height="100" width="62" x="261.5" y="133.5"/><rect fill="#333333" height="150" width="61" x="122.5" y="277.5"/><rect fill="#333333" height="201" width="62" x="45.5" y="277.5"/><rect fill="#333333" height="100" width="62" x="198.5" y="277.5"/><polygon fill="#579BD3" points="217.5,44.5 217.5,59.5 243.888,59.5 143.45,159.688 113.203,129.316 45.697,196.76 56.303,207.334    113.203,150.42 143.45,180.659 143.476,180.579 143.238,180.615 254.5,69.102 254.5,96.5 269.5,96.5 269.5,44.5  "/></g></svg>