<?xml version="1.0" ?><!DOCTYPE svg  PUBLIC '-//W3C//DTD SVG 1.1//EN'  'http://www.w3.org/Graphics/SVG/1.1/DTD/svg11.dtd'><svg enable-background="new 0 0 512 512" height="512px" id="Layer_1" version="1.1" viewBox="0 0 512 512" width="512px" xml:space="preserve" xmlns="http://www.w3.org/2000/svg" xmlns:xlink="http://www.w3.org/1999/xlink"><g id="seo_x5F_puzzle_x5F_complex_x5F_solution"><path d="M218.75,189.088c-29.596,0-53.463-23.992-53.463-53.588s23.805-53.588,53.4-53.588   c9.849,0,19.812,2.669,26.812,7.305V17.5H46c-16.5,0-30.5,13-30.5,29.5v201.5h230v-66.717   C238.5,186.419,228.599,189.088,218.75,189.088z" fill="#579BD3"/><path d="M187.519,263.5c2.618,6,4.07,12.987,4.07,20.25c0,29.596-23.992,53.463-53.588,53.463   s-53.589-23.805-53.589-53.401c0-7.263,1.452-14.312,4.07-20.312H15.5V463c0,16.5,14,30.5,30.5,30.5h199.5v-230H187.519z" fill="#333333"/><path d="M260.5,263.5v65.687c7-2.75,13.796-4.275,21.25-4.275c29.596,0,53.713,23.992,53.713,53.588   s-24.18,53.588-53.776,53.588c-7.454,0-14.188-1.525-21.188-4.275V493.5H462c16.5,0,29.5-14,29.5-30.5V263.5H260.5z M476.5,463   c0,8.271-6.229,15.5-14.5,15.5H275.5v-31.67c2,0.172,4.236,0.258,6.25,0.258c37.819,0,68.713-30.769,68.713-68.588   s-30.957-68.588-68.776-68.588c-2.014,0-4.188,0.086-6.188,0.258V278.5h201V463z" fill="#333333"/><path d="M290.5,463.5v-1.894c42-4.504,74.588-40.057,74.588-83.106S332.5,299.897,290.5,295.394V293.5h171v170   H290.5z" fill="#579BD3"/><path d="M462,17.5H260.5v231h66.193c-2.121-6-3.281-12.248-3.281-18.75c0-29.596,23.992-53.713,53.588-53.713   s53.588,24.18,53.588,53.775c0,6.502-1.16,12.688-3.281,18.688H491.5V47C491.5,30.5,478.5,17.5,462,17.5z" fill="#333333"/></g></svg>