<?xml version="1.0" ?><!DOCTYPE svg  PUBLIC '-//W3C//DTD SVG 1.1//EN'  'http://www.w3.org/Graphics/SVG/1.1/DTD/svg11.dtd'><svg enable-background="new 0 0 512 512" height="512px" id="Layer_1" version="1.1" viewBox="0 0 512 512" width="512px" xml:space="preserve" xmlns="http://www.w3.org/2000/svg" xmlns:xlink="http://www.w3.org/1999/xlink"><g id="responsive_x5F_web_x5F_device_1_"><path d="M462,99.5h-47.025c-0.258-4-3.501-7-7.475-7s-7.216,3-7.475,7H333.5v15H462c8.271,0,14.5,6.229,14.5,14.5   v217.5h-443V129c0-8.271,7.229-14.5,15.5-14.5h82.5v-15h-21.525c-0.258-4-3.501-7-7.475-7s-7.216,3-7.475,7H49   c-16.5,0-30.5,13-30.5,29.5v252c0,16.5,14,30.5,30.5,30.5h413c16.5,0,29.5-14,29.5-30.5V129C491.5,112.5,478.5,99.5,462,99.5z    M253.089,393.592c-8.284,0-15-6.716-15-15s6.716-15,15-15c8.284,0,15,6.716,15,15S261.373,393.592,253.089,393.592z" fill="#333333"/><polygon fill="#333333" points="318.5,478.5 267.5,478.5 267.5,426.5 237.5,426.5 237.5,478.5 187.5,478.5 187.5,493.5    318.5,493.5  "/><path d="M357.5,139.5c0-5.523-4.477-10-10-10h-58c-5.523,0-10,4.477-10,10v104c0,5.523,4.477,10,10,10h58   c5.523,0,10-4.477,10-10V139.5z M342.5,231.5h-48v-87h48V231.5z" fill="#333333"/><path d="M289,17.5H177c-16.5,0-30.5,13-30.5,29.5v151c0,16.5,14,30.5,30.5,30.5h87.5v-37h-103V47   c0-8.271,7.229-14.5,15.5-14.5h112c8.271,0,14.5,6.229,14.5,14.5v67.5h15V47C318.5,30.5,305.5,17.5,289,17.5z M232.5,201   c4.142,0,7.5,3.358,7.5,7.5s-3.358,7.5-7.5,7.5s-7.5-3.358-7.5-7.5S228.358,201,232.5,201z" fill="#333333"/></g></svg>