<?xml version="1.0" ?><!DOCTYPE svg  PUBLIC '-//W3C//DTD SVG 1.1//EN'  'http://www.w3.org/Graphics/SVG/1.1/DTD/svg11.dtd'><svg enable-background="new 0 0 512 512" height="512px" id="Layer_1" version="1.1" viewBox="0 0 512 512" width="512px" xml:space="preserve" xmlns="http://www.w3.org/2000/svg" xmlns:xlink="http://www.w3.org/1999/xlink"><g id="credit_x5F_cards_x5F_payment_x5F_method"><path d="M409.5,245.5c0-16.569-13.431-30-30-30h-329c-16.569,0-30,13.431-30,30v191c0,16.569,13.431,30,30,30h329   c16.569,0,30-13.431,30-30V245.5z M256.75,256.5c11.176,0,20.976,5.871,26.5,14.693c5.524-8.822,15.324-14.693,26.5-14.693   c17.259,0,31.25,13.991,31.25,31.25S327.009,319,309.75,319c-11.176,0-20.976-5.871-26.5-14.693   c-5.524,8.822-15.324,14.693-26.5,14.693c-17.259,0-31.25-13.991-31.25-31.25S239.491,256.5,256.75,256.5z M340.5,421.5h-252v-15   h252V421.5z M341.5,389.5h-252v-15h252V389.5z" fill="#333333"/><path d="M488.466,182.343l3.06-15.926c3.113-16.204-7.597-32.008-23.8-35.122l-323.09-62.08   c-16.204-3.113-32.008,7.597-35.122,23.8l-2.767,14.398L488.466,182.343z" fill="#579BD3"/><path d="M403.465,206.78c12.766,7.95,21.035,22.106,21.035,38.22v133.305c15,0.489,27.921-9.669,30.736-24.319   l25.375-132.062L403.465,206.78z" fill="#579BD3"/><polygon fill="#579BD3" points="99.143,147.493 88.958,200.5 369.176,200.5  "/></g></svg>