<?xml version="1.0" ?><!DOCTYPE svg  PUBLIC '-//W3C//DTD SVG 1.1//EN'  'http://www.w3.org/Graphics/SVG/1.1/DTD/svg11.dtd'><svg enable-background="new 0 0 512 512" height="512px" id="Layer_1" version="1.1" viewBox="0 0 512 512" width="512px" xml:space="preserve" xmlns="http://www.w3.org/2000/svg" xmlns:xlink="http://www.w3.org/1999/xlink"><g id="profit"><path d="M462,64.5H49c-16.5,0-30.5,13-30.5,29.5v252c0,16.5,14,30.5,30.5,30.5h413c16.5,0,29.5-14,29.5-30.5V94   C491.5,77.5,478.5,64.5,462,64.5z M253.089,358.592c-8.284,0-15-6.716-15-15s6.716-15,15-15c8.284,0,15,6.716,15,15   S261.373,358.592,253.089,358.592z M476.5,311.5h-443V94c0-8.271,7.229-14.5,15.5-14.5h413c8.271,0,14.5,6.229,14.5,14.5V311.5z" fill="#333333"/><polygon fill="#333333" points="318.5,443.5 267.5,443.5 267.5,391.5 237.5,391.5 237.5,443.5 187.5,443.5 187.5,458.5    318.5,458.5  "/></g><rect fill="#579BD3" height="85" width="30" x="58.5" y="211.5"/><rect fill="#579BD3" height="127" width="30" x="103.5" y="169.5"/><rect fill="#579BD3" height="109" width="30" x="148.5" y="187.5"/><rect fill="#579BD3" height="177" width="30" x="193.5" y="119.5"/><rect fill="#579BD3" height="85" width="30" x="238.5" y="211.5"/><rect fill="#579BD3" height="99" width="30" x="283.5" y="197.5"/><rect fill="#579BD3" height="71" width="30" x="328.5" y="225.5"/><rect fill="#579BD3" height="71" width="30" x="417.5" y="225.5"/><rect fill="#579BD3" height="177" width="30" x="373.5" y="119.5"/></svg>