<?xml version="1.0" ?><!DOCTYPE svg  PUBLIC '-//W3C//DTD SVG 1.1//EN'  'http://www.w3.org/Graphics/SVG/1.1/DTD/svg11.dtd'><svg enable-background="new 0 0 512 512" height="512px" id="Layer_1" version="1.1" viewBox="0 0 512 512" width="512px" xml:space="preserve" xmlns="http://www.w3.org/2000/svg" xmlns:xlink="http://www.w3.org/1999/xlink"><g id="folders_x5F_files"><path d="M330.5,63.589c0-15.513-12.576-28.089-28.089-28.089h-92.822c-15.513,0-28.089,12.576-28.089,28.089   v384.822c0,15.513,12.576,28.089,28.089,28.089h92.822c15.513,0,28.089-12.576,28.089-28.089V63.589z M255.5,442.761   c-33.353,0-60.392-27.039-60.392-60.392s27.039-60.392,60.392-60.392s60.392,27.039,60.392,60.392S288.853,442.761,255.5,442.761z    M316.5,279.455c0,7.757-6.288,14.045-14.045,14.045h-92.911c-7.757,0-14.045-6.288-14.045-14.045V63.545   c0-7.757,6.288-14.045,14.045-14.045h92.911c7.757,0,14.045,6.288,14.045,14.045V279.455z" fill="#333333"/><rect fill="#333333" height="14" width="92" x="209.5" y="265.5"/><rect fill="#333333" height="14" width="92" x="209.5" y="237.5"/><rect fill="#333333" height="14" width="92" x="209.5" y="209.5"/><rect fill="#579BD3" height="63" width="64" x="223.5" y="77.5"/><path d="M255.5,428.717c-25.556,0-46.347-20.792-46.347-46.347c0-25.556,20.792-46.347,46.347-46.347   s46.347,20.792,46.347,46.347C301.847,407.925,281.056,428.717,255.5,428.717z" fill="#579BD3"/></g><g id="folders_x5F_files_1_"><path d="M492.5,63.589c0-15.513-12.576-28.089-28.089-28.089h-92.822c-15.513,0-28.089,12.576-28.089,28.089   v384.822c0,15.513,12.576,28.089,28.089,28.089h92.822c15.513,0,28.089-12.576,28.089-28.089V63.589z M418.417,442.761   c-33.353,0-60.392-27.039-60.392-60.392s27.039-60.392,60.392-60.392s60.392,27.039,60.392,60.392S451.77,442.761,418.417,442.761z    M479.5,279.455c0,7.757-6.288,14.045-14.045,14.045h-92.911c-7.757,0-14.045-6.288-14.045-14.045V63.545   c0-7.757,6.288-14.045,14.045-14.045h92.911c7.757,0,14.045,6.288,14.045,14.045V279.455z" fill="#333333"/><rect fill="#333333" height="14" width="92" x="372.5" y="265.5"/><rect fill="#333333" height="14" width="92" x="372.5" y="237.5"/><rect fill="#333333" height="14" width="92" x="372.5" y="209.5"/><rect fill="#579BD3" height="63" width="64" x="386.5" y="77.5"/><path d="M418.417,428.717c-25.556,0-46.347-20.792-46.347-46.347c0-25.556,20.792-46.347,46.347-46.347   c25.556,0,46.347,20.792,46.347,46.347C464.764,407.925,443.973,428.717,418.417,428.717z" fill="#579BD3"/></g><g id="folders_x5F_files_2_"><path d="M167.5,63.589c0-15.513-12.576-28.089-28.089-28.089H46.589C31.076,35.5,18.5,48.076,18.5,63.589v384.822   c0,15.513,12.576,28.089,28.089,28.089h92.822c15.513,0,28.089-12.576,28.089-28.089V63.589z M92.583,442.761   c-33.353,0-60.392-27.039-60.392-60.392s27.039-60.392,60.392-60.392s60.392,27.039,60.392,60.392S125.936,442.761,92.583,442.761z    M153.5,279.455c0,7.757-6.288,14.045-14.045,14.045H46.545c-7.757,0-14.045-6.288-14.045-14.045V63.545   c0-7.757,6.288-14.045,14.045-14.045h92.911c7.757,0,14.045,6.288,14.045,14.045V279.455z" fill="#333333"/><rect fill="#333333" height="14" width="92" x="46.5" y="265.5"/><rect fill="#333333" height="14" width="92" x="46.5" y="237.5"/><rect fill="#333333" height="14" width="92" x="46.5" y="209.5"/><rect fill="#579BD3" height="63" width="64" x="60.5" y="77.5"/><path d="M92.583,428.717c-25.556,0-46.347-20.792-46.347-46.347c0-25.556,20.792-46.347,46.347-46.347   s46.347,20.792,46.347,46.347C138.93,407.925,118.138,428.717,92.583,428.717z" fill="#579BD3"/></g></svg>