<?xml version="1.0" ?><!DOCTYPE svg  PUBLIC '-//W3C//DTD SVG 1.1//EN'  'http://www.w3.org/Graphics/SVG/1.1/DTD/svg11.dtd'><svg enable-background="new 0 0 512 512" height="512px" id="Layer_1" version="1.1" viewBox="0 0 512 512" width="512px" xml:space="preserve" xmlns="http://www.w3.org/2000/svg" xmlns:xlink="http://www.w3.org/1999/xlink"><g id="support_x5F_specialist_1_"><g><path d="M103.994,303.585c7.797,3.613,14.45,9.444,19.012,16.813c32.196-2.563,61.081-17.866,89.664-47.485    c-6.026-11.846-9.17-24.922-9.17-38.412c0-42.921,31.974-78.514,73.356-84.206L303.119,27.54    c-23.994-0.125-46.043,3.615-61.653,8.062c-49.497,14.102-105.421,77.788-139.43,176.991    c-7.502,21.883-16.468,61.497-16.468,61.497l22.382-1.721C107.95,272.369,105.66,285.791,103.994,303.585z" fill="#333333"/><path d="M451.331,170.595c-4.25-74.666-38.539-112.546-79.569-130.02L344.04,170.156    c18.61,16.054,29.461,39.43,29.461,64.345c0,46.869-38.131,85-85,85c-14.64,0-28.645-3.637-41.163-10.613    c-38.824,39.582-80.587,59.854-127.146,61.745c-3.066,3.897-6.76,7.227-10.889,9.876c0.013,0.025,0.025,0.052,0.038,0.077    c14.999,28.499,60.16,23.999,60.16,23.999V493.5h178V370.085C347.5,370.085,459.229,309.341,451.331,170.595z" fill="#333333"/></g><path d="M327.387,176.294L360.676,20.69c-13.558-4.064-26.947-6.262-39.187-7.318l-32.335,151.144   c-0.219-0.002-0.434-0.017-0.654-0.017c-38.66,0-70,31.34-70,70c0,15.029,4.752,28.941,12.814,40.346   c-36.728,41.31-74.362,60.817-117.792,60.939c-3.379-12.27-14.61-21.285-27.954-21.285c-16.016,0-29,12.984-29,29s12.984,29,29,29   c11.631,0,21.658-6.851,26.279-16.734c0.371,0.003,0.745,0.012,1.116,0.012c48.808,0,91.713-21.597,132.121-66.389   c11.934,9.453,27.01,15.112,43.416,15.112c38.66,0,70-31.34,70-70C358.5,210.231,346.146,188.851,327.387,176.294z" fill="#579BD3"/></g></svg>