<?xml version="1.0" ?><!DOCTYPE svg  PUBLIC '-//W3C//DTD SVG 1.1//EN'  'http://www.w3.org/Graphics/SVG/1.1/DTD/svg11.dtd'><svg enable-background="new 0 0 512 512" height="512px" id="Layer_1" version="1.1" viewBox="0 0 512 512" width="512px" xml:space="preserve" xmlns="http://www.w3.org/2000/svg" xmlns:xlink="http://www.w3.org/1999/xlink"><g id="mobile_x5F_ads"><path d="M334.129,225.5H323.5v58h8.675c18.237,0,27.356-9.725,27.356-29.305   C359.531,235.021,351.064,225.5,334.129,225.5z" fill="#579BD3"/><path d="M250.78,223.355c-1.343,5.211-5.19,18.145-11.541,39.145h23.265c-5.984-20-9.353-30.39-10.106-32.915   C251.645,227.062,251.106,224.82,250.78,223.355z" fill="#579BD3"/><path d="M390.5,369.5V420c0,8.271-6.229,15.5-14.5,15.5H133c-8.271,0-15.5-7.229-15.5-15.5V84   c0-8.271,7.229-14.5,15.5-14.5h243c8.271,0,14.5,6.229,14.5,14.5v61.5h15V47c0-16.5-13-29.5-29.5-29.5H133   c-16.5,0-30.5,13-30.5,29.5v416c0,16.5,14,30.5,30.5,30.5h243c16.5,0,29.5-14,29.5-30.5v-93.5H390.5z M293.5,44.5   c0,3.866-3.134,7-7,7h-66c-3.866,0-7-3.134-7-7v-1c0-3.866,3.134-7,7-7h66c3.866,0,7,3.134,7,7V44.5z M254,480   c-8.284,0-15-6.716-15-15s6.716-15,15-15s15,6.716,15,15S262.284,480,254,480z" fill="#333333"/><path d="M476.5,190.5c0-16.569-13.431-30-30-30h-236c-16.569,0-30,13.431-30,30v134c0,16.569,13.431,30,30,30h236   c16.569,0,30-13.431,30-30V190.5z M273.495,299.5l-6.473-22h-32.546l-6.473,22h-20.395l31.508-90h23.142l31.63,90H273.495z    M366.645,287.346c-8.365,7.816-20.445,12.154-36.24,12.154H304.5v-90h28.652c14.573,0,25.89,3.78,33.95,11.474   c8.06,7.694,12.09,18.623,12.09,32.423C379.193,268.092,375.01,279.53,366.645,287.346z M441.689,292.9   c-5.801,4.641-14.221,6.961-24.56,6.961c-9.526,0-17.629-1.791-25.629-5.373v-17.586c6,2.687,11.473,4.58,15.645,5.679   s8.164,1.649,11.624,1.649c4.152,0,7.424-0.794,9.643-2.381c2.219-1.588,3.371-3.948,3.371-7.083c0-1.75-0.466-3.307-1.443-4.671   c-0.977-1.364-2.401-2.677-4.294-3.938s-5.744-3.276-11.566-6.045c-5.455-2.565-9.543-5.027-12.271-7.388   c-2.727-2.36-4.904-5.108-6.532-8.243s-2.441-6.798-2.441-10.991c0-7.897,2.677-14.105,8.03-18.624   c5.353-4.519,12.752-6.778,22.196-6.778c4.641,0,9.068,0.55,13.281,1.649s8.62,2.647,13.22,4.641l-6.106,14.716   c-4.763-1.954-8.701-3.318-11.815-4.091c-3.114-0.773-6.177-1.16-9.19-1.16c-3.582,0-6.33,0.834-8.243,2.504   c-1.913,1.67-2.87,3.847-2.87,6.534c0,1.67,0.387,3.124,1.16,4.366s2.005,2.443,3.694,3.603s5.689,3.246,11.999,6.259   c8.345,3.99,14.065,7.99,17.158,11.999c3.094,4.01,4.641,8.925,4.641,14.746C450.391,281.909,447.49,288.259,441.689,292.9z" fill="#579BD3"/></g></svg>