<?xml version="1.0" ?><!DOCTYPE svg  PUBLIC '-//W3C//DTD SVG 1.1//EN'  'http://www.w3.org/Graphics/SVG/1.1/DTD/svg11.dtd'><svg enable-background="new 0 0 512 512" height="512px" id="Layer_1" version="1.1" viewBox="0 0 512 512" width="512px" xml:space="preserve" xmlns="http://www.w3.org/2000/svg" xmlns:xlink="http://www.w3.org/1999/xlink"><g id="anchor"><path d="M426.931,423.031l-83.763-21.993l8.045,29.43c-69.936,26.249-151.264,13.604-210.205-37.956l177.15-177.15   l-21.213-21.213L119.899,371.193c-50.44-58.792-62.662-139.285-36.678-208.605l29.583,8.086L90.811,86.911l-61.545,60.928   l24.849,6.792c-30.496,84.153-12.028,182.053,55.446,249.527c67.496,67.496,165.437,85.954,249.608,55.417l6.834,25   L426.931,423.031z" fill="#333333"/><path d="M351.538,139.555l-12.167,12.167l21.213,21.213l12.167-12.167c23.036,13.59,53.263,10.501,73.031-9.267   c23.428-23.428,23.429-61.549,0-84.977s-61.549-23.428-84.978,0C341.037,86.291,337.948,116.518,351.538,139.555z M424.569,87.737   c11.731,11.731,11.731,30.82,0,42.551s-30.82,11.732-42.551,0s-11.731-30.82,0-42.551S412.838,76.005,424.569,87.737z" fill="#333333"/><rect fill="#579BD3" height="30" transform="matrix(0.7071 0.7071 -0.7071 0.7071 226.7834 -179.0063)" width="148" x="255.471" y="169.249"/></g></svg>