<?xml version="1.0" ?><!DOCTYPE svg  PUBLIC '-//W3C//DTD SVG 1.1//EN'  'http://www.w3.org/Graphics/SVG/1.1/DTD/svg11.dtd'><svg enable-background="new 0 0 512 512" height="512px" id="Layer_1" version="1.1" viewBox="0 0 512 512" width="512px" xml:space="preserve" xmlns="http://www.w3.org/2000/svg" xmlns:xlink="http://www.w3.org/1999/xlink"><g id="website_x5F_optimization"><path d="M464,48.5h-1.5V47c0-16.5-13-29.5-29.5-29.5h-87c-16.5,0-30.5,13-30.5,29.5v1.5H47   c-16.5,0-30.5,13-30.5,29.5v289c0,16.5,14,30.5,30.5,30.5h87.462c-0.276-3-0.531-6.515-0.547-10.22   c-0.007-1.64,0.032-3.78,0.097-4.78H47c-8.271,0-15.5-7.229-15.5-15.5V128.5h447V367c0,8.271-6.229,15.5-14.5,15.5h-87.005   c0.05,1,0.084,2.441,0.09,3.7c0.018,4.182-0.268,7.3-0.554,11.3H464c16.5,0,29.5-14,29.5-30.5V78C493.5,61.5,480.5,48.5,464,48.5z    M346.5,104c-8.284,0-15-6.716-15-15s6.716-15,15-15s15,6.716,15,15S354.784,104,346.5,104z M391.5,104c-8.284,0-15-6.716-15-15   s6.716-15,15-15s15,6.716,15,15S399.784,104,391.5,104z M436.5,104c-8.284,0-15-6.716-15-15s6.716-15,15-15s15,6.716,15,15   S444.784,104,436.5,104z" fill="#333333"/><path d="M332.66,346.543c-1.69-3.286-0.944-8.121,1.657-10.745l4.635-4.676c2.601-2.624,2.798-7.097,0.438-9.94   l-19.071-19.014c-2.85-2.351-7.31-2.127-9.911,0.497l-4.614,4.656c-2.601,2.624-7.42,3.394-10.709,1.711l-13.414-5.494   c-3.517-1.133-6.408-5.082-6.424-8.777l-0.029-6.566c-0.016-3.695-3.024-7.135-6.683-7.646c0,0-6.617-0.924-13.508-0.893   c-6.891,0.031-13.5,1.013-13.5,1.013c-3.655,0.543-6.631,4.01-6.615,7.705l0.029,6.566c0.016,3.695-2.839,7.67-6.346,8.834   l-13.364,5.613c-3.274,1.712-8.1,0.985-10.724-1.616l-4.656-4.614c-2.624-2.601-7.086-2.785-9.915-0.409l-18.901,19.183   c-2.335,2.864-2.098,7.335,0.526,9.936l4.676,4.635c2.624,2.601,3.413,7.429,1.752,10.73l-5.338,13.276   c-1.112,3.523-5.045,6.42-8.739,6.436l-6.542,0.029c-3.695,0.016-7.125,3.025-7.624,6.686c0,0-0.861,6.324-0.831,13.057   c0.031,7.048,1.08,13.95,1.08,13.95c0.555,3.653,4.032,6.628,7.726,6.612l6.589-0.029c3.695-0.016,7.681,2.836,8.858,6.338   l5.47,12.929c1.716,3.272,0.992,8.096-1.609,10.72l-4.614,4.656c-2.601,2.624-2.785,7.086-0.409,9.915l19.183,18.901   c2.864,2.335,7.335,2.098,9.936-0.526l4.635-4.676c2.601-2.624,7.428-3.41,10.727-1.746l12.839,5.201   c3.519,1.125,6.412,5.068,6.428,8.763l0.029,6.566c0.016,3.695,3.024,7.135,6.683,7.646c0,0,6.617,0.924,13.508,0.893   s13.5-1.013,13.5-1.013c3.655-0.543,6.631-4.01,6.615-7.705l-0.029-6.566c-0.016-3.695,2.841-7.664,6.35-8.82l12.792-5.315   c3.284-1.693,8.118-0.95,10.742,1.651l4.676,4.635c2.624,2.601,7.097,2.798,9.94,0.438l19.014-19.071   c2.351-2.85,2.127-7.31-0.497-9.911l-4.656-4.614c-2.624-2.601-3.391-7.418-1.704-10.705l5.355-12.977   c1.146-3.512,5.107-6.4,8.801-6.416l6.589-0.029c3.695-0.016,7.145-3.022,7.667-6.68c0,0,0.987-6.911,0.956-13.959   c-0.03-6.733-0.947-13.049-0.947-13.049c-0.531-3.656-3.988-6.634-7.683-6.618l-6.542,0.029c-3.695,0.016-7.653-2.845-8.796-6.358   L332.66,346.543z M255.755,443.6c-31.628,0.14-57.474-25.477-57.615-57.105c-0.14-31.628,25.477-57.474,57.105-57.615   c31.628-0.14,57.474,25.477,57.615,57.105C313,417.614,287.383,443.46,255.755,443.6z" fill="#579BD3"/></g></svg>