<?xml version="1.0" ?><!DOCTYPE svg  PUBLIC '-//W3C//DTD SVG 1.1//EN'  'http://www.w3.org/Graphics/SVG/1.1/DTD/svg11.dtd'><svg enable-background="new 0 0 512 512" height="512px" id="Layer_1" version="1.1" viewBox="0 0 512 512" width="512px" xml:space="preserve" xmlns="http://www.w3.org/2000/svg" xmlns:xlink="http://www.w3.org/1999/xlink"><g id="calendar_x5F_time_x5F_management"><path d="M121.25,131.002c-3.85,0.015-7.012-3.123-7.027-6.973l-0.196-51c-0.015-3.85,3.123-7.012,6.973-7.027   l1-0.004c3.85-0.015,7.012,3.123,7.027,6.973l0.196,51c0.015,3.85-3.123,7.012-6.973,7.027L121.25,131.002z" fill="#333333"/><path d="M215.208,131.002c-3.85,0.015-7.012-3.123-7.027-6.973l-0.196-51c-0.015-3.85,3.123-7.012,6.973-7.027   l1-0.004c3.85-0.015,7.012,3.123,7.027,6.973l0.196,51c0.015,3.85-3.123,7.012-6.973,7.027L215.208,131.002z" fill="#333333"/><path d="M308.542,131.002c-3.85,0.015-7.012-3.123-7.027-6.973l-0.196-51c-0.015-3.85,3.123-7.012,6.973-7.027   l1-0.004c3.85-0.015,7.012,3.123,7.027,6.973l0.196,51c0.015,3.85-3.123,7.012-6.973,7.027L308.542,131.002z" fill="#333333"/><path d="M464.5,93.5h-39.271l0.118,30.664c0.023,5.867-2.245,11.274-6.39,15.45   c-4.144,4.175-9.657,6.424-15.526,6.447l-1.083-0.027c-12.082,0-21.952-9.596-22.001-21.678L380.229,93.5h-48.833l0.119,30.664   c0.046,12.131-9.785,21.913-21.916,21.959l-1.083-0.059c-12.086,0-21.955-9.613-22.001-21.697l-0.12-30.867h-48.332l0.119,30.664   c0.046,12.131-9.786,21.913-21.916,21.959l-1.084-0.059c-12.085,0-21.954-9.613-22-21.697l-0.12-30.867h-48.958l0.119,30.664   c0.022,5.869-2.247,11.275-6.39,15.45s-9.657,6.424-15.526,6.447l-1.084-0.027c-12.085,0-21.954-9.598-22-21.682L99.104,93.5H48.5   c-16.5,0-31,12.5-31,29v292c0,16.5,14.5,31,31,31h416c16.5,0,29-14.5,29-31v-292C493.5,106,481,93.5,464.5,93.5z M478.5,414.5   c0,8.271-5.729,16-14,16h-416c-8.271,0-16-7.729-16-16v-234h446V414.5z" fill="#333333"/><path d="M402.375,131.002c-3.85,0.015-7.012-3.123-7.027-6.973l-0.196-51c-0.015-3.85,3.123-7.012,6.973-7.027   l1-0.004c3.85-0.015,7.012,3.123,7.027,6.973l0.196,51c0.015,3.85-3.123,7.012-6.973,7.027L402.375,131.002z" fill="#333333"/><g><rect fill="#333333" height="44" width="47" x="170.5" y="195.5"/><rect fill="#333333" height="44" width="47" x="169.5" y="370.5"/><rect fill="#333333" height="43" width="47" x="170.5" y="313.5"/><rect fill="#333333" height="44" width="47" x="169.5" y="253.5"/><rect fill="#333333" height="44" width="47" x="416.5" y="195.5"/><rect fill="#333333" height="43" width="47" x="416.5" y="313.5"/><rect fill="#333333" height="44" width="47" x="415.5" y="253.5"/><rect fill="#333333" height="44" width="46" x="108.5" y="194.5"/><rect fill="#333333" height="44" width="46" x="109.5" y="371.5"/><rect fill="#333333" height="44" width="46" x="109.5" y="254.5"/><rect fill="#333333" height="43" width="46" x="108.5" y="312.5"/><rect fill="#333333" height="44" width="46" x="232.5" y="371.5"/><rect fill="#333333" height="44" width="46" x="231.5" y="194.5"/><rect fill="#333333" height="44" width="46" x="232.5" y="254.5"/><rect fill="#333333" height="43" width="46" x="231.5" y="312.5"/><rect fill="#333333" height="44" width="46" x="355.5" y="371.5"/><rect fill="#333333" height="44" width="46" x="355.5" y="254.5"/><rect fill="#333333" height="44" width="46" x="354.5" y="194.5"/><rect fill="#333333" height="43" width="46" x="354.5" y="312.5"/><rect fill="#333333" height="44" width="47" x="293.5" y="195.5"/><rect fill="#333333" height="44" width="47" x="292.5" y="370.5"/><rect fill="#579BD3" height="44" width="47" x="292.5" y="253.5"/><rect fill="#333333" height="43" width="47" x="293.5" y="313.5"/><rect fill="#333333" height="44" width="47" x="46.5" y="370.5"/><rect fill="#333333" height="44" width="47" x="47.5" y="195.5"/><rect fill="#333333" height="44" width="47" x="47.5" y="254.5"/><rect fill="#333333" height="43" width="47" x="47.5" y="313.5"/></g></g></svg>