<?xml version="1.0" ?><!DOCTYPE svg  PUBLIC '-//W3C//DTD SVG 1.1//EN'  'http://www.w3.org/Graphics/SVG/1.1/DTD/svg11.dtd'><svg enable-background="new 0 0 512 512" height="512px" id="Layer_1" version="1.1" viewBox="0 0 512 512" width="512px" xml:space="preserve" xmlns="http://www.w3.org/2000/svg" xmlns:xlink="http://www.w3.org/1999/xlink"><g id="pay_x5F_per_x5F_click"><path d="M254,16.922C121.961,16.922,14.922,123.961,14.922,256S121.961,495.078,254,495.078   S493.078,388.039,493.078,256S386.039,16.922,254,16.922z M477.94,248.5h-45.029C429.081,155.566,354.434,80.919,261.5,77.089   V32.06c57.041,1.864,110.397,24.943,150.947,65.493C452.997,138.102,476.077,191.459,477.94,248.5z M328.078,256   c0,2.531-0.129,5.033-0.378,7.5h30.105c-3.68,51.423-44.882,92.625-96.305,96.305V329.7c-2.467,0.249-4.969,0.378-7.5,0.378   s-5.033-0.129-7.5-0.378v30.105c-51.423-3.68-92.625-44.882-96.305-96.305H180.3c-0.249-2.467-0.378-4.969-0.378-7.5   s0.129-5.033,0.378-7.5h-30.105c3.68-51.423,44.882-92.625,96.305-96.305V182.3c2.467-0.249,4.969-0.378,7.5-0.378   s5.033,0.129,7.5,0.378v-30.105c51.423,3.68,92.625,44.882,96.305,96.305H327.7C327.949,250.967,328.078,253.469,328.078,256z    M246.5,137.165c-59.788,3.717-107.618,51.547-111.335,111.335H90.099C93.922,163.982,161.982,95.922,246.5,92.099V137.165z    M135.165,263.5c3.717,59.788,51.547,107.618,111.335,111.335v45.066C161.982,416.078,93.922,348.018,90.099,263.5H135.165z    M261.5,374.835c59.788-3.717,107.618-51.547,111.335-111.335h45.066c-3.822,84.518-71.882,152.578-156.401,156.401V374.835z    M372.835,248.5c-3.717-59.788-51.547-107.618-111.335-111.335V92.099c84.518,3.822,152.578,71.882,156.401,156.401H372.835z    M95.553,97.553c40.55-40.55,93.906-63.629,150.947-65.493v45.029C153.566,80.919,78.919,155.566,75.089,248.5H30.06   C31.923,191.459,55.003,138.102,95.553,97.553z M30.06,263.5h45.029c3.831,92.934,78.477,167.581,171.411,171.411v45.029   c-57.041-1.864-110.398-24.944-150.947-65.493C55.003,373.897,31.923,320.541,30.06,263.5z M412.447,414.447   c-40.55,40.549-93.906,63.629-150.947,65.493v-45.029c92.934-3.831,167.581-78.477,171.411-171.411h45.029   C476.077,320.541,452.997,373.897,412.447,414.447z" fill="#333333"/><circle cx="254" cy="256" fill="#579BD3" r="59.078"/></g></svg>