<?xml version="1.0" ?><!DOCTYPE svg  PUBLIC '-//W3C//DTD SVG 1.1//EN'  'http://www.w3.org/Graphics/SVG/1.1/DTD/svg11.dtd'><svg enable-background="new 0 0 512 512" height="512px" id="Layer_1" version="1.1" viewBox="0 0 512 512" width="512px" xml:space="preserve" xmlns="http://www.w3.org/2000/svg" xmlns:xlink="http://www.w3.org/1999/xlink"><g id="page_x5F_speed_1_"><path d="M462,73.5h-1.5v-1.72c0-16.5-13-29.28-29.5-29.28h-87c-16.5,0-30.5,12.78-30.5,29.28v1.72H45   c-16.5,0-30.5,12.78-30.5,29.28V434c0,16.5,14,30.5,30.5,30.5h417c16.5,0,29.5-14,29.5-30.5V102.78   C491.5,86.28,478.5,73.5,462,73.5z M431.5,99.5c8.284,0,15,6.716,15,15s-6.716,15-15,15s-15-6.716-15-15S423.216,99.5,431.5,99.5z    M389.824,99.5c8.284,0,15,6.716,15,15s-6.716,15-15,15s-15-6.716-15-15S381.54,99.5,389.824,99.5z M344.824,99.5   c8.284,0,15,6.716,15,15s-6.716,15-15,15s-15-6.716-15-15S336.54,99.5,344.824,99.5z M476.5,434c0,8.271-6.229,15.5-14.5,15.5H45   c-8.271,0-15.5-7.229-15.5-15.5V153.5h447V434z" fill="#333333"/><path d="M253.5,252.5c-100.516,0-182,81-182,182H82c0-83,66.71-149,149-149s149,66,149,149h55.5   C435.5,333.5,354.016,252.5,253.5,252.5z" fill="#579BD3"/><path d="M253.5,404c-0.883,0-1.744,0.091-2.586,0.238l-46.67-55.69c-2.473-2.951-6.91-3.342-9.861-0.869   l-0.767,0.643c-2.951,2.473-3.342,6.91-0.869,9.861l46.671,55.691c-0.583,1.602-0.918,3.323-0.918,5.127c0,8.284,6.716,15,15,15   s15-6.716,15-15C268.5,410.716,261.784,404,253.5,404z" fill="#579BD3"/><path d="M196.688,233.5l-3.29-15.03l-4.438-18.97h-0.268l-7.803,34h-12.547l-12.165-43h11.629l4.935,18.948   c0.791,3.392,1.594,8.052,2.41,14.052h0.229c0.102-2,0.548-5.158,1.339-9.365l0.612-3.192l5.279-20.443h12.853l5.011,20.37   c0.102,0.562,0.261,1.324,0.478,2.42c0.216,1.097,0.427,2.23,0.631,3.467s0.389,2.578,0.555,3.764   c0.166,1.186,0.261,1.98,0.287,2.98h0.23c0.229-2,0.637-4.5,1.224-7.701c0.586-3.2,1.007-5.301,1.262-6.424l5.126-18.875h11.438   l-12.317,43H196.688z" fill="#579BD3"/><path d="M263.746,233.5l-3.29-15.03l-4.437-18.97h-0.268l-7.804,34H235.4l-12.165-43h11.629l4.935,18.948   c0.791,3.392,1.594,8.052,2.41,14.052h0.229c0.102-2,0.548-5.158,1.339-9.365l0.612-3.192l5.279-20.443h12.854l5.011,20.37   c0.102,0.562,0.261,1.324,0.479,2.42c0.216,1.097,0.427,2.23,0.631,3.467s0.389,2.578,0.555,3.764   c0.165,1.186,0.261,1.98,0.287,2.98h0.229c0.229-2,0.637-4.5,1.224-7.701c0.587-3.2,1.008-5.301,1.263-6.424l5.126-18.875h11.438   l-12.319,43H263.746z" fill="#579BD3"/><path d="M330.805,233.5l-3.29-15.03l-4.438-18.97h-0.268l-7.803,34h-12.547l-12.165-43h11.63l4.935,18.948   c0.79,3.392,1.593,8.052,2.409,14.052h0.23c0.102-2,0.548-5.158,1.339-9.365l0.611-3.192l5.279-20.443h12.854l5.011,20.37   c0.102,0.562,0.261,1.324,0.479,2.42c0.216,1.097,0.427,2.23,0.631,3.467s0.389,2.578,0.555,3.764   c0.165,1.186,0.261,1.98,0.287,2.98h0.229c0.229-2,0.637-4.5,1.224-7.701c0.587-3.2,1.008-5.301,1.263-6.424l5.126-18.875h11.438   l-12.319,43H330.805z" fill="#579BD3"/></g></svg>