<?xml version="1.0" ?><!DOCTYPE svg  PUBLIC '-//W3C//DTD SVG 1.1//EN'  'http://www.w3.org/Graphics/SVG/1.1/DTD/svg11.dtd'><svg enable-background="new 0 0 512 512" height="512px" id="Layer_1" version="1.1" viewBox="0 0 512 512" width="512px" xml:space="preserve" xmlns="http://www.w3.org/2000/svg" xmlns:xlink="http://www.w3.org/1999/xlink"><g id="mobile_x5F_marketing"><path d="M349.517,135.958c0,0-40.204,50.172-79.123,64.697l34.425,92.281   c38.923-14.513,102.115-3.064,102.115-3.064l19.632-7.324l-57.417-153.914L349.517,135.958z" fill="#579BD3"/><path d="M162.745,293.375c6.21,15.992,17.73,26.398,25.986,23.318l-21.621-57.959   C158.854,261.814,156.964,277.223,162.745,293.375z" fill="#579BD3"/><path d="M255.732,207.22l-66.435,24.784c-10.44,3.895-15.938,14.669-12.043,25.109l20.205,54.162   c3.895,10.44,15.277,15.438,25.717,11.544l27.203-10.148l0.001,0.004c0-0.001,0.029-0.013,0.114-0.045   c14.493-5.406,30.412,1.417,36.853,15.137l0.208-0.078l6.6,17.691l16.512-6.16l-49.906-133.78   C258.859,205.75,257.311,206.631,255.732,207.22z" fill="#579BD3"/><path d="M448.463,186.377c0.847,2.27-0.318,4.821-2.588,5.668l-30.665,11.439c-2.27,0.847-4.821-0.318-5.668-2.588   l-0.22-0.59c-0.847-2.27,0.318-4.821,2.588-5.668l30.665-11.439c2.27-0.847,4.821,0.318,5.668,2.588L448.463,186.377z" fill="#579BD3"/><path d="M433.876,148.117c1.249,2.077,0.571,4.798-1.506,6.046l-28.05,16.864c-2.077,1.249-4.798,0.571-6.046-1.506   l-0.324-0.539c-1.249-2.077-0.571-4.798,1.506-6.046l28.05-16.864c2.077-1.249,4.798-0.571,6.046,1.506L433.876,148.117z" fill="#579BD3"/><path d="M403.76,304.632c-0.103-0.018-4.26-0.926-13.26-1.876V420c0,8.271-6.229,15.5-14.5,15.5H133   c-8.271,0-15.5-7.229-15.5-15.5V84c0-8.271,7.229-14.5,15.5-14.5h243c8.271,0,14.5,6.229,14.5,14.5v60.291l1.897,5.085   l13.103-7.877V47c0-16.5-13-29.5-29.5-29.5H133c-16.5,0-30.5,13-30.5,29.5v416c0,16.5,14,30.5,30.5,30.5h243   c16.5,0,29.5-14,29.5-30.5V304.947L403.76,304.632z M293.5,44.5c0,3.866-3.134,7-7,7h-66c-3.866,0-7-3.134-7-7v-1   c0-3.866,3.134-7,7-7h66c3.866,0,7,3.134,7,7V44.5z M254,480c-8.284,0-15-6.716-15-15s6.716-15,15-15s15,6.716,15,15   S262.284,480,254,480z" fill="#333333"/><path d="M462.279,224.253c-0.417-2.387-2.711-3.999-5.098-3.583l-32.242,5.628   c-2.387,0.417-3.999,2.711-3.583,5.098l0.108,0.62c0.417,2.387,2.711,3.999,5.098,3.583l32.242-5.628   c2.387-0.417,3.999-2.711,3.583-5.098L462.279,224.253z" fill="#579BD3"/></g></svg>