<?xml version="1.0" ?><!DOCTYPE svg  PUBLIC '-//W3C//DTD SVG 1.1//EN'  'http://www.w3.org/Graphics/SVG/1.1/DTD/svg11.dtd'><svg enable-background="new 0 0 512 512" height="512px" id="Layer_1" version="1.1" viewBox="0 0 512 512" width="512px" xml:space="preserve" xmlns="http://www.w3.org/2000/svg" xmlns:xlink="http://www.w3.org/1999/xlink"><g id="seo_x5F_successful_x5F_planning"><rect fill="#333333" height="15" width="202" x="152.5" y="238.5"/><rect fill="#333333" height="15" width="202" x="152.5" y="177.5"/><rect fill="#333333" height="63" width="172" x="167.5" y="55.5"/><path d="M320.5,47.5c0-16.569-13.431-30-30-30h-74c-16.569,0-30,13.431-30,30v18c0,16.569,13.431,30,30,30h74   c16.569,0,30-13.431,30-30V47.5z M305.5,65.5c0,8.284-6.716,15-15,15h-74c-8.284,0-15-6.716-15-15v-18c0-8.284,6.716-15,15-15h74   c8.284,0,15,6.716,15,15V65.5z" fill="#333333"/><path d="M399.5,100v163.747c3-0.159,4.647-0.247,7-0.247c2.693,0,6,0.109,8,0.316V100c0-16.5-13-29.5-29.5-29.5   h-30.5v15H385C393.271,85.5,399.5,91.729,399.5,100z" fill="#333333"/><path d="M407,465.5c-2.416,0-4.812,0.159-7.186-0.009c-1.088,7.21-7.306,13.009-14.814,13.009H123   c-8.271,0-15.5-7.229-15.5-15.5V100c0-8.271,7.229-14.5,15.5-14.5h29.5v-15H123c-16.5,0-30.5,13-30.5,29.5v363   c0,16.5,14,30.5,30.5,30.5h262c15.762,0,28.778-12.572,29.911-28.059C412.3,465.645,409.662,465.5,407,465.5z" fill="#333333"/><path d="M330.185,299.5H152.5v15h167.058C322.647,308.5,326.209,303.5,330.185,299.5z" fill="#333333"/><path d="M306,365c0-2.523,0.096-5.5,0.279-7.5H152.5v15h153.779C306.096,369.5,306,367.523,306,365z" fill="#333333"/><path d="M321.372,418.5H152.5v15h180.352C328.578,428.5,324.732,423.5,321.372,418.5z" fill="#333333"/><path d="M407,278.5c-47.496,0-86,38.503-86,86c0,47.496,38.504,86,86,86s86-38.504,86-86   C493,317.003,454.496,278.5,407,278.5z M402.804,413.804l-0.181-0.571l-56.231-44.816l9.217-11.834l46.773,36.429l55.815-55.815   l10.607,10.607L402.804,413.804z" fill="#579BD3"/></g></svg>