<?xml version="1.0" ?><!DOCTYPE svg  PUBLIC '-//W3C//DTD SVG 1.1//EN'  'http://www.w3.org/Graphics/SVG/1.1/DTD/svg11.dtd'><svg enable-background="new 0 0 512 512" height="512px" id="Layer_1" version="1.1" viewBox="0 0 512 512" width="512px" xml:space="preserve" xmlns="http://www.w3.org/2000/svg" xmlns:xlink="http://www.w3.org/1999/xlink"><g id="service_x5F_package"><polygon fill="#579BD3" points="333.85,84.03 101.5,207.835 101.5,260 158.5,294 158.5,240.113 391.953,111.677  "/><path d="M408.779,119.606l-16.071,8.915l66.745,31.66L253.969,276.755l-64.485-36.445l-15.983,8.669v71.434   l-87-51.895v-69.684l15.52-8.145l-53.66-30.508l205.577-97.576l46.798,22.205l16.486-8.785L253.742,46L15.5,159v7v191   l237.25,134.433l0.875,0.567L491.5,357V159L408.779,119.606z M476.5,348.264l-223,125.246V294l223-125.247V348.264z" fill="#333333"/></g></svg>