<?xml version="1.0" ?><!DOCTYPE svg  PUBLIC '-//W3C//DTD SVG 1.1//EN'  'http://www.w3.org/Graphics/SVG/1.1/DTD/svg11.dtd'><svg enable-background="new 0 0 512 512" height="512px" id="Layer_1" version="1.1" viewBox="0 0 512 512" width="512px" xml:space="preserve" xmlns="http://www.w3.org/2000/svg" xmlns:xlink="http://www.w3.org/1999/xlink"><g id="team_x5F_building"><path d="M341.92,159.806c-4.01-8.02-13.144-16.931-37.873-22.055s-27.625-9.58-26.511-18.045   c7.797-7.129,10.471-22.055,11.585-29.63c6.015-3.119,7.352-8.466,8.466-14.926c1.114-6.461-0.223-6.461-1.114-6.461l-1.603,0.071   c0.711-1.897,0.975-5.204,0.591-9.229c2.733-27.903-16.127-35.059-21.667-35.063c-6.325-4.276-21.712-11.664-41.476-4.568   c-28.209,10.128-19.93,43.892-19.929,43.896c0.01,2.573,0.273,4.439,0.672,5.262c0,0-0.736-0.179-1.69-0.146   c-2.459,0.086-2.896,1.559-2.228,6.461c0.668,4.901,4.233,12.253,9.357,15.149c2.228,12.476,8.911,25.62,12.699,29.296   c0.668,12.142-6.683,13.256-29.184,18.825c-22.501,5.57-29.794,12.685-35.422,21.387c-4.08,6.31-3.119,27.179-1.114,30.075   s35.199,22.724,88.667,22.724s84.434-18.268,87.776-22.055C345.262,186.985,345.93,167.826,341.92,159.806z" fill="#333333"/><path d="M480.916,439.416c-4.01-8.02-13.144-16.931-37.873-22.055s-27.625-9.58-26.511-18.045   c7.797-7.129,10.471-22.055,11.585-29.63c6.015-3.119,7.352-8.466,8.466-14.926c1.114-6.461-0.223-6.461-1.114-6.461l-1.603,0.071   c0.711-1.897,0.975-5.204,0.591-9.229c2.733-27.903-16.127-35.059-21.667-35.063c-6.325-4.276-21.712-11.664-41.476-4.568   c-28.209,10.128-19.93,43.892-19.929,43.896c0.01,2.573,0.273,4.439,0.672,5.262c0,0-0.736-0.179-1.69-0.146   c-2.459,0.086-2.896,1.559-2.228,6.461c0.668,4.901,4.233,12.253,9.357,15.149c2.228,12.476,8.911,25.62,12.699,29.296   c0.668,12.142-6.683,13.256-29.184,18.825c-22.501,5.57-29.794,12.685-35.422,21.387c-4.08,6.31-3.119,27.179-1.114,30.075   c2.005,2.896,35.199,22.724,88.667,22.724s84.434-18.268,87.776-22.055C484.257,466.596,484.926,447.436,480.916,439.416z" fill="#333333"/><path d="M203.826,440.381c-4.037-8.074-13.233-17.046-38.129-22.204c-24.896-5.159-27.811-9.644-26.69-18.167   c7.85-7.177,10.541-22.204,11.663-29.83c6.056-3.14,7.401-8.523,8.523-15.027c1.121-6.504-0.224-6.504-1.121-6.504l-1.614,0.072   c0.716-1.91,0.982-5.239,0.595-9.291c2.751-28.092-16.236-35.296-21.814-35.3c-6.367-4.305-21.859-11.743-41.756-4.599   c-28.399,10.197-20.064,44.189-20.064,44.192c0.01,2.59,0.275,4.469,0.677,5.298c0,0-0.741-0.18-1.702-0.147   c-2.476,0.087-2.916,1.57-2.243,6.504s4.261,12.336,9.42,15.251c2.243,12.56,8.971,25.793,12.784,29.494   c0.673,12.224-6.729,13.345-29.381,18.952c-22.653,5.607-29.996,12.77-35.661,21.531c-4.108,6.352-3.14,27.363-1.121,30.279   s35.437,22.877,89.266,22.877s85.004-18.391,88.369-22.204C207.19,467.744,207.863,448.456,203.826,440.381z" fill="#333333"/><path d="M318.682,335.257c2.035-3.588-0.213-8.744-4.997-11.458l-44.237-24.954   c-4.784-2.714-8.948-9.434-8.948-14.934V235c0-5.5-3.375-10-7.5-10s-7.5,4.5-7.5,10v49.478c0,5.5-3.664,12.22-8.448,14.934   l-42.862,24.387c-4.784,2.714-6.971,7.87-4.934,11.458s7.646,4.303,12.43,1.589l43.602-24.726c4.784-2.714,12.62-2.714,17.404,0   l43.59,24.726C311.063,339.56,316.647,338.845,318.682,335.257z M254,299c0.095,0,0.133,0.068,0.086,0.152s-0.125,0.083-0.172,0   S253.905,299,254,299z" fill="#579BD3"/></g></svg>