<?xml version="1.0" ?><!DOCTYPE svg  PUBLIC '-//W3C//DTD SVG 1.1//EN'  'http://www.w3.org/Graphics/SVG/1.1/DTD/svg11.dtd'><svg enable-background="new 0 0 512 512" height="512px" id="Layer_1" version="1.1" viewBox="0 0 512 512" width="512px" xml:space="preserve" xmlns="http://www.w3.org/2000/svg" xmlns:xlink="http://www.w3.org/1999/xlink"><g id="card_x5F_address_x5F_profile_x5F_contact"><path d="M186.488,255.314c-2.759-5.518-9.044-11.649-26.058-15.175c-17.014-3.525-19.007-6.591-18.241-12.416   c5.365-4.905,7.204-15.175,7.971-20.386c4.139-2.146,5.058-5.825,5.825-10.27c0.766-4.445-0.153-4.445-0.766-4.445l-1.103,0.049   c0.489-1.305,0.671-3.58,0.406-6.35c1.88-19.199-11.096-24.122-14.908-24.125c-4.352-2.942-14.939-8.025-28.537-3.143   c-19.408,6.969-13.712,30.2-13.712,30.202c0.007,1.77,0.188,3.054,0.463,3.621c0,0-0.507-0.123-1.163-0.1   c-1.692,0.059-1.993,1.073-1.533,4.445c0.46,3.372,2.912,8.43,6.438,10.423c1.533,8.584,6.131,17.627,8.737,20.157   c0.46,8.354-4.598,9.12-20.08,12.952c-15.481,3.832-20.5,8.727-24.372,14.715c-2.808,4.341-2.146,18.7-0.766,20.693   c1.38,1.993,24.218,15.635,61.006,15.635s58.094-12.569,60.393-15.175C188.787,274.014,189.247,260.832,186.488,255.314z" fill="#579BD3"/><rect fill="#333333" height="15" width="161" x="225.5" y="172.5"/><rect fill="#333333" height="15" width="161" x="225.5" y="217.5"/><rect fill="#333333" height="15" width="161" x="225.5" y="262.5"/><path d="M442.5,130.056V351c0,8.271-6.229,15.5-14.5,15.5H56.664c5.333,8,14.709,15,25.336,15h346   c16.5,0,29.5-14,29.5-30.5V156C457.5,144.956,451.5,135.263,442.5,130.056z" fill="#333333"/><path d="M471.5,161.628V382c0,8.284-6.216,15.5-14.5,15.5H84.467c5.031,9,15.022,15,26.533,15h346   c16.569,0,29.5-13.931,29.5-30.5V187C486.5,176.316,480.5,166.943,471.5,161.628z" fill="#333333"/><path d="M427.5,127.5c0-16.569-13.431-30-30-30h-346c-16.569,0-30,13.431-30,30v195c0,16.569,13.431,30,30,30h346   c16.569,0,30-13.431,30-30V127.5z M412.5,322.5c0,8.284-6.716,15-15,15h-346c-8.284,0-15-6.716-15-15v-195c0-8.284,6.716-15,15-15   h346c8.284,0,15,6.716,15,15V322.5z" fill="#333333"/></g></svg>