<?xml version="1.0" ?><!DOCTYPE svg  PUBLIC '-//W3C//DTD SVG 1.1//EN'  'http://www.w3.org/Graphics/SVG/1.1/DTD/svg11.dtd'><svg enable-background="new 0 0 512 512" height="512px" id="Layer_1" version="1.1" viewBox="0 0 512 512" width="512px" xml:space="preserve" xmlns="http://www.w3.org/2000/svg" xmlns:xlink="http://www.w3.org/1999/xlink"><g id="seo_x5F_specialist"><path d="M426.555,236.751l-2.871-2.792l-9.614,4.102l0.056,3.971c0.158,11.435-8.564,21.793-19.86,23.581   c-0.339,0.054-8.429,1.32-16.996,1.439c-0.47,0.007-0.938,0.01-1.404,0.01c-8.021,0-15.319-0.937-15.626-0.976   c-11.341-1.474-20.349-11.585-20.508-23.02l-0.055-3.97l-9.724-3.833l-2.794,2.873c-4.296,4.417-10.359,6.948-16.636,6.948   c-5.264,0-10.387-1.778-14.425-5.006l-0.552-0.441l-22.345-21.604l-0.46-0.538c-7.69-8.984-7.256-22.662,0.99-31.139l2.721-2.798   l-4.247-9.777l-4.375,0.059c-11.448,0-21.457-8.516-23.282-19.81c-0.058-0.355-1.403-8.778-1.526-17.54   c-0.117-8.371,0.855-16.157,0.896-16.484c1.438-11.369,11.542-20.4,23.001-20.56l3.909-0.055l3.992-10.209l-2.884-2.805   c-8.446-8.215-9.299-21.858-1.94-31.06l0.44-0.551l21.604-22.344l0.537-0.46c2.363-2.023,5.123-3.507,8.083-4.425   c-23.772-0.059-45.591,3.653-61.07,8.063c-49.497,14.102-105.484,77.788-139.493,176.991   c-7.502,21.883-16.499,61.497-16.499,61.497l22.367-1.721c0,0-13.617,79.717,1.382,108.215c15,28.501,60.153,24.001,60.153,24.001   V493.5h178V370.085c0,0,72.344-39.304,96.465-126.864C436.036,243.097,430.74,240.823,426.555,236.751z" fill="#333333"/><path d="M460.009,90.113c-1.896-3.602-1.125-8.936,1.713-11.854l5.057-5.199c2.838-2.918,3.008-7.847,0.379-10.954   L445.952,41.36c-3.164-2.56-8.075-2.267-10.913,0.651l-5.034,5.177c-2.838,2.918-8.138,3.816-11.779,1.996l-14.833-5.912   c-3.886-1.211-7.111-5.532-7.168-9.601l-0.101-7.232c-0.057-4.07-3.405-7.829-7.442-8.353c0,0-7.299-0.948-14.889-0.843   c-7.59,0.106-14.86,1.257-14.86,1.257c-4.02,0.636-7.263,4.487-7.206,8.557l0.101,7.232c0.057,4.07-3.048,8.478-6.898,9.797   l-14.663,6.323c-3.589,1.92-8.912,1.17-11.83-1.668l-5.177-5.034c-2.918-2.838-7.835-2.994-10.927-0.347l-20.621,21.328   c-2.542,3.179-2.234,8.101,0.684,10.939l5.199,5.057c2.918,2.838,3.837,8.148,2.042,11.802l-5.742,14.68   c-1.188,3.893-5.49,7.124-9.56,7.181l-7.207,0.1c-4.07,0.057-7.818,3.407-8.329,7.445c0,0-0.883,6.975-0.779,14.392   c0.108,7.764,1.335,15.356,1.335,15.356c0.649,4.018,4.51,7.259,8.58,7.202l7.258-0.101c4.07-0.057,8.49,3.043,9.824,6.889   l6.161,14.185c1.925,3.586,1.177,8.908-1.66,11.826l-5.034,5.177c-2.838,2.918-2.994,7.835-0.347,10.927l21.328,20.621   c3.179,2.542,8.102,2.234,10.939-0.684l5.057-5.199c2.838-2.918,8.147-3.834,11.798-2.035l14.197,5.595   c3.888,1.203,7.116,5.516,7.173,9.586l0.101,7.232c0.057,4.07,3.405,7.829,7.442,8.353c0,0,7.299,0.948,14.889,0.843   c7.59-0.106,14.86-1.257,14.86-1.257c4.02-0.636,7.263-4.487,7.206-8.557l-0.101-7.232c-0.057-4.07,3.05-8.472,6.903-9.782   l14.036-5.988c3.6-1.899,8.932-1.131,11.85,1.706l5.199,5.057c2.918,2.838,7.847,3.008,10.954,0.379l20.746-21.206   c2.56-3.164,2.267-8.075-0.651-10.913l-5.177-5.034c-2.918-2.838-3.813-8.136-1.989-11.775l5.764-14.351   c1.226-3.881,5.559-7.103,9.628-7.16l7.258-0.101c4.07-0.057,7.839-3.404,8.376-7.438c0,0,1.015-7.623,0.907-15.387   c-0.103-7.417-1.18-14.364-1.18-14.364c-0.623-4.022-4.463-7.267-8.532-7.21l-7.206,0.1c-4.07,0.057-8.46-3.054-9.756-6.912   L460.009,90.113z M376.306,197.831c-34.839,0.485-63.577-27.464-64.062-62.304c-0.485-34.839,27.465-63.577,62.304-64.062   s63.577,27.465,64.062,62.304C439.094,168.608,411.145,197.346,376.306,197.831z" fill="#579BD3"/></g></svg>