<?xml version="1.0" ?><!DOCTYPE svg  PUBLIC '-//W3C//DTD SVG 1.1//EN'  'http://www.w3.org/Graphics/SVG/1.1/DTD/svg11.dtd'><svg enable-background="new 0 0 512 512" height="512px" id="Layer_1" version="1.1" viewBox="0 0 512 512" width="512px" xml:space="preserve" xmlns="http://www.w3.org/2000/svg" xmlns:xlink="http://www.w3.org/1999/xlink"><g id="crowd"><path d="M488.749,305.439c-4.615-9.229-15.125-19.484-43.582-25.38c-28.456-5.896-31.789-11.024-30.507-20.766   c8.973-8.204,12.049-25.38,13.331-34.096c6.922-3.589,8.46-9.742,9.742-17.176s-0.256-7.435-1.282-7.435l-1.845,0.082   c0.819-2.183,1.122-5.988,0.68-10.62c3.145-32.11-18.558-40.344-24.934-40.349c-7.278-4.921-24.986-13.422-47.728-5.257   c-32.461,11.655-22.934,50.509-22.933,50.513c0.011,2.96,0.315,5.108,0.774,6.055c0,0-0.847-0.206-1.945-0.168   c-2.83,0.099-3.333,1.795-2.564,7.435c0.769,5.64,4.871,14.1,10.767,17.433c2.564,14.356,10.255,29.482,14.613,33.712   c0.547,9.928-3.576,13.449-15.294,16.955c29.61,7.934,48.643,20.967,57.993,39.669c5.364,10.728,5.988,25.614,5.883,33.533   c-0.081,6.093-0.583,11.441-1.487,16.049c48.797-3.915,76.926-20.711,80.318-24.554   C492.594,336.716,493.364,314.668,488.749,305.439z" fill="#579BD3"/><path d="M97.723,348.508c0.045-15.324,2.344-26.612,6.832-33.552c4.314-6.672,10.717-15.299,22.026-22.844   c9.214-6.149,20.632-11.034,35.574-15.188c-16.481-4.753-18.547-9.639-17.495-17.631c8.973-8.204,12.049-25.38,13.331-34.096   c6.922-3.589,8.46-9.742,9.742-17.176s-0.256-7.435-1.282-7.435l-1.845,0.082c0.819-2.183,1.122-5.988,0.68-10.62   c3.145-32.11-18.558-40.344-24.934-40.349c-7.278-4.921-24.986-13.422-47.728-5.257c-32.461,11.655-22.934,50.509-22.933,50.513   c0.011,2.96,0.315,5.108,0.774,6.055c0,0-0.847-0.206-1.945-0.168c-2.83,0.099-3.333,1.795-2.564,7.435   c0.769,5.64,4.871,14.1,10.767,17.433c2.564,14.356,10.255,29.482,14.613,33.712c0.769,13.972-7.691,15.254-33.584,21.663   c-25.893,6.409-34.286,14.597-40.762,24.611c-4.696,7.261-3.589,31.276-1.282,34.609c2.06,2.976,32.753,21.473,83.101,25.403   C98.069,360.946,97.703,355.211,97.723,348.508z" fill="#579BD3"/><path d="M390.619,322.754c-6.255-12.509-20.501-26.409-59.072-34.401c-38.57-7.992-43.088-14.942-41.35-28.146   c12.162-11.119,16.332-34.401,18.069-46.215c9.382-4.865,11.467-13.204,13.204-23.281c1.737-10.077-0.347-10.077-1.737-10.077   l-2.501,0.111c1.11-2.959,1.521-8.116,0.921-14.395c4.262-43.522-25.153-54.683-33.795-54.69   c-9.865-6.67-33.866-18.193-64.691-7.125c-43.998,15.797-31.085,68.461-31.084,68.466c0.015,4.012,0.426,6.924,1.049,8.208   c0,0-1.148-0.279-2.637-0.227c-3.836,0.134-4.517,2.432-3.475,10.077c1.042,7.645,6.602,19.112,14.594,23.629   c3.475,19.459,13.899,39.96,19.806,45.694c1.042,18.938-10.424,20.675-45.52,29.362c-35.096,8.687-46.472,19.785-55.25,33.358   c-6.365,9.842-4.865,42.393-1.737,46.91c3.127,4.517,54.902,35.443,138.298,35.443s131.695-28.493,136.908-34.401   C395.831,365.146,396.874,335.263,390.619,322.754z" fill="#333333"/></g></svg>