<?xml version="1.0" ?><!DOCTYPE svg  PUBLIC '-//W3C//DTD SVG 1.1//EN'  'http://www.w3.org/Graphics/SVG/1.1/DTD/svg11.dtd'><svg enable-background="new 0 0 512 512" height="512px" id="Layer_1" version="1.1" viewBox="0 0 512 512" width="512px" xml:space="preserve" xmlns="http://www.w3.org/2000/svg" xmlns:xlink="http://www.w3.org/1999/xlink"><path d="M311.373,187.307c-15.852,5.772-19.62,20.081-11.302,42.925c8.24,22.631,20.233,31.08,35.979,25.347  c8.006-2.915,12.942-7.826,14.811-14.733c1.868-6.906,0.684-16.177-3.553-27.814c-4.256-11.689-9.361-19.608-15.315-23.758  C326.039,185.126,319.166,184.469,311.373,187.307z" fill="#333333"/><path d="M435.682,285.857l21.505-67.897c-4.534-5.749-9.924-10.388-15.902-13.578  c-2.814,2.973-6.338,5.359-10.446,6.855c-14.13,5.145-29.756-2.139-34.901-16.269s2.139-29.756,16.269-34.901  c12.779-4.653,26.779,0.86,33.146,12.408c7.792,2.738,15.094,6.818,21.706,12.017c1.027-11.798-4.838-24.831-14.688-31.084  l-84.433-53.605c-11.568-7.344-30.627-9.86-42.353-5.59L29.996,201.842c-11.726,4.27-17.228,19.004-12.225,32.743l63.064,173.196  c5.003,13.739,18.69,21.487,30.416,17.217L406.839,317.37C418.565,313.101,431.545,298.919,435.682,285.857z M172.945,324.625  c-1.632,6.973-5.351,13.283-11.151,18.932c-5.802,5.649-13.374,10.174-22.714,13.575c-7.794,2.838-14.531,4.67-20.213,5.501  c-5.682,0.831-11.875,0.924-18.577,0.281l-10.262-28.182c7.159,0.9,14.309,1.033,21.453,0.395  c7.143-0.636,13.437-1.946,18.881-3.928c4.696-1.71,7.843-3.776,9.439-6.203c1.596-2.425,1.927-4.918,0.994-7.48  c-0.583-1.601-1.534-2.842-2.852-3.722s-3.174-1.578-5.57-2.098c-2.396-0.518-8.499-1.136-18.312-1.856  c-8.897-0.69-15.846-1.968-20.847-3.835c-5.001-1.865-9.191-4.573-12.568-8.119c-3.376-3.545-6.115-8.201-8.214-13.966  c-3.925-10.781-3.063-20.616,2.586-29.505c5.65-8.888,15.333-15.829,29.051-20.825c12.116-4.412,25.492-6.108,40.13-5.091  l-0.796,27.947c-12.768-1.032-23.13-0.102-31.083,2.794c-4.111,1.497-6.836,3.305-8.18,5.427c-1.344,2.122-1.626,4.251-0.849,6.385  c0.836,2.295,2.772,3.919,5.807,4.868c3.035,0.95,10.685,1.913,22.95,2.888c11.74,0.864,20.519,3.183,26.337,6.959  c5.818,3.776,10.166,9.614,13.041,17.513C174.072,310.538,174.578,317.653,172.945,324.625z M202.467,332.238l-42.62-117.052  l69.494-25.304l9.241,25.38l-37.87,13.789l6.705,18.414l35.067-12.769l9.241,25.38l-35.067,12.769l8.046,22.097l37.87-13.789  l9.387,25.78L202.467,332.238z M382.477,251.097c-5.929,13.766-18.209,24.04-36.836,30.823c-18.362,6.686-34.314,6.661-47.859-0.074  c-13.546-6.734-23.904-19.95-31.075-39.646c-7.094-19.482-7.64-36.133-1.641-49.955c5.999-13.821,18.287-24.114,36.861-30.877  c18.627-6.782,34.602-6.826,47.921-0.13c13.32,6.698,23.575,19.92,30.766,39.668C387.786,220.6,388.406,237.331,382.477,251.097z" fill="#333333"/><path d="M422.219,176.509c-6.532,0-12.861,1.032-18.884,2.957c-1.368,4.008-1.439,8.486,0.119,12.766  c0.339,0.931,0.747,1.823,1.216,2.674c5.537-2.199,11.432-3.396,17.549-3.396c31.826,0,57.719,32.14,57.719,71.645  s-25.893,71.645-57.719,71.645c-8.252,0-16.098-2.176-23.204-6.065l-17.378,6.328c11.591,9.305,25.553,14.737,40.581,14.737  c40.162,0,72.719-38.792,72.719-86.644S462.381,176.509,422.219,176.509z" fill="#579BD3"/></svg>