<?xml version="1.0" ?><!DOCTYPE svg  PUBLIC '-//W3C//DTD SVG 1.1//EN'  'http://www.w3.org/Graphics/SVG/1.1/DTD/svg11.dtd'><svg enable-background="new 0 0 512 512" height="512px" id="Layer_1" version="1.1" viewBox="0 0 512 512" width="512px" xml:space="preserve" xmlns="http://www.w3.org/2000/svg" xmlns:xlink="http://www.w3.org/1999/xlink"><g id="team_x5F_hierarchy"><path d="M354.221,181.204c-4.599-9.197-15.073-19.416-43.432-25.292c-28.358-5.876-31.68-10.986-30.402-20.694   c8.942-8.175,12.008-25.292,13.285-33.979c6.898-3.577,8.431-9.708,9.708-17.117c1.277-7.409-0.255-7.409-1.277-7.409l-1.839,0.082   c0.816-2.176,1.118-5.967,0.677-10.584c3.134-31.999-18.494-40.205-24.848-40.21c-7.253-4.904-24.899-13.376-47.563-5.239   c-32.349,11.615-22.855,50.335-22.854,50.338c0.011,2.95,0.313,5.09,0.771,6.034c0,0-0.844-0.205-1.939-0.167   c-2.82,0.099-3.321,1.788-2.555,7.409c0.766,5.621,4.854,14.051,10.73,17.373c2.555,14.307,10.219,29.38,14.562,33.596   c0.766,13.924-7.664,15.201-33.468,21.588c-25.803,6.387-34.168,14.546-40.621,24.526c-4.679,7.236-3.577,31.169-1.277,34.49   c2.299,3.321,40.366,26.059,101.681,26.059s96.827-20.949,100.659-25.292C358.053,212.372,358.819,190.401,354.221,181.204z" fill="#333333"/><path d="M325.589,450.243c-3.263-6.526-10.695-13.777-30.817-17.947c-20.122-4.169-22.478-7.795-21.572-14.684   c6.345-5.801,8.52-17.946,9.426-24.11c4.895-2.538,5.982-6.889,6.889-12.146c0.906-5.257-0.181-5.257-0.906-5.257l-1.305,0.058   c0.579-1.544,0.793-4.234,0.481-7.51c2.224-22.705-13.122-28.528-17.631-28.531c-5.146-3.48-17.667-9.491-33.749-3.717   c-22.953,8.241-16.217,35.715-16.216,35.718c0.008,2.093,0.222,3.612,0.547,4.282c0,0-0.599-0.146-1.376-0.119   c-2.001,0.07-2.357,1.269-1.813,5.257c0.544,3.988,3.444,9.97,7.614,12.327c1.813,10.152,7.251,20.847,10.333,23.838   c0.544,9.88-5.438,10.786-23.747,15.318c-18.309,4.532-24.244,10.322-28.823,17.403c-3.32,5.134-2.538,22.116-0.906,24.472   c1.632,2.357,28.642,18.49,72.149,18.49s68.704-14.865,71.423-17.947C328.308,472.359,328.852,456.769,325.589,450.243z" fill="#333333"/><path d="M489.43,450.243c-3.263-6.526-10.695-13.777-30.817-17.947c-20.122-4.169-22.478-7.795-21.572-14.684   c6.345-5.801,8.52-17.946,9.426-24.11c4.895-2.538,5.982-6.889,6.889-12.146c0.906-5.257-0.181-5.257-0.906-5.257l-1.305,0.058   c0.579-1.544,0.793-4.234,0.481-7.51c2.224-22.705-13.122-28.528-17.631-28.531c-5.146-3.48-17.667-9.491-33.749-3.717   c-22.953,8.241-16.217,35.715-16.216,35.718c0.008,2.093,0.222,3.612,0.547,4.282c0,0-0.599-0.146-1.376-0.119   c-2.001,0.07-2.357,1.269-1.813,5.257c0.544,3.988,3.444,9.97,7.614,12.327c1.813,10.152,7.251,20.847,10.333,23.838   c0.544,9.88-5.438,10.786-23.747,15.318c-18.309,4.532-24.244,10.322-28.823,17.403c-3.32,5.134-2.538,22.116-0.906,24.472   c1.631,2.357,28.642,18.49,72.149,18.49s68.704-14.865,71.423-17.947C492.15,472.359,492.693,456.769,489.43,450.243z" fill="#333333"/><path d="M161.43,450.243c-3.263-6.526-10.695-13.777-30.817-17.947c-20.122-4.169-22.478-7.795-21.572-14.684   c6.345-5.801,8.52-17.946,9.426-24.11c4.895-2.538,5.982-6.889,6.889-12.146c0.906-5.257-0.181-5.257-0.906-5.257l-1.305,0.058   c0.579-1.544,0.793-4.234,0.481-7.51c2.224-22.705-13.122-28.528-17.631-28.531c-5.146-3.48-17.667-9.491-33.749-3.717   c-22.953,8.241-16.217,35.715-16.216,35.718c0.008,2.093,0.222,3.612,0.547,4.282c0,0-0.599-0.146-1.376-0.119   c-2.001,0.07-2.357,1.269-1.813,5.257c0.544,3.988,3.444,9.97,7.614,12.327c1.813,10.152,7.251,20.847,10.333,23.838   c0.544,9.88-5.438,10.786-23.747,15.318c-18.309,4.532-24.244,10.322-28.823,17.403c-3.32,5.134-2.538,22.116-0.906,24.472   c1.631,2.357,28.642,18.49,72.149,18.49s68.704-14.865,71.423-17.947C164.15,472.359,164.693,456.769,161.43,450.243z" fill="#333333"/><polygon fill="#579BD3" points="261.5,286.5 261.5,257.5 246.5,257.5 246.5,286.5 81.5,286.5 81.5,321.5 96.5,321.5 96.5,301.5    246.5,301.5 246.5,321.5 261.5,321.5 261.5,301.5 410.5,301.5 410.5,321.5 425.5,321.5 425.5,286.5  "/></g></svg>