<?xml version="1.0" ?><!DOCTYPE svg  PUBLIC '-//W3C//DTD SVG 1.1//EN'  'http://www.w3.org/Graphics/SVG/1.1/DTD/svg11.dtd'><svg enable-background="new 0 0 512 512" height="512px" id="Layer_1" version="1.1" viewBox="0 0 512 512" width="512px" xml:space="preserve" xmlns="http://www.w3.org/2000/svg" xmlns:xlink="http://www.w3.org/1999/xlink"><g id="video_x5F_marketing"><path d="M491.5,119.5c0-16.569-13.431-30-30-30h-416c-16.569,0-30,13.431-30,30v273c0,16.569,13.431,30,30,30h416   c16.569,0,30-13.431,30-30V119.5z M404.5,104.5h57v30h-57V104.5z M332.5,104.5h57v30h-57V104.5z M261.5,104.5h56v30h-56V104.5z    M189.5,104.5h57v30h-57V104.5z M117.5,104.5h57v30h-57V104.5z M45.5,104.5h57v30h-57V104.5z M102.5,406.5h-57v-30h57V406.5z    M174.5,406.5h-57v-30h57V406.5z M246.5,406.5h-57v-30h57V406.5z M317.5,406.5h-56v-30h56V406.5z M389.5,406.5h-57v-30h57V406.5z    M461.5,406.5h-57v-30h57V406.5z M476.5,361.5h-446v-212h446V361.5z" fill="#333333"/><path d="M196,190.5c0-11,7.985-15.318,17.511-9.818l112.046,64.726c9.526,5.5,9.574,14.546,0.048,20.046   l-111.868,64.658c-9.526,5.5-17.238,1.023-17.238-9.977V190.5H196z" fill="#579BD3"/></g></svg>