<?xml version="1.0" ?><!DOCTYPE svg  PUBLIC '-//W3C//DTD SVG 1.1//EN'  'http://www.w3.org/Graphics/SVG/1.1/DTD/svg11.dtd'><svg fill-rule="evenodd" height="96pt" overflow="visible" stroke-linejoin="bevel" stroke-width="0.501" version="1.1" viewBox="0 0 96 96" width="96pt" xmlns="http://www.w3.org/2000/svg" xmlns:xlink="http://www.w3.org/1999/xlink"><defs><marker id="DefaultArrow2" markerHeight="1" markerUnits="strokeWidth" markerWidth="1" orient="auto" overflow="visible" viewBox="0 0 1 1"><g transform="scale(0.0092592592)"><path d="M -9 54 L -9 -54 L 117 0 z"/></g></marker><marker id="DefaultArrow3" markerHeight="1" markerUnits="strokeWidth" markerWidth="1" orient="auto" overflow="visible" viewBox="0 0 1 1"><g transform="scale(0.0092592592)"><path d="M -27 54 L -9 0 L -27 -54 L 135 0 z"/></g></marker><marker id="DefaultArrow4" markerHeight="1" markerUnits="strokeWidth" markerWidth="1" orient="auto" overflow="visible" viewBox="0 0 1 1"><g transform="scale(0.0092592592)"><path d="M -9,0 L -9,-45 C -9,-51.708 2.808,-56.580 9,-54 L 117,-9 C 120.916,-7.369 126.000,-4.242 126,0 C 126,4.242 120.916,7.369 117,9 L 9,54 C 2.808,56.580 -9,51.708 -9,45 z"/></g></marker><marker id="DefaultArrow5" markerHeight="1" markerUnits="strokeWidth" markerWidth="1" orient="auto" overflow="visible" viewBox="0 0 1 1"><g transform="scale(0.0092592592)"><path d="M -54, 0 C -54,29.807 -29.807,54 0,54 C 29.807,54 54,29.807 54,0 C 54,-29.807 29.807,-54 0,-54 C -29.807,-54 -54,-29.807 -54,0 z"/></g></marker><marker id="DefaultArrow6" markerHeight="1" markerUnits="strokeWidth" markerWidth="1" orient="auto" overflow="visible" viewBox="0 0 1 1"><g transform="scale(0.0092592592)"><path d="M -63,0 L 0,63 L 63,0 L 0,-63 z"/></g></marker><marker id="DefaultArrow7" markerHeight="1" markerUnits="strokeWidth" markerWidth="1" orient="auto" overflow="visible" viewBox="0 0 1 1"><g transform="scale(0.0092592592)"><path d="M 18,-54 L 108,-54 L 63,0 L 108,54 L 18, 54 L -36,0 z"/></g></marker><marker id="DefaultArrow8" markerHeight="1" markerUnits="strokeWidth" markerWidth="1" orient="auto" overflow="visible" viewBox="0 0 1 1"><g transform="scale(0.0092592592)"><path d="M -36,0 L 18,-54 L 54,-54 L 18,-18 L 27,-18 L 63,-54 L 99,-54 L 63,-18 L 72,-18 L 108,-54 L 144,-54 L 90,0 L 144,54 L 108,54 L 72,18 L 63,18 L 99,54 L 63,54 L 27,18 L 18,18 L 54,54 L 18,54 z"/></g></marker><marker id="DefaultArrow9" markerHeight="1" markerUnits="strokeWidth" markerWidth="1" orient="auto" overflow="visible" viewBox="0 0 1 1"><g transform="scale(0.0092592592)"><path d="M 0,45 L -45,0 L 0, -45 L 45, 0 z M 0, 63 L-63, 0 L 0, -63 L 63, 0 z"/></g></marker><filter id="StainedFilter"><feBlend in="SourceGraphic" in2="BackgroundImage" mode="multiply" result="blend"/><feComposite in="blend" in2="SourceAlpha" operator="in" result="comp"/></filter><filter id="BleachFilter"><feBlend in="SourceGraphic" in2="BackgroundImage" mode="screen" result="blend"/><feComposite in="blend" in2="SourceAlpha" operator="in" result="comp"/></filter><filter id="InvertTransparencyBitmapFilter"><feComponentTransfer><feFuncR amplitude="1.055" exponent=".416666666" offset="-0.055" type="gamma"/><feFuncG amplitude="1.055" exponent=".416666666" offset="-0.055" type="gamma"/><feFuncB amplitude="1.055" exponent=".416666666" offset="-0.055" type="gamma"/></feComponentTransfer><feComponentTransfer><feFuncR intercept="1" slope="-1" type="linear"/><feFuncG intercept="1" slope="-1" type="linear"/><feFuncB intercept="1" slope="-1" type="linear"/><feFuncA intercept="0" slope="1" type="linear"/></feComponentTransfer><feComponentTransfer><feFuncR amplitude="1" exponent="2.4" offset="0" type="gamma"/><feFuncG amplitude="1" exponent="2.4" offset="0" type="gamma"/><feFuncB amplitude="1" exponent="2.4" offset="0" type="gamma"/></feComponentTransfer></filter></defs><g fill="none" font-family="Times New Roman" font-size="16" id="Document" stroke="black" transform="scale(1 -1)"><g id="Spread" transform="translate(0 -96)"><g id="Layer 1"><path d="M 47.105,11.359 C 70.442,11.359 89.383,8.763 89.383,5.564 C 89.383,2.365 70.442,-0.231 47.105,-0.231 C 23.768,-0.231 4.827,2.365 4.827,5.564 C 4.827,8.763 23.768,11.359 47.105,11.359 Z" fill="#000000" fill-opacity="0.298039" marker-end="none" marker-start="none" stroke="none" stroke-linecap="round" stroke-linejoin="round" stroke-miterlimit="79.8403193612775" stroke-opacity="0.298039" stroke-width="0.75"/><path d="M 81.106,43.333 C 81.741,41.749 81.975,39.72 80.883,38.319" fill="none" stroke="#4c5d6e" stroke-linecap="round" stroke-linejoin="round" stroke-miterlimit="79.8403193612775" stroke-width="1.5"/><path d="M 58.108,89.856 C 59.886,91.372 63.367,94.906 64.79,94.533 C 66.286,94.084 68.753,88.451 68.543,86.782 C 66.593,87.448 58.755,88.656 58.108,89.856 Z" fill="#85919e" marker-end="none" marker-start="none" stroke="#4c5d6e" stroke-linecap="round" stroke-linejoin="round" stroke-miterlimit="79.8403193612775" stroke-width="2.25"/><path d="M 50.603,86.649 C 59.481,91.716 74.829,91.947 79.418,80.75 C 83.249,71.409 73.434,61.013 75.408,49.966 C 75.777,47.899 78.752,40.817 80.309,39.463 C 82.828,37.271 85.373,33.08 85.973,27.689 C 86.448,23.399 81.968,18.208 79.27,14.576 C 75.167,9.056 69.568,7.185 62.782,6.375 C 50.439,4.9 30.418,10.934 26.688,23.351 C 13.766,66.365 39.462,80.176 50.603,86.649 Z" fill="#85919e" marker-end="none" marker-start="none" stroke="#4c5d6e" stroke-linecap="round" stroke-linejoin="round" stroke-miterlimit="79.8403193612775" stroke-width="2.25"/><path d="M 78.597,59.537 L 87.394,43.796" fill="none" stroke="#829bbc" stroke-linecap="round" stroke-linejoin="round" stroke-miterlimit="79.8403193612775" stroke-width="2.25"/><path d="M 74.295,57.168 L 83.094,41.427" fill="none" stroke="#829bbc" stroke-linecap="round" stroke-linejoin="round" stroke-miterlimit="79.8403193612775" stroke-width="2.25"/><path d="M 55.105,87.497 C 57.549,89.017 59.923,90.426 62.094,92.026 C 64.927,94.15 66.029,91.167 67.708,89.068 C 68.268,88.369 69.443,87.758 70.103,87.085 C 66.256,86.189 59.173,87.816 54.684,87.235 C 54.825,87.321 54.965,87.41 55.105,87.497 Z" fill="#85919e" marker-end="none" marker-start="none" stroke="none" stroke-linecap="round" stroke-linejoin="round" stroke-miterlimit="79.8403193612775" stroke-width="0.75"/><path d="M 26.733,49.871 C 39.794,49.871 50.396,39.269 50.396,26.208 C 50.396,13.147 39.794,2.545 26.733,2.545 C 13.672,2.545 3.07,13.147 3.07,26.208 C 3.07,39.269 13.672,49.871 26.733,49.871 Z" fill="#d6b65b" marker-end="none" marker-start="none" stroke="#a17a3a" stroke-linecap="round" stroke-linejoin="miter" stroke-miterlimit="79.8403193612775" stroke-width="2.25"/><path d="M 24.862,43.582 C 34.659,43.582 42.611,35.63 42.611,25.833 C 42.611,16.036 34.659,8.084 24.862,8.084 C 15.065,8.084 7.113,16.036 7.113,25.833 C 7.113,35.63 15.065,43.582 24.862,43.582 Z" fill="#edd288" marker-end="none" marker-start="none" stroke="none" stroke-linecap="round" stroke-linejoin="miter" stroke-miterlimit="79.8403193612775" stroke-width="2.25"/><path d="M 34.549,48.948 C 44.17,46.432 54.254,32.757 49.295,18.932" fill="none" stroke="#7a5923" stroke-linecap="round" stroke-linejoin="round" stroke-miterlimit="79.8403193612775" stroke-width="1.5"/><path d="M 18.559,26.69 L 22.345,18.643 C 22.757,17.768 23.734,17.36 24.526,17.733 L 24.526,17.734 C 25.318,18.107 25.626,19.12 25.214,19.995 L 21.429,28.042 C 21.017,28.917 20.039,29.324 19.247,28.952 L 19.248,28.951 C 18.456,28.578 18.148,27.564 18.559,26.69 Z" fill="#85919e" marker-end="none" marker-start="none" stroke="#4c5d6e" stroke-linecap="round" stroke-linejoin="round" stroke-miterlimit="79.8403193612775" stroke-width="1.5"/><path d="M 20.531,43.755 C 21.717,38.844 26.244,32.662 31.142,31.248 C 33.077,30.688 39.178,29.693 40.424,32.146 C 41.886,35.026 33.622,39.923 31.89,41.577 C 30.662,42.751 28.395,46.291 27.249,46.667 C 24.459,47.581 22.376,45.443 20.363,44.571 C 20.407,44.304 20.464,44.031 20.531,43.755 Z" fill="#d6b65b" marker-end="none" marker-start="none" stroke="none" stroke-linecap="round" stroke-linejoin="round" stroke-miterlimit="79.8403193612775" stroke-width="0.75"/><g fill="#000000" id="Group" stroke="#a17a3a" stroke-linecap="round" stroke-linejoin="round" stroke-miterlimit="79.8403193612775" stroke-width="1.125"><path d="M 36.794,26.043 L 15.237,16.549" fill="none"/><path d="M 35.897,27.913 L 14.338,18.42" fill="none"/><path d="M 34.848,29.86 L 13.29,20.366" fill="none"/><path d="M 33.95,31.956 L 12.393,22.462" fill="none"/></g><path d="M 34.333,29.194 L 34.91,28.056 C 35.618,26.656 37.345,26.067 38.761,26.739 L 77.566,45.185 C 78.982,45.858 79.557,47.541 78.848,48.941 L 78.271,50.079 C 77.563,51.479 75.836,52.068 74.42,51.396 L 35.615,32.95 C 34.199,32.277 33.624,30.594 34.333,29.194 Z" fill="#866839" marker-end="none" marker-start="none" stroke="#693f17" stroke-linecap="round" stroke-linejoin="miter" stroke-miterlimit="79.8403193612775" stroke-width="1.5"/><path d="M 74.112,49.272 L 75.46,46.611 C 76.526,44.507 79.122,43.619 81.253,44.632 L 85.974,46.877 C 88.105,47.89 88.97,50.421 87.904,52.526 L 86.555,55.189 C 85.489,57.293 82.893,58.18 80.762,57.167 L 76.042,54.922 C 73.911,53.909 73.046,51.377 74.112,49.272 Z" fill="#d6b65b" marker-end="none" marker-start="none" stroke="#a17a3a" stroke-linecap="round" stroke-linejoin="miter" stroke-miterlimit="79.8403193612775" stroke-width="2.25"/><path d="M 57.604,81.658 C 56.578,82.116 55.271,84.087 55.851,85.164 C 57.101,87.529 64.79,84.428 64.115,81.733 C 63.367,80.087 59.334,81.272 57.877,81.868 C 57.85,81.878 57.628,81.647 57.604,81.658 Z" fill="#4c5d6e" marker-end="none" marker-start="none" stroke="none" stroke-linecap="round" stroke-linejoin="round" stroke-miterlimit="79.8403193612775" stroke-width="0.75"/><path d="M 55.919,79.922 C 58.529,78.91 60.448,77.242 61.421,73.35 C 62.891,67.462 61.994,57.791 55.022,55.035 C 53.636,54.487 51.591,54.05 49.972,54.315 C 41.809,55.011 38.199,62.271 42.709,70.431 C 45.852,76.119 52.897,80.193 55.919,79.922 Z" fill="#283747" marker-end="none" marker-start="none" stroke="none" stroke-linecap="round" stroke-linejoin="round" stroke-miterlimit="79.8403193612775" stroke-width="0.75"/><path d="M 78.062,83.296 C 80.307,82.175 89.438,81.564 89.79,77.167 C 90.172,72.387 80.858,69.221 78.262,68.558 C 79.427,71.271 78.951,77.55 78.693,80.468 C 78.644,81.047 78.105,82.711 77.747,82.99 L 78.062,83.296 Z" fill="#85919e" marker-end="none" marker-start="none" stroke="#4c5d6e" stroke-linecap="round" stroke-linejoin="round" stroke-miterlimit="79.8403193612775" stroke-width="2.25"/><path d="M 84.872,31.819 C 91.703,17.543 79.305,5.354 68.532,3.063 C 58.827,0.924 48.863,2.054 43.254,6.752 C 40.651,8.931 38.762,12.709 39.68,16.704 C 40.212,19.024 44.609,21.611 47.346,19.969 C 48.996,18.979 50.111,13.393 57.521,12.245 C 70.775,10.197 78.843,15.412 83.583,24.373 C 84.942,26.938 85.595,28.868 84.872,31.819 Z" fill="#85919e" marker-end="none" marker-start="none" stroke="#4c5d6e" stroke-linecap="round" stroke-linejoin="round" stroke-miterlimit="79.8403193612775" stroke-width="2.25"/><g fill="#aab7c5" id="Group_1" stroke="none" stroke-linecap="round" stroke-linejoin="round" stroke-miterlimit="79.8403193612775" stroke-width="1.5"><path d="M 39.464,34.194 L 41.686,29.467 C 41.929,28.953 42.507,28.714 42.978,28.936 L 42.978,28.935 C 43.448,29.156 43.634,29.753 43.392,30.267 L 41.169,34.994 C 40.927,35.508 40.348,35.746 39.878,35.525 L 39.878,35.526 C 39.407,35.304 39.222,34.708 39.464,34.194 Z" marker-end="none" marker-start="none"/><path d="M 48.291,32.479 C 48.534,31.965 49.112,31.726 49.583,31.948 L 49.583,31.947 C 50.053,32.168 50.239,32.765 49.997,33.279 L 47.774,38.006 C 47.532,38.52 46.953,38.758 46.483,38.537 L 46.483,38.538 C 46.012,38.316 45.827,37.72 46.069,37.206 L 48.291,32.479 Z" marker-end="none" marker-start="none"/><path d="M 54.897,35.492 C 55.14,34.978 55.718,34.739 56.189,34.961 L 56.189,34.96 C 56.659,35.181 56.845,35.778 56.603,36.292 L 54.38,41.019 C 54.138,41.533 53.559,41.771 53.089,41.55 L 53.089,41.551 C 52.618,41.329 52.433,40.733 52.675,40.219 L 54.897,35.492 Z" marker-end="none" marker-start="none"/><path d="M 61.503,38.505 C 61.746,37.991 62.324,37.752 62.795,37.974 L 62.795,37.973 C 63.265,38.194 63.451,38.791 63.209,39.305 L 60.986,44.032 C 60.744,44.546 60.165,44.784 59.695,44.563 L 59.695,44.564 C 59.224,44.342 59.039,43.746 59.281,43.232 L 61.503,38.505 Z" marker-end="none" marker-start="none"/><path d="M 65.887,46.245 L 68.109,41.518 C 68.352,41.004 68.93,40.765 69.401,40.987 L 69.401,40.986 C 69.871,41.207 70.057,41.804 69.815,42.318 L 67.592,47.045 C 67.35,47.559 66.771,47.797 66.301,47.576 L 66.301,47.577 C 65.83,47.355 65.645,46.759 65.887,46.245 Z" marker-end="none" marker-start="none"/></g><g fill="#000000" id="Group_2" stroke="#693f17" stroke-linecap="round" stroke-linejoin="round" stroke-miterlimit="79.8403193612775" stroke-width="1.125"><path d="M 34.813,30.174 L 69.943,46.742" fill="none"/><path d="M 35.85,28.029 L 70.977,44.597" fill="none"/></g><path d="M 25.528,59.317 C 23.931,56.196 23.176,51.84 23.344,48.314 C 23.496,45.177 25.033,40.672 26.91,38.099 C 28.223,36.302 29.905,34.422 31.812,33.208 C 34.053,31.783 39.572,29.84 41.169,32.92 C 42.999,36.45 37.505,39.32 35.822,42.273 C 33.146,46.967 33.38,51.574 35.229,56.37 C 32.37,57.2 29.296,58.432 26.316,58.959 C 26.235,58.808 25.607,59.472 25.528,59.317 Z" fill="#85919e" marker-end="none" marker-start="none" stroke="#4c5d6e" stroke-linecap="round" stroke-linejoin="round" stroke-miterlimit="79.8403193612775" stroke-width="1.5"/><path d="M 78.835,50.737 L 79.738,48.955 C 80.451,47.547 82.189,46.953 83.615,47.63 L 83.98,47.804 C 85.407,48.481 85.986,50.176 85.272,51.584 L 84.37,53.366 C 83.656,54.775 81.918,55.369 80.492,54.691 L 80.128,54.518 C 78.701,53.84 78.122,52.146 78.835,50.737 Z" fill="#a17a3a" marker-end="none" marker-start="none" stroke="none" stroke-linecap="round" stroke-linejoin="miter" stroke-miterlimit="79.8403193612775" stroke-width="2.25"/><path d="M 83.704,52.932 L 75.182,48.952" fill="none" stroke="#a17a3a" stroke-linecap="round" stroke-linejoin="round" stroke-miterlimit="79.8403193612775" stroke-width="1.125"/><path d="M 79.512,53.455 L 70.989,49.476" fill="none" stroke="#a17a3a" stroke-linecap="round" stroke-linejoin="round" stroke-miterlimit="79.8403193612775" stroke-width="1.125"/><path d="M 84.494,50.858 L 75.972,46.878" fill="none" stroke="#a17a3a" stroke-linecap="round" stroke-linejoin="round" stroke-miterlimit="79.8403193612775" stroke-width="1.125"/><path d="M 81.758,47.468 L 73.236,43.488" fill="none" stroke="#a17a3a" stroke-linecap="round" stroke-linejoin="round" stroke-miterlimit="79.8403193612775" stroke-width="1.125"/><path d="M 65.545,37.96 C 67.409,36.522 69.562,34.983 71.975,34.725 C 76.765,33.977 79.534,36.404 80.508,39.516 C 81.785,43.595 77.885,48.191 74.904,51.052 C 74.21,51.717 72.989,51.987 72.082,51.627 C 68.172,50.076 70.852,42.959 72.05,41.013 C 69.505,39.815 67.334,38.992 65.545,37.96 Z" fill="#85919e" marker-end="none" marker-start="none" stroke="#4c5d6e" stroke-linecap="round" stroke-linejoin="round" stroke-miterlimit="79.8403193612775" stroke-width="1.5"/><path d="M 81.285,22.207 C 81.981,22.556 82.844,22.985 82.998,21.557 C 83.023,21.327 83.029,21.14 82.904,20.938 C 83.396,21.595 84.21,22.51 84.487,23.222 C 84.831,24.105 85.64,25.032 85.523,25.893 C 85.299,27.54 83.876,32.929 83.278,32.854 C 82.953,32.815 82.432,32.452 82.123,32.328 C 78.877,31.019 81.578,24.42 80.591,21.95 C 80.762,21.944 81.011,22.068 81.285,22.207 Z" fill="#85919e" marker-end="none" marker-start="none" stroke="none" stroke-linecap="round" stroke-linejoin="round" stroke-miterlimit="79.8403193612775" stroke-width="0.75"/><path d="M 61.496,36.598 L 69.281,40.415 C 69.161,38.669 71.488,37.493 73.122,36.608 C 73.027,36.399 72.914,36.201 72.784,36.013 C 71.748,35.561 68.186,35.761 70.086,32.758 C 68.739,33.016 67.42,33.051 66.286,33.528 C 64.886,34.117 63.411,35.912 62.094,36.392 L 61.496,36.598 Z" fill="#85919e" marker-end="none" marker-start="none" stroke="none" stroke-linecap="round" stroke-linejoin="round" stroke-miterlimit="79.8403193612775" stroke-width="0.75"/><path d="M 70.403,39.516 L 70.852,41.312 L 50.267,31.432 C 50.867,29.336 51.1,26.502 50.77,24.172 C 53.412,30.16 62.245,36.073 70.403,39.516 Z" fill="#4c5d6e" marker-end="none" marker-start="none" stroke="none" stroke-linecap="round" stroke-linejoin="round" stroke-miterlimit="79.8403193612775" stroke-width="0.75"/><path d="M 25.304,55.351 C 25.181,56.757 26.852,62.691 28.148,63.135 C 29.078,63.453 30.514,61.086 31.406,60.863 C 34.007,60.215 37.582,59.332 37.243,55.911 C 37.145,54.907 35.874,52.501 35.1,52.365 C 35.125,55.085 33.165,53.517 32.921,52.586 C 32.418,54.023 27.517,55.569 26.233,56.577 C 25.868,56.862 25.336,54.957 25.304,55.351 Z" fill="#85919e" marker-end="none" marker-start="none" stroke="none" stroke-linecap="round" stroke-linejoin="round" stroke-miterlimit="79.8403193612775" stroke-width="0.75"/><path d="M 57.304,84.727 C 57.552,83.694 60.322,82.434 61.421,83.455 C 61.477,84.82 58.214,85.516 57.528,85.102 C 57.418,85.034 57.257,84.92 57.304,84.727 Z" fill="#aab7c5" marker-end="none" marker-start="none" stroke="none" stroke-linecap="round" stroke-linejoin="round" stroke-miterlimit="79.8403193612775" stroke-width="0.75"/><path d="M 56.442,79.752 C 56.702,80.447 57.325,81.686 57.939,82.147" fill="none" stroke="#4c5d6e" stroke-linecap="round" stroke-linejoin="round" stroke-miterlimit="79.8403193612775" stroke-width="1.5"/><path d="M 65.687,83.904 C 68.125,82.316 70.284,79.408 70.942,76.585" fill="none" stroke="#4c5d6e" stroke-linecap="round" stroke-linejoin="round" stroke-miterlimit="79.8403193612775" stroke-width="1.5"/><path d="M 65.687,83.904 C 68.463,83.556 70.33,81.874 72.349,80.057" fill="none" stroke="#4c5d6e" stroke-linecap="round" stroke-linejoin="round" stroke-miterlimit="79.8403193612775" stroke-width="1.5"/><path d="M 52.738,87.571 C 55.817,87.986 58.321,87.494 61.046,86.674 C 59.932,87.797 58.263,88.703 56.463,88.844" fill="none" stroke="#4c5d6e" stroke-linecap="round" stroke-linejoin="round" stroke-miterlimit="79.8403193612775" stroke-width="1.5"/><path d="M 63.292,77.466 C 64.749,74.971 66.403,71.99 66.96,69.159" fill="none" stroke="#aab7c5" stroke-linecap="round" stroke-linejoin="round" stroke-miterlimit="79.8403193612775" stroke-width="1.125"/><path d="M 65.537,78.365 C 66.799,76.903 68.526,74.115 69.655,71.791" fill="none" stroke="#aab7c5" stroke-linecap="round" stroke-linejoin="round" stroke-miterlimit="79.8403193612775" stroke-width="1.125"/><path d="M 40.087,84.729 C 43.894,84.89 47.941,84.638 51.245,84.01" fill="none" stroke="#85919e" stroke-linecap="round" stroke-linejoin="round" stroke-miterlimit="79.8403193612775" stroke-width="1.125"/><path d="M 44.99,86.939 C 47.434,86.801 50.172,86.247 52.33,85.464" fill="none" stroke="#85919e" stroke-linecap="round" stroke-linejoin="round" stroke-miterlimit="79.8403193612775" stroke-width="1.125"/><path d="M 46.9,63.693 C 48.181,64.568 49.675,63.542 49.719,62.197 C 51.061,64.301 53.994,62.757 53.207,60.699 C 52.427,58.656 49.896,58.285 48.604,58.49 C 47.026,58.695 44.442,61.931 46.9,63.693 Z" fill="#de6288" marker-end="none" marker-start="none" stroke="none" stroke-linecap="round" stroke-linejoin="round" stroke-miterlimit="79.8403193612775" stroke-width="1.5"/><path d="M 4.805,17.172 L 11.247,23.179 L 15.049,15.605 L 6.501,13.789 L 4.805,17.172 Z" fill="#866839" marker-end="none" marker-start="none" stroke="#693f17" stroke-linecap="round" stroke-linejoin="round" stroke-miterlimit="79.8403193612775" stroke-width="1.5"/><path d="M 5.806,16.237 L 11.719,20.13" fill="none" stroke="#693f17" stroke-linecap="round" stroke-linejoin="round" stroke-miterlimit="79.8403193612775" stroke-width="1.125"/><path d="M 6.254,15.039 L 13.142,17.959" fill="none" stroke="#693f17" stroke-linecap="round" stroke-linejoin="round" stroke-miterlimit="79.8403193612775" stroke-width="1.125"/><path d="M 75.792,84.203 C 77.331,82.143 79.756,82.115 80.434,81.434 C 81.106,80.756 81.118,73.581 81.106,71.852 C 81.106,71.807 81.046,71.614 81.032,71.478 C 81.002,71.183 80.669,71.138 80.583,71.029 C 79.868,70.124 77.341,68.445 76.784,66.819 C 76.861,69.289 77.22,82.519 75.792,83.754 L 75.792,84.203 Z" fill="#85919e" marker-end="none" marker-start="none" stroke="none" stroke-linecap="round" stroke-linejoin="round" stroke-miterlimit="79.8403193612775" stroke-width="0.75"/><path d="M 78.488,79.936 C 78.955,78.446 79.195,75.269 79.086,73.649 C 80.045,73.684 83.469,74.52 84.326,74.997 C 84.718,75.214 85.076,75.828 85.149,76.27 C 85.555,78.73 80.523,79.989 78.924,79.999 L 78.488,79.936 Z" fill="#aab7c5" marker-end="none" marker-start="none" stroke="none" stroke-linecap="round" stroke-linejoin="round" stroke-miterlimit="79.8403193612775" stroke-width="0.75"/><path d="M 60.184,89.956 C 61.28,90.948 63.185,92.582 64.49,92.587 C 64.847,91.856 63.751,90.679 63.404,89.998 C 62.231,89.87 60.984,89.419 59.699,89.514 C 59.833,89.635 59.996,89.786 60.184,89.956 Z" fill="#aab7c5" marker-end="none" marker-start="none" stroke="none" stroke-linecap="round" stroke-linejoin="round" stroke-miterlimit="79.8403193612775" stroke-width="0.75"/><path d="M 65.494,89.912 C 67.046,89.672 68.722,89.653 70.148,88.9" fill="none" stroke="#4c5d6e" stroke-linecap="round" stroke-linejoin="round" stroke-miterlimit="79.8403193612775" stroke-width="1.5"/><path d="M 88.504,44.381 C 89.654,44.381 90.588,43.447 90.588,42.297 C 90.588,41.147 89.654,40.213 88.504,40.213 C 87.354,40.213 86.42,41.147 86.42,42.297 C 86.42,43.447 87.354,44.381 88.504,44.381 Z" fill="#dcd5c6" marker-end="none" marker-start="none" stroke="#ab9e89" stroke-linecap="round" stroke-linejoin="round" stroke-miterlimit="79.8403193612775" stroke-width="1.5"/><path d="M 83.713,41.911 C 84.863,41.911 85.797,40.977 85.797,39.827 C 85.797,38.677 84.863,37.743 83.713,37.743 C 82.563,37.743 81.629,38.677 81.629,39.827 C 81.629,40.977 82.563,41.911 83.713,41.911 Z" fill="#dcd5c6" marker-end="none" marker-start="none" stroke="#ab9e89" stroke-linecap="round" stroke-linejoin="round" stroke-miterlimit="79.8403193612775" stroke-width="1.5"/><path d="M 78.099,63.319 C 79.249,63.319 80.183,62.385 80.183,61.235 C 80.183,60.085 79.249,59.151 78.099,59.151 C 76.949,59.151 76.015,60.085 76.015,61.235 C 76.015,62.385 76.949,63.319 78.099,63.319 Z" fill="#dcd5c6" marker-end="none" marker-start="none" stroke="#ab9e89" stroke-linecap="round" stroke-linejoin="round" stroke-miterlimit="79.8403193612775" stroke-width="1.5"/><path d="M 73.309,60.849 C 74.459,60.849 75.393,59.915 75.393,58.765 C 75.393,57.615 74.459,56.681 73.309,56.681 C 72.159,56.681 71.225,57.615 71.225,58.765 C 71.225,59.915 72.159,60.849 73.309,60.849 Z" fill="#dcd5c6" marker-end="none" marker-start="none" stroke="#ab9e89" stroke-linecap="round" stroke-linejoin="round" stroke-miterlimit="79.8403193612775" stroke-width="1.5"/><path d="M 49.148,84.234 C 50.33,84.078 51.026,83.963 52.084,83.568" fill="none" stroke="#aab7c5" stroke-linecap="round" stroke-linejoin="round" stroke-miterlimit="79.8403193612775" stroke-width="1.125"/><path d="M 51.417,85.751 C 52.2,85.639 53.065,85.384 53.736,85.072" fill="none" stroke="#aab7c5" stroke-linecap="round" stroke-linejoin="round" stroke-miterlimit="79.8403193612775" stroke-width="1.125"/><path d="M 43.578,53.611 C 45.132,51.559 47.978,50.815 50.339,51.784" fill="none" stroke="#4c5d6e" stroke-linecap="round" stroke-linejoin="round" stroke-miterlimit="79.8403193612775" stroke-width="1.5"/></g></g></g></svg>