<?xml version="1.0" ?><!DOCTYPE svg  PUBLIC '-//W3C//DTD SVG 1.1//EN'  'http://www.w3.org/Graphics/SVG/1.1/DTD/svg11.dtd'><svg enable-background="new 0 0 512 512" height="512px" id="Layer_1" version="1.1" viewBox="0 0 512 512" width="512px" xml:space="preserve" xmlns="http://www.w3.org/2000/svg" xmlns:xlink="http://www.w3.org/1999/xlink"><g id="information_x5F_support"><path d="M358.731,111.5l-17.404,82.016c-0.725,3.142-0.967,5.473-0.967,7.649c0,6.768,3.142,8.9,9.911,8.9   c4.351,0,6.285-0.746,7.736-1.471c-1.209,17.162-13.537,24.886-26.59,24.886c-14.504,0-25.864-8.707-25.864-29.012   c0-4.592,0.725-9.743,1.934-15.544l16.437-77.425H358.731z M347.853,59.672c10.636,0,19.338,8.702,19.338,19.338   s-8.702,19.096-19.338,19.096c-10.636,0-19.096-8.46-19.096-19.096C328.757,68.373,337.218,59.672,347.853,59.672z" fill="#579BD3"/><path d="M376.993,393.997c-7.544-15.088-24.728-31.853-71.25-41.493s-51.971-18.022-49.875-33.949   c14.669-13.412,19.699-41.493,21.794-55.743c11.316-5.868,13.831-15.927,15.927-28.081c2.096-12.154-0.419-12.154-2.096-12.154   l-3.017,0.134c1.338-3.569,1.835-9.789,1.111-17.363c5.141-52.495-30.339-65.957-40.763-65.965   c-11.899-8.045-40.848-21.944-78.028-8.594c-53.069,19.054-37.494,82.575-37.493,82.581c0.018,4.84,0.514,8.351,1.265,9.9   c0,0-1.385-0.337-3.18-0.274c-4.626,0.162-5.449,2.934-4.191,12.154c1.257,9.221,7.963,23.052,17.603,28.5   c4.191,23.471,16.765,48.199,23.89,55.114c1.257,22.842-12.574,24.938-54.905,35.416c-42.331,10.478-56.052,23.864-66.64,40.236   c-7.677,11.871-5.868,51.133-2.096,56.581c3.772,5.449,66.221,42.75,166.81,42.75s158.846-34.368,165.133-41.493   C383.28,445.129,384.538,409.085,376.993,393.997z" fill="#333333"/><path d="M334.5,17.5c-73.026,0-134.587,40.132-153.507,94.896c5.429-1.115,10.874-1.803,16.305-2.05   c15.786-36.446,54.119-64.694,101.78-74.296c0.596-0.121,1.196-0.232,1.794-0.347c0.673-0.128,1.347-0.255,2.024-0.376   c0.922-0.166,1.846-0.326,2.773-0.478c0.061-0.01,0.123-0.019,0.184-0.029c7.001-1.139,14.161-1.866,21.433-2.158   c0.128-0.005,0.256-0.011,0.384-0.016c1.014-0.039,2.029-0.07,3.048-0.092c0.856-0.02,1.715-0.029,2.574-0.037   c0.403-0.003,0.804-0.017,1.208-0.017c0.083,0,0.166,0.002,0.249,0.003c0.084,0,0.167-0.003,0.251-0.003   c80.229,0,145.5,51.593,145.5,115.009c0,36.31-21.405,68.739-54.757,89.832l-60.108,46.864l8.324-23.659l-23.228,2.079   c-5.419,0.485-10.881,0.731-16.231,0.731c-5.918,0-11.812-0.287-17.649-0.857c-0.448-0.136-10.127-1.089-15.227-2.038   c-2.378,4.372-5.633,7.608-10.196,11.24c-0.104,0.599-0.218,1.176-0.326,1.766c13.798,3.183,28.354,4.889,43.398,4.889   c5.939,0,11.799-0.274,17.57-0.791L334.5,327.5l100.013-77.976C470.786,225.616,494,188.992,494,147.928   C494,75.895,422.589,17.5,334.5,17.5z" fill="#579BD3"/></g></svg>