<?xml version="1.0" ?><!DOCTYPE svg  PUBLIC '-//W3C//DTD SVG 1.1//EN'  'http://www.w3.org/Graphics/SVG/1.1/DTD/svg11.dtd'><svg enable-background="new 0 0 512 512" height="512px" id="Layer_1" version="1.1" viewBox="0 0 512 512" width="512px" xml:space="preserve" xmlns="http://www.w3.org/2000/svg" xmlns:xlink="http://www.w3.org/1999/xlink"><g id="search_x5F_settings"><path d="M479.937,420.804L358.016,298.883c-7.381-7.381-17.914-9.797-27.365-7.268   c-0.329-1.242-0.974-2.418-1.948-3.392c-2.943-2.943-7.715-2.943-10.66,0l-29.981,29.981c-2.943,2.943-2.943,7.715,0,10.66   c1.096,1.096,2.444,1.781,3.856,2.062c-2.196,9.248,0.292,19.408,7.47,26.587l121.921,121.921   c10.993,10.993,28.982,10.993,39.973,0l18.655-18.655C490.93,449.786,490.93,431.797,479.937,420.804z" fill="#579BD3"/><path d="M306.35,259.85c-3.198,0-6.287-0.647-9.182-1.926l-0.645-0.284l-26.818-14.992l-0.583-0.402   c-0.156-0.108-0.296-0.232-0.449-0.343c-19.632,29.925-53.473,49.732-91.859,49.732c-60.539,0-109.791-49.252-109.791-109.791   S116.274,72.054,176.814,72.054c18.189,0,35.356,4.451,50.478,12.313l13.422-24.01l0.402-0.583   c4.275-6.194,11.394-9.893,19.043-9.893c3.935,0,7.803,1.007,11.187,2.912l3.266,1.839l0.344-0.27   c-27.161-20.941-61.193-33.404-98.141-33.404C87.96,20.958,15.93,92.989,15.93,181.843S87.96,342.728,176.815,342.728   c62.283,0,116.295-35.395,143.032-87.164C315.979,258.297,311.281,259.85,306.35,259.85z" fill="#579BD3"/><path d="M415.88,73.091c-2.721-2.962-3.333-8.25-1.361-11.755l3.516-6.244c1.973-3.504,0.889-8.255-2.407-10.558   l-25.5-14.454c-3.67-1.645-8.286-0.124-10.259,3.38l-3.5,6.216c-1.973,3.504-6.808,5.703-10.745,4.884l-15.662-1.897   c-4.018-0.174-8.191-3.486-9.273-7.358l-1.924-6.883c-1.082-3.872-5.231-6.616-9.22-6.096c0,0-7.211,0.939-14.434,2.959   c-7.223,2.02-13.875,4.956-13.875,4.956c-3.679,1.625-5.802,6.122-4.72,9.994l1.924,6.883c1.082,3.872-0.767,8.868-4.112,11.101   l-12.406,9.746c-2.943,2.741-8.216,3.37-11.72,1.398l-6.216-3.5c-3.504-1.973-8.24-0.879-10.524,2.431l-14.303,25.585   c-1.624,3.679-0.085,8.302,3.419,10.275l6.244,3.516c3.504,1.973,5.725,6.812,4.935,10.755l-1.773,15.473   c-0.151,4.019-3.442,8.192-7.316,9.275l-6.858,1.918c-3.872,1.082-6.606,5.23-6.073,9.216c0,0,0.921,6.884,2.894,13.943   c2.067,7.389,5.157,14.329,5.157,14.329c1.636,3.674,6.143,5.793,10.016,4.711l6.907-1.931c3.872-1.082,8.879,0.759,11.125,4.096   l9.471,11.99c2.744,2.939,3.377,8.21,1.404,11.715l-3.5,6.216c-1.973,3.504-0.879,8.24,2.431,10.524l25.585,14.302   c3.679,1.624,8.302,0.085,10.275-3.419l3.516-6.244c1.973-3.504,6.812-5.722,10.754-4.927l14.975,1.755   c4.017,0.165,8.191,3.469,9.275,7.343l1.924,6.883c1.082,3.872,5.231,6.616,9.22,6.096c0,0,7.211-0.939,14.434-2.959   c7.223-2.02,13.876-4.957,13.876-4.957c3.679-1.625,5.802-6.122,4.72-9.994l-1.924-6.883c-1.082-3.872,0.771-8.863,4.121-11.089   l11.891-9.268c2.958-2.724,8.246-3.339,11.75-1.366l6.244,3.516c3.504,1.973,8.255,0.889,10.558-2.407l14.454-25.5   c1.645-3.67,0.124-8.286-3.38-10.259l-6.216-3.5c-3.504-1.973-5.698-6.808-4.876-10.743l1.877-15.165   c0.189-4.016,3.513-8.189,7.387-9.272l6.907-1.931c3.872-1.082,6.627-5.233,6.119-9.222c0,0-0.957-7.537-3.024-14.926   c-1.974-7.058-4.759-13.421-4.759-13.421c-1.611-3.684-6.1-5.812-9.972-4.729l-6.858,1.918c-3.872,1.082-8.853-0.777-11.066-4.135   L415.88,73.091z M363.165,197.134c-33.152,9.27-67.667-10.158-76.938-43.311c-9.27-33.152,10.159-67.668,43.311-76.938   c33.154-9.27,67.668,10.159,76.938,43.311C415.747,153.35,396.319,187.864,363.165,197.134z" fill="#333333"/></g></svg>