<?xml version="1.0" ?><!DOCTYPE svg  PUBLIC '-//W3C//DTD SVG 1.1//EN'  'http://www.w3.org/Graphics/SVG/1.1/DTD/svg11.dtd'><svg enable-background="new 0 0 512 512" height="512px" id="Layer_1" version="1.1" viewBox="0 0 512 512" width="512px" xml:space="preserve" xmlns="http://www.w3.org/2000/svg" xmlns:xlink="http://www.w3.org/1999/xlink"><g id="seo_x5F_performance"><path d="M208.349,258.237c-1.346,0-2.66,0.137-3.932,0.389l-52.749-52.749l-15.844,15.844l52.751,52.751   c-0.252,1.273-0.389,2.585-0.389,3.932c0,11.136,9.028,20.166,20.166,20.166c11.138,0,20.166-9.028,20.166-20.166   C228.514,267.265,219.485,258.237,208.349,258.237z" fill="#579BD3"/><path d="M274.446,454.799l-0.386-0.591l-13.834-26.364l-0.268-0.653c-4.419-10.774,0.21-23.43,10.537-28.81   l2.917-1.52l-0.843-9.271l-3.286-1.035c-0.261-0.082-0.508-0.189-0.764-0.28c-17.807,10.006-38.332,15.724-60.171,15.724   c-67.949,0-123.233-55.282-123.233-123.233s55.282-123.233,123.233-123.233c63.434,0,115.82,48.179,122.505,109.865l2.443-1.282   l0.653-0.268c2.7-1.107,5.563-1.669,8.51-1.669c8.469,0,16.438,4.791,20.3,12.207l1.528,2.932l9.759-0.861l1.016-3.226   c3.005-9.537,12.144-16.197,22.225-16.197c0.092,0,0.185,0.01,0.277,0.011c-4.107-36.166-18.337-69.262-39.797-96.374   l32.415-32.415l-31.686-31.686l-32.296,32.467c-27.428-21.586-61.395-35.807-97.344-39.657V74.192h28.039   c9.899,0,17.715-8.456,17.715-18.355V34.924c0-9.899-7.816-17.924-17.715-17.924h-98.586c-9.899,0-17.692,8.025-17.692,17.924   v20.913c0,9.899,7.793,18.355,17.692,18.355h32.964v14.903c-37.583,3.376-72.382,17.77-100.555,39.938L60.28,98.621l-31.699,31.686   l30.362,30.369c-25.692,32.457-41.043,73.477-41.043,118.089c0,105.183,85.265,190.45,190.448,190.45   c23.815,0,46.604-4.384,67.619-12.368C275.424,456.195,274.912,455.514,274.446,454.799z" fill="#579BD3"/><path d="M468.763,367.449c-0.641-3.838,1.658-8.45,5.11-10.247l6.149-3.204c3.451-1.797,5.083-6.222,3.628-9.83   l-13.031-25.193c-2.104-3.272-6.651-4.48-10.101-2.681l-6.123,3.19c-3.451,1.797-8.532,1.024-11.291-1.719l-11.693-9.815   c-3.165-2.264-4.797-7.154-3.628-10.866l2.077-6.596c1.169-3.711-0.744-8.127-4.251-9.815c0,0-6.341-3.05-13.264-5.229   c-6.922-2.18-13.867-3.315-13.867-3.315c-3.841-0.628-7.938,1.896-9.107,5.607l-2.077,6.596c-1.169,3.711-5.308,6.783-9.201,6.825   l-15.207,1.343c-3.834,0.667-8.442-1.611-10.239-5.061l-3.19-6.123c-1.797-3.451-6.215-5.067-9.815-3.59l-25.115,13.179   c-3.261,2.124-4.458,6.685-2.659,10.136l3.204,6.149c1.797,3.451,1.04,8.547-1.685,11.326l-9.615,11.605   c-2.246,3.178-7.12,4.821-10.832,3.653l-6.572-2.07c-3.711-1.169-8.119,0.749-9.793,4.26c0,0-2.893,6.067-5.022,12.831   c-2.23,7.081-3.393,14.341-3.393,14.341c-0.616,3.842,1.918,7.943,5.63,9.112l6.619,2.085c3.711,1.169,6.796,5.308,6.853,9.199   l1.34,14.724c0.671,3.832-1.603,8.44-5.053,10.237l-6.123,3.19c-3.451,1.797-5.067,6.215-3.59,9.815l13.179,25.115   c2.124,3.261,6.685,4.458,10.136,2.659l6.149-3.204c3.451-1.797,8.546-1.037,11.32,1.69l11.21,9.337   c3.169,2.257,4.807,7.142,3.638,10.853l-2.077,6.596c-1.169,3.711,0.744,8.127,4.251,9.815c0,0,6.341,3.05,13.264,5.229   c6.922,2.18,13.867,3.315,13.867,3.315c3.841,0.627,7.938-1.896,9.107-5.607l2.077-6.596c1.169-3.711,5.308-6.776,9.201-6.81   l14.537-1.227c3.838-0.645,8.449,1.651,10.246,5.103l3.204,6.149c1.797,3.451,6.222,5.083,9.83,3.628l25.193-13.031   c3.272-2.104,4.48-6.651,2.681-10.101l-3.19-6.123c-1.797-3.451-1.022-8.529,1.725-11.286l9.535-11.299   c2.277-3.155,7.175-4.782,10.888-3.613l6.619,2.085c3.711,1.169,8.137-0.74,9.834-4.241c0,0,3.207-6.617,5.438-13.697   c2.131-6.764,3.236-13.394,3.236-13.394c0.641-3.838-1.872-7.934-5.584-9.103l-6.572-2.07c-3.711-1.169-6.764-5.308-6.785-9.201   L468.763,367.449z M360.476,440.139c-31.773-10.007-49.482-43.997-39.475-75.77c10.007-31.773,43.997-49.482,75.77-39.475   c31.773,10.007,49.482,43.997,39.475,75.77S392.25,450.146,360.476,440.139z" fill="#333333"/></g></svg>