<?xml version="1.0" encoding="utf-8"?>
<!-- Generator: Adobe Illustrator 18.0.0, SVG Export Plug-In . SVG Version: 6.00 Build 0)  -->
<!DOCTYPE svg PUBLIC "-//W3C//DTD SVG 1.1//EN" "http://www.w3.org/Graphics/SVG/1.1/DTD/svg11.dtd">
<svg version="1.1" id="Layer_1" xmlns="http://www.w3.org/2000/svg" xmlns:xlink="http://www.w3.org/1999/xlink" x="0px" y="0px"
	 viewBox="0 0 512 512" enable-background="new 0 0 512 512" xml:space="preserve">
<g id="site_x5F_map">
	<path fill="#333333" d="M382.5,345.5c-8.3,0-15,6.7-15,15v118c0,8.3,6.7,15,15,15h59c8.3,0,15-6.7,15-15v-118c0-8.3-6.7-15-15-15
		H382.5z M434.5,360.5v118h-15v-118H434.5z M404.5,360.5v118h-15v-118H404.5z"/>
	<path fill="#333333" d="M382.5,181.5c-8.3,0-15,6.7-15,15v118c0,8.3,6.7,15,15,15h59c8.3,0,15-6.7,15-15v-118c0-8.3-6.7-15-15-15
		H382.5z M434.5,196.5v118h-15v-118H434.5z M404.5,196.5v118h-15v-118H404.5z"/>
	<path fill="#333333" d="M382.5,17.5c-8.3,0-15,6.7-15,15v118c0,8.3,6.7,15,15,15h59c8.3,0,15-6.7,15-15v-118c0-8.3-6.7-15-15-15
		H382.5z M434.5,32.5v118h-15v-118H434.5z M404.5,32.5v118h-15v-118H404.5z"/>
	<polygon fill="#579BD3" points="319.5,247.5 290.5,247.5 290.5,262.5 319.5,262.5 319.5,427.5 354.5,427.5 354.5,412.5 
		334.5,412.5 334.5,262.5 354.5,262.5 354.5,247.5 334.5,247.5 334.5,98.5 354.5,98.5 354.5,83.5 319.5,83.5 	"/>
	<path fill="#333333" d="M80.5,83.5c-16.6,0-30,13.4-30,30v284c0,16.6,13.4,30,30,30h165c16.6,0,30-13.4,30-30v-284
		c0-16.6-13.4-30-30-30H80.5z M217.5,128.5h15v254h-15V128.5z M172.5,382.5h-15v-254h15V382.5z M112.5,128.5v254h-15v-254H112.5z"/>
</g>
</svg>
