<svg xmlns="http://www.w3.org/2000/svg" class="flow-editor-workspace" version="1.1" pointer-events="all" width="512px" height="512px" viewBox="804.3333129882812 319.3333435058594 183 168">
   <g class="flow-editor-render-area" fill="white" width="100%" height="100%">
      <g class="flow-node flow-node-Lifx" id="node-933b0060-653f-11e4-805f-f5ad9cf5ef3a" transform="translate(804.3333129882812,398.3333435058594)">
         <rect width="80" height="70" rx="6" ry="6"/>
         <image xmlns:xlink="http://www.w3.org/1999/xlink" width="80" height="70" xlink:href="https://ds78apnml6was.cloudfront.net/device/other.svg"/>
         <text class="flow-node-label" y="80" x="40" text-anchor="middle" alignment-baseline="central">.</text>
         <rect x="-5" y="30" width="10" height="10" data-port-number="0" class="flow-node-port flow-node-input-port"/>
         <rect x="75" y="30" width="10" height="10" data-port-number="0" class="flow-node-port flow-node-output-port"/>
      </g>
      <g class="flow-node flow-node-output" id="node-55973510-6541-11e4-805f-f5ad9cf5ef3a" transform="translate(902.3333129882812,319.3333435058594)">
         <rect width="80" height="70" rx="6" ry="6"/>
         <image xmlns:xlink="http://www.w3.org/1999/xlink" width="80" height="70" xlink:href="https://ds78apnml6was.cloudfront.net/operation/output.svg"/>
         <text class="flow-node-label" y="80" x="40" text-anchor="middle" alignment-baseline="central">Output</text>
         <rect x="-5" y="30" width="10" height="10" data-port-number="0" class="flow-node-port flow-node-input-port"/>
      </g>
      <path class="flow-link" d="M884.3333129882812,433.3333435058594L895.9999796549479,433.33334350585926C907.6666463216145,433.3333435058593,930.9999796549479,433.3333435058593,922.3333129882812,420.16667683919263C913.6666463216145,407.000010172526,872.9999796549478,380.6666768391927,864.3333129882811,367.500010172526C855.6666463216145,354.3333435058594,878.9999796549479,354.3333435058594,890.6666463216145,354.3333435058594L902.3333129882812,354.3333435058594" stroke="black" stroke-width="10"/>
   </g>
</svg>