<?xml version="1.0" ?><!DOCTYPE svg  PUBLIC '-//W3C//DTD SVG 1.1//EN'  'http://www.w3.org/Graphics/SVG/1.1/DTD/svg11.dtd'><svg enable-background="new 0 0 512 512" height="512px" id="Layer_1" version="1.1" viewBox="0 0 512 512" width="512px" xml:space="preserve" xmlns="http://www.w3.org/2000/svg" xmlns:xlink="http://www.w3.org/1999/xlink"><g><path d="M224,203v-21h-38.394c19.042-52.957,43.339-94.667,57.216-94.667c18.438,0,18.438,31.625,36.896,31.625   c7.906,0,18.447-10.542,18.447-23.357c0-18.974-18.447-29.351-55.344-29.351c-31.005,0-75.034,53.595-99.251,115.75H98v21h38.271   c-1.527,5-2.914,10.021-4.135,15.044c-18.448,75.912-55.344,206.624-73.802,206.624c-18.438,0-18.438-42.168-36.896-42.168   C13.542,382.5,3,398.631,3,417.604c0,18.973,18.438,28.146,55.333,28.146c55.354,0,92.25-132.831,110.697-208.724   c2.787-11.474,5.998-22.897,9.501-34.026H224z" fill="#0776B7"/><path d="M308.707,182h-23.873c-33.313,35-71.001,95.691-71.001,173.549c0,34.838,7.422,63.451,21.536,90.452h20.63   c-13.794-32.001-21.083-60.166-21.083-89.804C234.916,280.943,273.388,221,308.707,182z" fill="#0776B7"/><polygon fill="#0776B7" points="378.259,322.534 445.75,245 413.98,245 367.036,304.781 339.91,245 308.707,245 347.18,322.205    277.083,404 308.821,404 358.432,340.287 386.217,404 414.125,404  "/><path d="M487.813,182h-20.98c13.785,31,21.084,59.855,21.084,89.493c0,75.264-38.461,135.507-73.791,174.507h23.884   C471.322,410,509,350.01,509,272.142C509,237.295,501.588,209,487.813,182z" fill="#0776B7"/></g></svg>