<?xml version="1.0" ?><!DOCTYPE svg  PUBLIC '-//W3C//DTD SVG 1.1//EN'  'http://www.w3.org/Graphics/SVG/1.1/DTD/svg11.dtd'><svg enable-background="new 0 0 512 512" height="512px" id="Layer_1" version="1.1" viewBox="0 0 512 512" width="512px" xml:space="preserve" xmlns="http://www.w3.org/2000/svg" xmlns:xlink="http://www.w3.org/1999/xlink"><g id="link_x5F_web_x5F_marketing"><path d="M284.165,306.5H46c-8.271,0-15.5-7.229-15.5-15.5V113c0-8.271,7.229-14.5,15.5-14.5h445.5v-15H46   c-16.5,0-30.5,13-30.5,29.5v178c0,16.5,14,30.5,30.5,30.5h243.558L284.165,306.5z" fill="#333333"/><polygon fill="#333333" points="391.058,306.5 429.509,321.5 491.5,321.5 491.5,306.5  "/><polygon fill="#579BD3" points="448.259,416.259 404.233,372.539 467.079,351.758 292,283.458 356.06,461.621 379.54,395.304    423.371,440.432  "/><path d="M121.5,245.5h-20v-41.704c0-10.324-3.708-15.486-11.388-15.486c-5.461,0-9.47,1.856-11.902,5.567   c-2.432,3.712-3.71,9.727-3.71,18.046V245.5h-19v-99h19v19.796c0,1.579-0.021,5.445-0.32,11.29l-0.319,5.914h1.024   c4.352-7,11.263-10.65,20.734-10.65c8.404,0,14.892,2.184,19.244,6.706c4.352,4.523,6.637,10.93,6.637,19.376V245.5z" fill="#333333"/><path d="M171.363,231.313c3.413,0,8.137-0.746,12.137-2.239V243.6c-5,2.176-10.685,3.264-17.767,3.264   c-7.807,0-13.41-1.974-16.972-5.92c-3.562-3.945-5.261-9.865-5.261-17.758V188.5h-9v-8.061l10.572-6.682l5.452-15.257H163.5v16h20   v14h-20v34.686c0,2.773,0.454,4.821,2.011,6.144C167.069,230.652,168.805,231.313,171.363,231.313z" fill="#333333"/><path d="M228.309,231.313c3.413,0,7.191-0.746,12.191-2.239V243.6c-5,2.176-10.74,3.264-17.822,3.264   c-7.807,0-13.382-1.974-16.944-5.92c-3.562-3.945-5.233-9.865-5.233-17.758V188.5h-9v-8.061l10.517-6.682l5.397-15.257H219.5v16h20   v14h-20v34.686c0,2.773,0.927,4.821,2.484,6.144C223.542,230.652,225.748,231.313,228.309,231.313z" fill="#333333"/><path d="M294.444,246.758c-8.404,0-14.996-3.258-19.773-9.258h-1.024c0.683,6,0.853,9.641,0.853,10.58v29.42h-19   v-103h15.523l2.752,9h0.896c4.564-7,11.327-10.714,20.286-10.714c8.446,0,15.059,3.219,19.837,9.746s7.168,15.57,7.168,27.174   c0,7.638-1.12,14.26-3.36,19.891c-2.239,5.631-5.429,9.86-9.566,12.803C304.896,245.344,300.033,246.758,294.444,246.758z    M288.686,188.31c-4.821,0-8.428,1.483-10.646,4.448c-2.219,2.966-3.54,7.861-3.54,14.687v2.111c0,7.68,1.227,13.183,3.51,16.511   c2.281,3.327,5.94,4.991,10.89,4.991c8.745,0,13.139-7.209,13.139-21.63c0-7.039-1.066-12.318-3.22-15.838   C296.663,190.07,293.293,188.31,288.686,188.31z" fill="#333333"/><path d="M335.336,183.575c0-3.583,0.96-6.292,2.88-8.127c1.92-1.834,4.713-2.752,8.383-2.752   c3.541,0,6.281,0.939,8.223,2.816c1.941,1.878,2.912,4.565,2.912,8.063c0,3.456-0.992,6.133-2.976,8.031   c-1.984,1.899-4.703,2.848-8.159,2.848c-3.584,0-6.357-0.938-8.319-2.816C336.316,189.761,335.336,187.073,335.336,183.575z    M335.336,236.433c0-3.583,0.96-6.292,2.88-8.127c1.92-1.834,4.713-2.752,8.383-2.752c3.541,0,6.281,0.939,8.223,2.816   c1.941,1.878,2.912,4.565,2.912,8.062c0,3.371-0.981,6.026-2.943,7.968c-1.963,1.94-4.693,2.911-8.191,2.911   c-3.584,0-6.357-0.949-8.319-2.848C336.316,242.566,335.336,239.889,335.336,236.433z" fill="#333333"/><path d="M418.719,152.5l-34.876,93h-17.727l34.877-93H418.719z" fill="#333333"/><path d="M472.857,152.5l-34.876,93h-17.727l34.877-93H472.857z" fill="#333333"/></g></svg>