<?xml version="1.0" ?><!DOCTYPE svg  PUBLIC '-//W3C//DTD SVG 1.1//EN'  'http://www.w3.org/Graphics/SVG/1.1/DTD/svg11.dtd'><svg enable-background="new 0 0 512 512" height="512px" id="Layer_1" version="1.1" viewBox="0 0 512 512" width="512px" xml:space="preserve" xmlns="http://www.w3.org/2000/svg" xmlns:xlink="http://www.w3.org/1999/xlink"><g id="_x32_4hours_x5F_available"><path d="M452.632,246.222c-4.353-115.677-99.487-208.124-216.229-208.124   c-119.516,0-216.354,96.886-216.354,216.402S116.5,470.902,236.5,470.902v-28.726c-104,0-187.725-84.191-187.725-187.676   S132.941,66.824,236.426,66.824c100.97,0,183.546,80.152,187.501,180.17l-43.03-15.401l56.301,97.522l56.302-97.522   L452.632,246.222z" fill="#333333"/><path d="M342.978,470.5H255.5v-17.942l31.452-31.654c9.27-9.499,15.398-16.083,18.244-19.752   c2.844-3.669,4.927-7.068,6.178-10.196c1.25-3.128,1.894-6.371,1.894-9.727c0-5.006-1.37-8.731-4.129-11.177   c-2.76-2.446-6.438-3.669-11.045-3.669c-4.835,0-9.526,1.109-14.076,3.328c-4.552,2.218-9.299,5.375-14.248,9.471l-14.333-16.979   c6.143-5.233,11.233-8.93,15.273-11.092c4.039-2.161,8.447-3.825,13.225-4.991c4.778-1.166,10.124-1.749,16.04-1.749   c7.793,0,14.675,1.422,20.648,4.266c5.973,2.844,10.608,6.826,13.907,11.945c3.299,5.119,4.949,10.978,4.949,17.576   c0,5.745-1.01,11.135-3.029,16.169c-2.019,5.034-5.148,10.196-9.385,15.486c-4.238,5.29-11.768,12.827-22.462,22.61L288.5,447.525   v0.975h54v22H342.978z" fill="#579BD3"/><path d="M445.5,445.5h-15v25h-26v-25h-53v-18.794l54.701-80.206H430.5v78h15V445.5z M404.5,424.573v-21.16   c0-3.527,0.268-8.579,0.552-15.291c0.284-6.712,0.638-10.622,0.809-11.622h-0.683c-2.105,5-4.636,9.112-7.594,13.548L374.718,424.5   H404.5V424.573z" fill="#579BD3"/><path d="M340.687,164.568c-7.086-7.086-78.883,52.704-111.018,80.721c-21.017-15.966-54.308-38.225-60.707-31.826   c-8.787,8.787,36.468,68.288,45.255,77.075c5.538,5.538,13.242,7.577,20.383,6.135c4.409-0.766,8.636-2.835,12.041-6.24   C255.429,281.646,349.474,173.354,340.687,164.568z" fill="#579BD3"/><path d="M244.5,132.5c0,5.523-4.477,10-10,10h-3c-5.523,0-10-4.477-10-10v-43c0-5.523,4.477-10,10-10h3   c5.523,0,10,4.477,10,10V132.5z" fill="#333333"/><path d="M123.5,255.5c0,5.523-4.477,10-10,10h-43c-5.523,0-10-4.477-10-10v-3c0-5.523,4.477-10,10-10h43   c5.523,0,10,4.477,10,10V255.5z" fill="#333333"/></g></svg>