<?xml version="1.0" ?><!DOCTYPE svg  PUBLIC '-//W3C//DTD SVG 1.1//EN'  'http://www.w3.org/Graphics/SVG/1.1/DTD/svg11.dtd'><svg enable-background="new 0 0 512 512" height="512px" id="Layer_1" version="1.1" viewBox="0 0 512 512" width="512px" xml:space="preserve" xmlns="http://www.w3.org/2000/svg" xmlns:xlink="http://www.w3.org/1999/xlink"><g id="market_x5F_research"><path d="M210.735,330.7c12.977,7.515,27.747,11.538,43.143,11.538c15.856,0,31.059-4.246,44.311-12.201   c-15.444-4.612-17.389-9.405-16.37-17.15c8.865-8.105,11.904-25.075,13.171-33.687c6.839-3.546,8.358-9.625,9.625-16.97   c1.266-7.345-0.253-7.345-1.266-7.345l-1.823,0.081c0.809-2.157,1.109-5.916,0.672-10.493c3.107-31.724-18.335-39.86-24.634-39.865   c-7.191-4.862-24.686-13.261-47.155-5.194c-32.071,11.515-22.659,49.903-22.658,49.906c0.011,2.925,0.311,5.047,0.765,5.983   c0,0-0.837-0.204-1.922-0.166c-2.796,0.098-3.293,1.773-2.533,7.345s4.812,13.931,10.638,17.223   c2.533,14.184,10.131,29.128,14.437,33.307C229.724,323.701,224.839,326.874,210.735,330.7z" fill="#579BD3"/><path d="M331.89,393.533c-6.322-6.323-9.908-14.574-10.329-23.228c-0.303-0.421-0.578-0.855-0.846-1.293   c-20.026,11.882-42.943,18.226-66.837,18.226c-34.394,0-66.764-13.141-91.393-37.035c-2.73,2.677-4.856,5.519-6.802,8.529   c-4.639,7.174-3.546,30.901-1.266,34.194s40.019,25.835,100.808,25.835c40.243,0,69.261-9.101,85.391-16.503L331.89,393.533z" fill="#579BD3"/><path d="M146.698,141.707c1.723,9.648,5.789,19.644,9.569,26.369c1.533-1.701,3.117-3.373,4.755-5.011   c20.619-20.62,46.89-33.529,75.318-37.299c0.094-0.506,0.185-1.016,0.275-1.535c1.266-7.345-0.253-7.345-1.266-7.345l-1.823,0.081   c0.809-2.157,1.109-5.916,0.672-10.493c3.107-31.724-18.335-39.86-24.634-39.865c-7.191-4.862-24.686-13.261-47.155-5.194   c-32.071,11.515-22.659,49.903-22.658,49.906c0.011,2.925,0.311,5.047,0.765,5.983c0,0-0.837-0.204-1.922-0.166   c-2.796,0.098-3.293,1.773-2.533,7.345C136.82,130.056,140.873,138.414,146.698,141.707z" fill="#333333"/><path d="M142.083,401.464c-1.157-1.67-4.681-6.759-4.629-24.225c0.036-11.962,1.931-20.929,5.632-26.652   c2.643-4.086,5.589-7.887,9.24-11.407c-32.422-39.485-38.302-93.606-17.636-138.398c-8.99-4.114-23.195-7.503-40.283-1.367   c-32.07,11.515-22.657,49.903-22.657,49.906c0.011,2.925,0.311,5.047,0.765,5.983c0,0-0.837-0.204-1.922-0.166   c-2.796,0.098-3.293,1.773-2.533,7.345s4.812,13.931,10.638,17.223c2.533,14.184,10.131,29.128,14.437,33.307   c0.76,13.804-7.599,15.071-33.181,21.403s-33.874,14.422-40.273,24.316c-4.639,7.174-3.546,30.901-1.266,34.194   s40.019,25.835,100.808,25.835c16.276,0,30.698-1.497,43.195-3.76C154.295,411.284,145.498,406.397,142.083,401.464z" fill="#333333"/><path d="M270.252,125.608c28.875,3.569,55.581,16.555,76.482,37.456c1.98,1.98,3.859,4.023,5.686,6.096   c5.389-8.775,7.554-21.052,8.57-27.96c6.839-3.546,8.358-9.625,9.625-16.97c1.266-7.345-0.253-7.345-1.266-7.345l-1.823,0.081   c0.809-2.157,1.109-5.916,0.672-10.493c3.107-31.724-18.335-39.86-24.634-39.865c-7.191-4.862-24.686-13.261-47.155-5.194   c-32.071,11.515-22.659,49.903-22.658,49.906c0.011,2.925,0.311,5.047,0.765,5.983c0,0-0.837-0.204-1.922-0.166   c-2.796,0.098-3.293,1.773-2.533,7.345C270.11,124.847,270.175,125.223,270.252,125.608z" fill="#333333"/><path d="M369.299,318.559c0.604,0.316,1.198,0.652,1.77,1.029c9.244,0.159,17.896,3.818,24.423,10.345   l74.385,74.385c11.115-4.587,17.629-8.917,19.143-10.632c3.799-4.306,4.559-26.089,0-35.207s-14.944-19.25-43.059-25.075   c-28.115-5.826-31.408-10.891-30.141-20.516c8.865-8.105,11.904-25.075,13.171-33.687c6.839-3.546,8.358-9.625,9.625-16.97   c1.266-7.345-0.253-7.345-1.266-7.345l-1.823,0.081c0.809-2.157,1.109-5.916,0.672-10.493c3.107-31.724-18.335-39.86-24.634-39.865   c-6.423-4.343-21.073-11.499-40.141-7.228C390.368,235.504,389.666,280.985,369.299,318.559z" fill="#333333"/><path d="M336.128,173.671c-45.425-45.425-119.074-45.425-164.499,0s-45.425,119.074,0,164.499   s119.074,45.425,164.499,0S381.553,219.096,336.128,173.671z M325.521,327.563c-19.137,19.136-44.58,29.675-71.644,29.675   c-27.063,0-52.506-10.539-71.643-29.675c-39.503-39.504-39.503-103.782,0-143.286c19.137-19.136,44.58-29.675,71.643-29.675   s52.507,10.539,71.644,29.675C365.024,223.781,365.024,288.06,325.521,327.563z" fill="#333333"/><path d="M473.032,428.686l-88.147-88.147c-5.336-5.336-12.951-7.084-19.785-5.254   c-0.238-0.898-0.704-1.748-1.408-2.452c-2.128-2.128-5.579-2.128-7.707,0l-21.676,21.676c-2.128,2.128-2.128,5.579,0,7.707   c0.792,0.792,1.767,1.288,2.788,1.49c-1.588,6.686,0.211,14.032,5.401,19.222l88.147,88.147c7.948,7.948,20.953,7.948,28.901,0   l13.487-13.487C480.979,449.639,480.979,436.634,473.032,428.686z" fill="#333333"/></g></svg>