<?xml version="1.0" encoding="utf-8"?>
<!-- Generator: Adobe Illustrator 18.0.0, SVG Export Plug-In . SVG Version: 6.00 Build 0)  -->
<!DOCTYPE svg PUBLIC "-//W3C//DTD SVG 1.1//EN" "http://www.w3.org/Graphics/SVG/1.1/DTD/svg11.dtd">
<svg version="1.1" id="Layer_1" xmlns="http://www.w3.org/2000/svg" xmlns:xlink="http://www.w3.org/1999/xlink" x="0px" y="0px"
	 viewBox="0 0 1000 1000" enable-background="new 0 0 1000 1000" xml:space="preserve">
<path fill="#579BD3" d="M0,866c0-36.7,13-68,39-94s57.3-39,94-39s68,13,94,39s39,57.3,39,94c0,37.3-13,68.8-39,94.5
	S169.7,999,133,999s-68-13-94-39S0,902.7,0,866z M0,531V340c119.3,0,229.7,29.5,331,88.5S512.5,567.7,571.5,669S660,880.7,660,1000
	H468c0-129.3-45.7-239.7-137-331C239,577,128.7,531,0,531z M0,192V0c135.3,0,264.7,26.5,388,79.5S617.7,203.7,707,293
	s160.5,195.7,213.5,319s79.5,252.7,79.5,388H808c0-109.3-21.3-214-64-314S643.8,500,571.5,428s-158.3-129.3-258-172S109.3,192,0,192
	z"/>
</svg>
