<?xml version="1.0" ?><!DOCTYPE svg  PUBLIC '-//W3C//DTD SVG 1.1//EN'  'http://www.w3.org/Graphics/SVG/1.1/DTD/svg11.dtd'><svg enable-background="new 0 0 512 512" height="512px" id="Layer_1" version="1.1" viewBox="0 0 512 512" width="512px" xml:space="preserve" xmlns="http://www.w3.org/2000/svg" xmlns:xlink="http://www.w3.org/1999/xlink"><g id="calendar_x5F_time_x5F_management"><path d="M119.25,131.002c-3.85,0.015-7.012-3.123-7.027-6.973l-0.196-51c-0.015-3.85,3.123-7.012,6.973-7.027   l1-0.004c3.85-0.015,7.012,3.123,7.027,6.973l0.196,51c0.015,3.85-3.123,7.012-6.973,7.027L119.25,131.002z" fill="#333333"/><path d="M213.208,131.002c-3.85,0.015-7.012-3.123-7.027-6.973l-0.196-51c-0.015-3.85,3.123-7.012,6.973-7.027   l1-0.004c3.85-0.015,7.012,3.123,7.027,6.973l0.196,51c0.015,3.85-3.123,7.012-6.973,7.027L213.208,131.002z" fill="#333333"/><path d="M306.542,131.002c-3.85,0.015-7.012-3.123-7.027-6.973l-0.196-51c-0.015-3.85,3.123-7.012,6.973-7.027   l1-0.004c3.85-0.015,7.012,3.123,7.027,6.973l0.196,51c0.015,3.85-3.123,7.012-6.973,7.027L306.542,131.002z" fill="#333333"/><path d="M263.802,430.5H46.5c-8.271,0-16-7.729-16-16v-234h446v64.88l15,15.001V122.5c0-16.5-12.5-29-29-29h-39.271   l0.118,30.664c0.023,5.867-2.245,11.274-6.39,15.45c-4.144,4.175-9.657,6.424-15.526,6.446l-1.083-0.027   c-12.082,0-21.952-9.596-22.001-21.678L378.229,93.5h-48.833l0.119,30.664c0.046,12.131-9.785,21.913-21.916,21.959l-1.083-0.058   c-12.086,0-21.955-9.613-22.001-21.697l-0.12-30.867h-48.332l0.119,30.664c0.046,12.131-9.786,21.913-21.916,21.959l-1.084-0.058   c-12.085,0-21.954-9.613-22-21.697l-0.12-30.867h-48.958l0.119,30.664c0.022,5.869-2.247,11.275-6.39,15.45   c-4.143,4.175-9.657,6.424-15.526,6.446l-1.084-0.027c-12.085,0-21.954-9.598-22-21.682L97.104,93.5H46.5c-16.5,0-31,12.5-31,29   v292c0,16.5,14.5,31,31,31h225.067C268.67,440.691,266.076,435.682,263.802,430.5z" fill="#333333"/><path d="M400.375,131.002c-3.85,0.015-7.012-3.123-7.027-6.973l-0.196-51c-0.015-3.85,3.123-7.012,6.973-7.027   l1-0.004c3.85-0.015,7.012,3.123,7.027,6.973l0.196,51c0.015,3.85-3.123,7.012-6.973,7.027L400.375,131.002z" fill="#333333"/><g><rect fill="#333333" height="44" width="47" x="168.5" y="195.5"/><rect fill="#333333" height="44" width="47" x="167.5" y="370.5"/><rect fill="#333333" height="43" width="47" x="168.5" y="313.5"/><rect fill="#333333" height="44" width="47" x="167.5" y="253.5"/><rect fill="#333333" height="44" width="46" x="106.5" y="194.5"/><rect fill="#333333" height="44" width="46" x="107.5" y="371.5"/><rect fill="#333333" height="44" width="46" x="107.5" y="254.5"/><rect fill="#333333" height="43" width="46" x="106.5" y="312.5"/><rect fill="#333333" height="44" width="46" x="229.5" y="194.5"/><path d="M327.5,228.598c0-8.745,4.348-16.493,11-21.231V195.5h-47v44h36V228.598z" fill="#333333"/><rect fill="#333333" height="44" width="47" x="44.5" y="370.5"/><rect fill="#333333" height="44" width="47" x="45.5" y="195.5"/><rect fill="#333333" height="44" width="47" x="45.5" y="254.5"/><rect fill="#333333" height="43" width="47" x="45.5" y="313.5"/><path d="M353.719,202.5H398.5v-8h-46v8.031C352.904,202.512,353.31,202.5,353.719,202.5z" fill="#333333"/><path d="M313.855,266.633c5.981-3.795,12.23-7.085,18.696-9.85c-0.764-1.038-1.447-2.137-2.053-3.283H300.78    L313.855,266.633z" fill="#333333"/><path d="M270.111,312.5H229.5v43h25.156C257.225,340.326,262.429,325.847,270.111,312.5z" fill="#333333"/><polygon fill="#333333" points="253.073,286.987 276.5,263.509 276.5,254.5 230.5,254.5 230.5,298.5 264.599,298.5   "/><path d="M252.78,377.821c0-2.117,0.067-4.222,0.165-6.321H230.5v44h27.788    C254.711,403.558,252.78,390.912,252.78,377.821z" fill="#333333"/><path d="M434.929,256.51c6.838,2.851,13.434,6.261,19.667,10.182l5.904-5.877V253.5h-23.818    C436.159,254.546,435.579,255.556,434.929,256.51z" fill="#333333"/><path d="M439.5,228.598V239.5h22v-44h-47v7.011C428.554,202.75,439.5,214.118,439.5,228.598z" fill="#333333"/></g></g><path d="M475.782,305.551l19.837-19.837l-19.391-19.391l-19.96,19.869c-16.785-13.21-37.768-21.913-59.768-24.269  V252.5h17.551c6.058,0,10.449-5.046,10.449-11.104v-12.798c0-6.058-4.391-11.098-10.449-11.098h-60.332  c-6.058,0-11.219,5.04-11.219,11.098v12.798c0,6.058,5.161,11.104,11.219,11.104H373.5v9.249c-23,2.066-44.1,10.875-61.341,24.441  l-18.529-18.611l-19.35,19.391l18.605,18.585c-15.723,19.863-25.105,44.966-25.105,72.267c0,64.369,52.186,116.55,116.555,116.55  s116.553-52.181,116.553-116.55C500.889,350.522,491.504,325.414,475.782,305.551z M384.342,453.237  c-41.583,0-75.415-33.831-75.415-75.415s33.831-75.415,75.415-75.415s75.415,33.831,75.415,75.415S425.925,453.237,384.342,453.237z  " fill="#579BD3"/><path d="M384.342,365.259c-0.824,0-1.628,0.084-2.406,0.238l-32.281-32.281l-9.696,9.696l32.282,32.282  c-0.154,0.779-0.238,1.582-0.238,2.406c0,6.815,5.525,12.341,12.341,12.341s12.341-5.525,12.341-12.341  C396.682,370.784,391.157,365.259,384.342,365.259z" fill="#579BD3"/></svg>