<?xml version="1.0" encoding="utf-8"?>
<!-- Generator: Adobe Illustrator 15.1.0, SVG Export Plug-In . SVG Version: 6.00 Build 0)  -->
<!DOCTYPE svg PUBLIC "-//W3C//DTD SVG 1.1//EN" "http://www.w3.org/Graphics/SVG/1.1/DTD/svg11.dtd">
<svg version="1.1" id="Layer_1" xmlns="http://www.w3.org/2000/svg" xmlns:xlink="http://www.w3.org/1999/xlink" x="0px" y="0px"
	 width="800px" height="800px" viewBox="0 0 800 800" enable-background="new 0 0 800 800" xml:space="preserve">
<path fill="#CCCCCC" d="M257.41,71.539c0,0,54.152-6.649,80.753,0c26.604,6.654,94.055,19.954,108.305,22.806
	c14.255,2.847,42.754,10.447,41.809,14.25c-0.956,3.797-21.854,50.354-29.455,64.604c-7.601,14.25-33.248,88.351-42.755,126.357
	c-9.496,38.001-27.549,80.75-21.85,117.806c5.701,37.051,24.707,81.701,38.951,107.354c14.25,25.653,17.103,52.256,49.404,77.903
	c32.303,25.653,37.051,35.154,76.002,43.705c38.952,8.552,51.306,9.497,60.807,24.702c9.502,15.2,17.098,35.149,0,42.755
	c-17.102,7.6-32.302,11.397-62.703,13.299c-30.405,1.901-68.406,4.748-109.26,3.798c-40.848-0.951-65.562-0.658-74.116-9.209
	c-8.551-8.551-13.283-24.989-26.588-42.092c-13.301-17.102-44.653-69.353-55.103-72.204c-10.452-2.853-30.753-18.053-49.579-23.752
	c-18.826-5.698-54.926-10.446-64.427-36.1c-9.499-25.652-2.852-54.157,9.499-67.456s33.253-28.505,44.653-59.856
	c11.4-31.346,19.951-49.404,26.601-98.803c6.652-49.404,3.8-114.008,0.951-128.258c-2.85-14.25-7.6-83.603-7.6-97.857
	C251.709,81.041,257.41,71.539,257.41,71.539z"/>
<path fill="#999999" d="M238.551,420.208c2.85,0,57.002,38.007,76.005,36.105c19-1.901-72.523,127.307-72.523,127.307
	s-2.577,1.742-23.006-6.207c-20.427-7.95-30.26-4.188-37.284-22.061c-7.024-17.873-17.366-31.424-6.002-53.355
	c11.364-21.933,4.73-18.223,22.369-32.904c17.639-14.681,18.733-16.577,26.192-32.729
	C231.758,420.208,238.551,420.208,238.551,420.208z"/>
<path fill="#FFFFFF" d="M252.094,123.779c0,0,52.487-18.037,113.292,3.813c60.804,21.855,97.443,37.179,97.443,37.179
	l-10.668,23.612c0,0-65.388-31.711-94.638-35.802c-29.25-4.085-102.821-5.036-102.821-5.036L252.094,123.779z"/>
<path fill="#FFFFFF" d="M257.583,183.471c0,0,42.734-14.687,92.241,3.104c49.509,17.795,90.714,33.993,90.714,33.993l-7.6,22.498
	c0,0-65.699-32.811-89.515-36.141c-23.815-3.33-83.718-4.101-83.718-4.101L257.583,183.471z"/>
<path fill="#999999" d="M565.852,647.901c0,0-30.885,0.323-22.334,17.42c8.551,17.103,17.107,37.056,22.334,40.854
	c5.221,3.803,23.124,17.266,25.827,16.675c2.697-0.591,13.978-3.335,20.837-6.202c6.865-2.867,14.436-4.614,15.73-11.347
	c1.295-6.731,2.332-8.88,0-15.426c-2.334-6.547-5.931-13.998-7.4-16.424c-1.465-2.426-2.847-6.229-7.266-9.62
	c-4.42-3.392-5.807-5.446-14.348-7.919c-8.546-2.472-17.708-5.791-21.511-5.791S565.852,647.901,565.852,647.901z"/>
</svg>
