<?xml version="1.0" ?><!DOCTYPE svg  PUBLIC '-//W3C//DTD SVG 1.1//EN'  'http://www.w3.org/Graphics/SVG/1.1/DTD/svg11.dtd'><svg enable-background="new 0 0 512 512" height="512px" id="Layer_1" version="1.1" viewBox="0 0 512 512" width="512px" xml:space="preserve" xmlns="http://www.w3.org/2000/svg" xmlns:xlink="http://www.w3.org/1999/xlink"><g id="site_x5F_map"><path d="M163.5,384.5c0-8.284-6.716-15-15-15h-118c-8.284,0-15,6.716-15,15v59c0,8.284,6.716,15,15,15h118   c8.284,0,15-6.716,15-15V384.5z M148.5,436.5h-118v-15h118V436.5z M148.5,406.5h-118v-15h118V406.5z" fill="#333333"/><path d="M327.5,384.5c0-8.284-6.716-15-15-15h-118c-8.284,0-15,6.716-15,15v59c0,8.284,6.716,15,15,15h118   c8.284,0,15-6.716,15-15V384.5z M312.5,436.5h-118v-15h118V436.5z M312.5,406.5h-118v-15h118V406.5z" fill="#333333"/><path d="M491.5,384.5c0-8.284-6.716-15-15-15h-118c-8.284,0-15,6.716-15,15v59c0,8.284,6.716,15,15,15h118   c8.284,0,15-6.716,15-15V384.5z M476.5,436.5h-118v-15h118V436.5z M476.5,406.5h-118v-15h118V406.5z" fill="#333333"/><polygon fill="#579BD3" points="261.5,321.5 261.5,292.5 246.5,292.5 246.5,321.5 81.5,321.5 81.5,356.5 96.5,356.5 96.5,336.5    246.5,336.5 246.5,356.5 261.5,356.5 261.5,336.5 410.5,336.5 410.5,356.5 425.5,356.5 425.5,321.5  "/><path d="M425.5,82.5c0-16.569-13.431-30-30-30h-284c-16.569,0-30,13.431-30,30v165c0,16.569,13.431,30,30,30h284   c16.569,0,30-13.431,30-30V82.5z M380.5,219.5v15h-254v-15H380.5z M126.5,174.5v-15h254v15H126.5z M380.5,114.5h-254v-15h254V114.5   z" fill="#333333"/></g></svg>