<?xml version="1.0" ?><!DOCTYPE svg  PUBLIC '-//W3C//DTD SVG 1.1//EN'  'http://www.w3.org/Graphics/SVG/1.1/DTD/svg11.dtd'><svg enable-background="new 0 0 512 512" height="512px" id="Layer_1" version="1.1" viewBox="0 0 512 512" width="512px" xml:space="preserve" xmlns="http://www.w3.org/2000/svg" xmlns:xlink="http://www.w3.org/1999/xlink"><g id="file"><path d="M400,17.5H108c-16.5,0-30.5,13-30.5,29.5v416c0,16.5,14,30.5,30.5,30.5h174.386L429.5,345.386V47   C429.5,30.5,416.5,17.5,400,17.5z M414.5,338.5h0.475c-0.258,3-3.751,6.75-7.725,6.75c-0.169,0,0.25-0.264-0.75-0.275v0.525   h-94.114c-16.5,0-30.886,13.386-30.886,29.886V471.5h0.475c-0.258,3-3.751,6.75-7.725,6.75c-0.169,0,0.25-0.264-0.75-0.275v0.525   H108c-8.271,0-15.5-7.229-15.5-15.5V47c0-8.271,7.229-14.5,15.5-14.5h292c8.271,0,14.5,6.229,14.5,14.5V338.5z" fill="#333333"/></g></svg>