<?xml version="1.0" ?><!DOCTYPE svg  PUBLIC '-//W3C//DTD SVG 1.1//EN'  'http://www.w3.org/Graphics/SVG/1.1/DTD/svg11.dtd'><svg enable-background="new 0 0 512 512" height="512px" id="Layer_1" version="1.1" viewBox="0 0 512 512" width="512px" xml:space="preserve" xmlns="http://www.w3.org/2000/svg" xmlns:xlink="http://www.w3.org/1999/xlink"><g id="time_x5F_efficiency"><path d="M370.5,414.125V440.5h-230v-26.375c0-17.694,88.453-44.236,114.997-44.236S370.5,396.431,370.5,414.125z" fill="#579BD3"/><path d="M349.546,148.708c-10.439,12.386-23.533,24.418-35.831,35.743c-20.26,18.58-38.308,35.211-45.74,53.261   c-3.805,9.024-7.609,17.163-12.475,17.163s-8.67-8.139-12.474-17.164c-7.432-18.048-25.48-34.681-45.74-53.261   c-12.298-11.324-25.392-23.357-35.832-35.743c0,0,58.657,8.847,94.046,8.847S349.546,148.708,349.546,148.708z" fill="#579BD3"/><path d="M397.056,458.5H393.5v-53.223c0-37.562-33.705-68.805-63.663-96.369l-0.864-0.911   c-21.409-19.699-41.568-38.308-41.568-53.122c0-14.763,20.194-33.315,41.541-52.957l0.792-0.944   c29.997-27.601,63.762-58.885,63.762-96.502V51.5h3.556c9.732,0,17.694-7.769,17.694-17.5c0-9.732-7.962-17.5-17.694-17.5H113.944   c-9.731,0-17.694,7.768-17.694,17.5c0,9.731,7.963,17.5,17.694,17.5h2.556v52.972c0,37.564,34.207,68.808,64.167,96.374l1.103,0.9   c21.413,19.702,41.699,38.312,41.699,53.129c0,14.762-20.131,33.313-41.476,52.954l-1.26,0.944   c-29.999,27.602-64.233,58.887-64.233,96.504V458.5h-2.556c-9.731,0-17.694,8.268-17.694,18s7.963,18,17.694,18h283.111   c9.732,0,17.694-8.268,17.694-18S406.788,458.5,397.056,458.5z M131.5,458.5v-53.222c0-31.202,32.061-60.249,59.913-85.878   c25.084-23.081,46.994-43.015,46.994-64.525s-22.035-41.444-47.118-64.525c-27.851-25.627-59.789-54.675-59.789-85.878V51.5h247   v52.972c0,31.202-31.561,60.249-59.413,85.878c-25.084,23.081-46.744,43.015-46.744,64.525s21.659,41.444,46.742,64.525   c27.851,25.628,59.414,54.675,59.414,85.878V458.5H131.5z" fill="#333333"/></g></svg>