<?xml version="1.0" ?><!DOCTYPE svg  PUBLIC '-//W3C//DTD SVG 1.1//EN'  'http://www.w3.org/Graphics/SVG/1.1/DTD/svg11.dtd'><svg enable-background="new 0 0 512 512" height="512px" id="Layer_1" version="1.1" viewBox="0 0 512 512" width="512px" xml:space="preserve" xmlns="http://www.w3.org/2000/svg" xmlns:xlink="http://www.w3.org/1999/xlink"><g id="pay_x5F_per_x5F_click"><path d="M253.416,299.064c-11.555-0.149-22.398-4.71-30.587-12.898c-8.324-8.323-12.908-19.392-12.908-31.166   s4.585-22.844,12.912-31.17c8.325-8.324,19.393-12.908,31.167-12.908c11.773,0,22.843,4.585,31.17,12.912   c8.324,8.324,12.908,19.393,12.908,31.167c0,0.701-0.019,1.399-0.051,2.095l14.531,5.677c0.334-2.557,0.52-5.15,0.52-7.772   c0-15.78-6.146-30.616-17.302-41.773c-11.16-11.16-25.996-17.305-41.776-17.305s-30.616,6.145-41.773,17.302   c-11.16,11.16-17.305,25.997-17.305,41.777s6.145,30.616,17.301,41.772c11.16,11.16,25.997,17.306,41.777,17.306   c1.576,0,3.139-0.078,4.693-0.2L253.416,299.064z" fill="#333333"/><path d="M274.105,357.146c-6.554,1.276-13.279,1.932-20.105,1.932c-27.8,0-53.937-10.826-73.597-30.485   C160.747,308.937,149.921,282.8,149.921,255s10.826-53.937,30.485-73.596c19.657-19.657,45.793-30.482,73.594-30.482   c27.8,0,53.937,10.826,73.596,30.485c19.656,19.658,30.482,45.794,30.482,73.594c0,8.337-0.981,16.523-2.875,24.431l14.093,5.506   c2.491-9.66,3.781-19.699,3.781-29.937c0-31.807-12.387-61.71-34.876-84.201c-22.492-22.491-52.396-34.878-84.202-34.878   c-31.807,0-61.71,12.386-84.201,34.876c-22.491,22.492-34.878,52.396-34.878,84.203s12.386,61.71,34.875,84.2   c22.493,22.491,52.396,34.878,84.203,34.878c8.571,0,17.001-0.908,25.188-2.662L274.105,357.146z" fill="#333333"/><path d="M294.39,414.094c-13.045,3.288-26.587,4.984-40.39,4.984c-43.826,0-85.03-17.067-116.022-48.058   c-30.99-30.99-48.057-72.194-48.057-116.02c0-43.827,17.067-85.031,48.058-116.022c30.99-30.99,72.194-48.057,116.021-48.057   c43.826,0,85.03,17.067,116.021,48.058C401.01,169.97,418.078,211.174,418.078,255c0,15.937-2.268,31.524-6.63,46.403l14.035,5.483   c5.002-16.611,7.596-34.049,7.596-51.885c0-47.833-18.628-92.804-52.45-126.628C346.804,94.549,301.833,75.921,254,75.921   s-92.804,18.627-126.628,52.45C93.549,162.196,74.921,207.167,74.921,255s18.627,92.804,52.45,126.627   c33.824,33.823,78.795,52.451,126.628,52.451c15.546,0,30.786-1.98,45.443-5.797L294.39,414.094z" fill="#333333"/><path d="M314.598,470.826c-19.479,5.437-39.822,8.252-60.598,8.252c-59.854,0-116.125-23.309-158.448-65.631   C53.229,371.124,29.921,314.854,29.921,255S53.229,138.875,95.552,96.552S194.146,30.921,254,30.921s116.124,23.308,158.447,65.631   c42.322,42.323,65.631,98.594,65.631,158.448c0,23.534-3.619,46.509-10.565,68.305l13.953,5.451   c7.528-23.232,11.612-48.015,11.612-73.755c0-132.039-107.039-239.079-239.079-239.079S14.921,122.961,14.921,255   S121.961,494.079,254,494.079c22.76,0,44.776-3.182,65.63-9.123L314.598,470.826z" fill="#333333"/><polygon fill="#579BD3" points="456.669,428.244 399.567,371.539 481.079,344.586 254,256 337.086,487.079 367.54,401.065    424.389,459.597  "/></g></svg>