<?xml version="1.0" ?><!DOCTYPE svg  PUBLIC '-//W3C//DTD SVG 1.1//EN'  'http://www.w3.org/Graphics/SVG/1.1/DTD/svg11.dtd'><svg enable-background="new 0 0 512 512" height="512px" id="Layer_1" version="1.1" viewBox="0 0 512 512" width="512px" xml:space="preserve" xmlns="http://www.w3.org/2000/svg" xmlns:xlink="http://www.w3.org/1999/xlink"><g><path d="M211.907,290.5c0,6-4.012,8.047-8.917,5.556l-65.175-33.047c-4.904-2.49-8.917-7.602-8.917-11.385   s3.901-9.112,8.669-11.853l65.467-37.749c4.768-2.741,8.466-0.479,8.466,5.021v3.091c0,5.5-3.767,12.118-8.62,14.706   l-39.431,21.087c-4.853,2.589-4.704,6.63,0.268,8.981l38.92,18.487c4.972,2.351,8.862,8.775,8.862,14.275v2.829H211.907z" fill="#579BD3"/><path d="M279.147,179.516c5.5,0,8.613,4.289,6.919,9.521L246.67,310.832c-1.695,5.232-7.581,9.668-13.081,9.668   h-3.155c-5.5,0-8.613-4.432-6.919-9.664l39.396-121.731c1.695-5.232,7.581-9.605,13.081-9.605h3.155V179.516z" fill="#579BD3"/><path d="M297.42,287.671c0-5.5,4.028-11.924,9-14.275l39.077-18.487c4.972-2.351,5.06-6.393,0.207-8.981   l-39.456-21.087c-4.853-2.589-8.748-9.207-8.748-14.707v-3.091c0-5.5,3.821-7.757,8.589-5.016l65.63,37.754   c4.768,2.741,8.649,8.08,8.649,11.863s-4.023,8.917-8.927,11.406l-65.1,33.089c-4.904,2.49-8.842,0.027-8.842-5.473v-2.995H297.42z   " fill="#579BD3"/><path d="M487.172,429.493l-33.594-60.61c-1.069-1.939-2.078-3.856-5.078-5.311V142c0-16.5-13-29.5-29.5-29.5H295.2   c-0.075,0,0.3,0.632-0.7,1.191V127.5H419c8.271,0,14.5,6.229,14.5,14.5v218.5h-359V142c0-8.271,7.229-14.5,15.5-14.5h98.5v-15H90   c-16.5,0-30.5,13-30.5,29.5v221.528c-2,1.452-3.569,3.242-4.663,5.182l-34.049,60.83c-2.702,4.791-0.288,8.96,5.212,8.96h456   C487.5,438.5,489.828,434.309,487.172,429.493z M345.5,403.5v1.5c0,6.627-4.873,12.5-11.5,12.5H174c-6.627,0-12.5-5.873-12.5-12.5   v-1.5H52.966l15.079-26.731c0.442-0.481,1.536-1.269,2.173-1.269h368.55c0.6,0,1.617,0.749,2.036,1.203l14.773,26.797H345.5z" fill="#333333"/><path d="M226.004,127.004c5.698-5.698,8.996-33.412,8.996-33.412s3.299,27.714,8.996,33.412   c5.698,5.698,33.412,8.996,33.412,8.996s-27.115,2.699-33.412,8.996S235,178.408,235,178.408s-1.799-26.215-8.996-33.412   S192.592,136,192.592,136S220.306,132.701,226.004,127.004z" fill="#579BD3"/><path d="M274.097,79.097C277.835,75.358,280,57.171,280,57.171s2.165,18.187,5.903,21.926S307.829,85,307.829,85   s-17.793,1.771-21.926,5.903c-4.132,4.132-5.903,21.926-5.903,21.926s-1.181-17.203-5.903-21.926S252.171,85,252.171,85   S270.358,82.835,274.097,79.097z" fill="#579BD3"/></g></svg>